{"glyphs":{"0":{"ha":710,"x_min":46,"x_max":664,"o":"m 303 -14 q 161 26 218 -14 q 75 135 104 65 q 46 294 46 204 q 71 469 46 386 q 143 615 96 551 q 257 714 190 678 q 407 750 324 750 q 549 710 492 750 q 635 601 606 671 q 664 442 664 532 q 619 213 664 317 q 494 48 575 110 q 303 -14 414 -14 m 315 86 q 474 130 410 86 q 569 247 538 174 q 601 410 601 319 q 546 583 601 517 q 388 650 490 650 q 238 606 300 650 q 142 489 175 563 q 108 325 108 415 q 163 153 108 219 q 315 86 217 86 z "},"1":{"ha":719,"x_min":75,"x_max":644,"o":"m 75 0 l 79 22 l 242 78 l 344 658 l 201 714 l 206 736 l 644 736 l 640 714 l 478 658 l 375 78 l 518 22 l 514 0 l 75 0 z "},"2":{"ha":719,"x_min":28,"x_max":601,"o":"m 28 0 l 33 33 q 235 212 153 139 q 366 339 317 285 q 437 439 415 393 q 458 536 458 485 q 428 625 458 589 q 332 661 397 661 q 231 627 274 661 q 157 532 189 593 l 115 554 q 239 703 168 656 q 393 750 310 750 q 548 697 494 750 q 601 564 601 644 q 572 444 601 497 q 488 340 543 390 q 356 234 433 290 q 179 106 278 178 l 467 106 l 560 243 l 582 243 l 525 0 l 28 0 z "},"3":{"ha":719,"x_min":-1,"x_max":604,"o":"m 239 -193 q 86 -165 147 -193 q 3 -93 25 -137 q -1 -72 -1 -83 q 5 -49 -1 -60 q 28 -28 11 -39 l 86 15 l 100 15 l 108 -11 q 159 -102 128 -67 q 263 -137 190 -137 q 403 -72 357 -137 q 450 89 450 -6 q 392 228 450 178 q 215 278 335 278 l 208 335 l 211 335 q 339 359 282 335 q 429 429 396 383 q 463 538 463 475 q 432 626 463 590 q 339 661 401 661 q 238 627 281 661 q 164 532 196 593 l 124 554 q 246 703 175 656 q 400 750 317 750 q 550 700 496 750 q 604 572 604 650 q 578 474 604 518 q 507 399 551 431 q 411 349 463 367 q 549 260 506 322 q 592 117 592 197 q 547 -42 592 28 q 422 -153 501 -112 q 239 -193 343 -193 z "},"4":{"ha":719,"x_min":-28,"x_max":638,"o":"m 282 -181 l 331 100 l -28 100 l -19 144 l 522 736 l 575 736 l 481 190 l 638 190 l 621 100 l 464 100 l 415 -181 l 282 -181 m 99 190 l 347 190 l 407 533 l 99 190 z "},"5":{"ha":719,"x_min":19,"x_max":633,"o":"m 221 -194 q 69 -167 118 -194 q 21 -104 19 -139 q 51 -60 21 -81 l 111 -18 l 126 -18 l 139 -50 q 181 -106 150 -85 q 267 -126 211 -126 q 374 -99 325 -126 q 451 -21 422 -72 q 481 106 481 31 q 424 244 481 192 q 246 296 368 296 q 118 283 193 296 l 199 736 l 633 736 l 611 619 l 239 619 l 203 414 q 296 418 250 418 q 523 346 450 418 q 596 161 596 274 q 569 30 596 93 q 492 -84 542 -33 q 373 -165 442 -135 q 221 -194 304 -194 z "},"6":{"ha":719,"x_min":46,"x_max":674,"o":"m 301 -14 q 110 64 174 -14 q 46 264 46 142 q 117 537 46 404 q 327 774 188 669 q 674 931 467 878 l 665 892 q 437 774 531 847 q 286 608 343 700 q 204 415 229 517 q 305 508 247 474 q 431 542 363 542 q 583 480 533 542 q 632 321 632 418 q 584 144 632 219 q 460 27 536 68 q 301 -14 385 -14 m 183 242 q 219 92 183 139 q 314 46 256 46 q 408 76 365 46 q 476 163 450 107 q 501 293 501 219 q 382 451 501 451 q 276 422 328 451 q 190 342 225 393 q 183 242 183 292 z "},"7":{"ha":719,"x_min":46,"x_max":682,"o":"m 46 -181 q 117 -57 83 -115 q 188 65 150 1 q 274 203 225 128 q 390 378 322 279 q 550 608 457 476 l 85 608 l 110 736 l 682 736 l 676 701 q 551 517 613 608 q 428 323 489 425 q 310 98 368 221 q 197 -181 251 -25 l 46 -181 z "},"8":{"ha":719,"x_min":26,"x_max":667,"o":"m 290 -14 q 156 10 217 -14 q 61 80 96 35 q 26 186 26 125 q 89 336 26 271 q 267 463 151 401 q 166 563 194 517 q 138 671 138 610 q 178 801 138 742 q 285 895 218 860 q 435 931 353 931 q 556 903 503 931 q 638 831 608 876 q 667 728 667 785 q 616 607 667 663 q 450 493 565 551 q 577 369 546 426 q 608 246 608 311 q 566 117 608 176 q 452 22 524 58 q 290 -14 381 -14 m 268 721 q 294 625 268 672 q 403 525 319 578 q 516 615 483 571 q 549 725 549 658 q 513 834 549 797 q 414 871 478 871 q 305 827 342 871 q 268 721 268 783 m 149 204 q 191 86 149 128 q 310 44 233 44 q 438 91 392 44 q 483 213 483 138 q 465 296 483 261 q 407 363 446 331 q 308 433 368 394 q 209 356 243 390 q 162 287 175 322 q 149 204 149 251 z "},"9":{"ha":719,"x_min":8,"x_max":636,"o":"m 8 -194 l 17 -156 q 245 -37 151 -111 q 396 128 339 36 q 478 322 453 221 q 378 229 436 264 q 250 194 319 194 q 99 256 149 194 q 49 415 49 318 q 97 592 49 517 q 221 709 144 668 q 379 750 297 750 q 572 672 508 750 q 636 472 636 594 q 565 199 636 332 q 353 -37 493 67 q 8 -194 214 -142 m 181 443 q 300 285 181 285 q 406 314 354 285 q 492 394 457 343 q 499 494 499 444 q 463 644 499 597 q 368 690 426 690 q 274 660 317 690 q 206 573 231 629 q 181 443 181 517 z "}," ":{"ha":333,"x_min":0,"x_max":0,"o":""}," ":{"ha":694,"x_min":0,"x_max":0,"o":""}," ":{"ha":347,"x_min":0,"x_max":0,"o":""}," ":{"ha":174,"x_min":0,"x_max":0,"o":""}," ":{"ha":35,"x_min":0,"x_max":0,"o":""},"​":{"ha":0,"x_min":0,"x_max":0,"o":""},"A":{"ha":994,"x_min":-28,"x_max":886,"o":"m -28 0 l -24 22 l 58 67 l 547 924 l 622 924 l 803 72 l 886 22 l 881 0 l 531 0 l 533 22 l 658 71 l 610 322 l 285 322 l 142 67 l 253 22 l 249 0 l -28 0 m 325 393 l 594 393 l 525 749 l 325 393 z "},"B":{"ha":882,"x_min":4,"x_max":800,"o":"m 4 0 l 8 22 l 125 78 l 258 839 l 161 894 l 165 917 l 490 917 q 712 869 629 917 q 794 724 794 821 q 738 583 794 649 q 579 492 682 517 q 744 419 689 474 q 800 279 800 364 q 756 147 800 211 q 622 42 711 83 q 400 0 533 0 l 4 0 m 472 846 l 399 846 l 339 507 l 417 507 q 588 562 531 507 q 644 697 644 617 q 605 808 644 769 q 472 846 565 846 m 438 439 l 328 439 l 263 71 l 401 71 q 587 129 526 71 q 647 279 647 188 q 597 400 647 361 q 438 439 547 439 z "},"C":{"ha":928,"x_min":78,"x_max":871,"o":"m 447 -14 q 248 34 331 -14 q 122 166 165 82 q 78 360 78 250 q 121 580 78 476 q 239 763 164 683 q 412 886 314 842 q 619 931 510 931 q 754 915 700 931 q 871 864 808 900 l 838 617 l 814 617 l 749 801 q 684 850 717 833 q 603 867 651 867 q 444 828 514 867 q 326 723 375 790 q 253 569 278 656 q 228 385 228 482 q 299 140 228 228 q 483 51 369 51 q 586 72 539 51 q 672 118 633 93 l 794 281 l 818 281 l 764 56 q 628 5 700 24 q 447 -14 556 -14 z "},"D":{"ha":1022,"x_min":4,"x_max":956,"o":"m 4 0 l 8 22 l 124 78 l 257 839 l 161 894 l 165 917 l 489 917 q 756 869 653 917 q 907 735 858 821 q 956 540 956 650 q 921 357 956 451 q 817 181 886 263 q 642 50 747 100 q 393 0 536 0 l 4 0 m 467 846 l 399 846 l 261 69 l 404 69 q 623 126 533 69 q 759 287 713 183 q 806 529 806 390 q 723 760 806 675 q 467 846 640 846 z "},"E":{"ha":864,"x_min":4,"x_max":819,"o":"m 4 0 l 8 22 l 125 78 l 258 839 l 161 894 l 165 917 l 819 917 l 776 678 l 754 678 l 700 846 l 400 846 l 340 507 l 553 507 l 643 626 l 665 626 l 611 322 l 589 322 l 542 439 l 328 439 l 263 71 l 617 71 l 736 263 l 758 263 l 711 0 l 4 0 z "},"F":{"ha":836,"x_min":4,"x_max":813,"o":"m 4 0 l 8 22 l 125 78 l 258 839 l 161 894 l 165 917 l 813 917 l 771 678 l 749 678 l 693 846 l 400 846 l 340 507 l 542 507 l 631 626 l 653 626 l 599 322 l 576 322 l 531 439 l 328 439 l 264 78 l 390 22 l 386 0 l 4 0 z "},"G":{"ha":1014,"x_min":78,"x_max":932,"o":"m 440 -14 q 245 34 326 -14 q 121 166 164 82 q 78 360 78 250 q 123 581 78 478 q 246 764 168 685 q 424 888 324 843 q 633 932 524 932 q 782 917 722 932 q 910 864 842 901 l 875 631 l 853 631 l 789 801 q 714 851 753 836 q 619 867 675 867 q 453 827 526 867 q 330 720 381 788 q 253 565 279 653 q 226 382 226 478 q 301 147 226 231 q 492 64 375 64 q 566 69 528 64 q 644 88 604 75 l 686 326 l 579 385 l 585 407 l 932 407 l 928 385 l 825 322 l 788 103 q 682 41 742 67 q 560 1 622 15 q 440 -14 497 -14 z "},"H":{"ha":1074,"x_min":4,"x_max":1069,"o":"m 4 0 l 8 22 l 117 78 l 251 839 l 150 894 l 154 917 l 506 917 l 501 894 l 390 839 l 332 508 l 754 508 l 813 839 l 715 894 l 719 917 l 1069 917 l 1065 894 l 953 839 l 818 78 l 924 22 l 919 0 l 568 0 l 572 22 l 678 78 l 742 438 l 319 438 l 256 78 l 360 22 l 356 0 l 4 0 z "},"I":{"ha":513,"x_min":4,"x_max":508,"o":"m 4 0 l 8 22 l 117 78 l 251 839 l 150 894 l 154 917 l 508 917 l 504 894 l 390 839 l 256 78 l 361 22 l 357 0 l 4 0 z "},"J":{"ha":526,"x_min":-96,"x_max":529,"o":"m -50 -240 q -83 -226 -71 -240 q -85 -179 -96 -212 l -65 -118 l -57 -118 q -23 -128 -36 -125 q 8 -131 -10 -131 q 60 -117 36 -131 q 101 -58 83 -103 q 136 79 119 -14 l 271 839 l 172 894 l 176 917 l 529 917 l 525 894 l 411 839 l 321 331 q 244 56 294 176 q 124 -131 193 -64 q 49 -200 78 -176 q -1 -232 21 -224 q -50 -240 -22 -240 z "},"K":{"ha":981,"x_min":4,"x_max":963,"o":"m 4 0 l 8 22 l 125 78 l 258 839 l 161 894 l 165 917 l 519 917 l 514 894 l 399 839 l 264 78 l 363 22 l 357 0 l 4 0 m 661 0 l 335 468 l 761 847 l 674 894 l 678 917 l 963 917 l 957 894 l 872 863 l 469 507 l 786 72 l 869 22 l 865 0 l 661 0 z "},"L":{"ha":824,"x_min":4,"x_max":728,"o":"m 4 0 l 8 22 l 125 78 l 258 839 l 161 894 l 165 917 l 532 917 l 528 894 l 399 839 l 264 71 l 568 71 l 706 314 l 728 314 l 671 0 l 4 0 z "},"M":{"ha":1285,"x_min":4,"x_max":1274,"o":"m 4 0 l 8 22 l 124 78 l 288 838 l 172 894 l 178 917 l 446 917 l 621 196 l 1019 917 l 1274 917 l 1268 894 l 1153 840 l 1064 78 l 1149 22 l 1144 0 l 814 0 l 818 22 l 925 76 l 1006 744 l 588 -7 l 526 -7 l 346 750 l 207 76 l 306 22 l 301 0 l 4 0 z "},"N":{"ha":1072,"x_min":6,"x_max":1074,"o":"m 6 0 l 10 22 l 128 78 l 261 836 l 164 894 l 168 917 l 375 917 l 760 243 l 865 840 l 733 894 l 739 917 l 1074 917 l 1069 894 l 953 839 l 804 -7 l 742 -7 l 328 713 l 215 78 l 346 22 l 340 0 l 6 0 z "},"O":{"ha":1067,"x_min":78,"x_max":989,"o":"m 463 -14 q 259 37 346 -14 q 125 178 172 88 q 78 389 78 269 q 117 593 78 496 q 228 767 157 690 q 394 888 299 843 q 603 932 490 932 q 808 881 721 932 q 942 738 894 829 q 989 528 989 647 q 950 326 989 424 q 841 152 911 229 q 674 31 771 75 q 463 -14 578 -14 m 501 54 q 639 92 576 54 q 747 194 701 129 q 817 344 792 258 q 842 525 842 429 q 808 703 842 626 q 714 824 775 781 q 569 867 653 867 q 432 830 494 867 q 324 728 369 793 q 253 578 278 664 q 228 394 228 492 q 262 217 228 294 q 358 97 296 140 q 501 54 419 54 z "},"P":{"ha":868,"x_min":4,"x_max":833,"o":"m 4 0 l 8 22 l 125 78 l 258 839 l 161 894 l 165 917 l 489 917 q 741 862 649 917 q 833 692 833 807 q 785 552 833 617 q 644 448 736 488 q 421 408 553 408 l 322 408 l 264 78 l 378 22 l 374 0 l 4 0 m 399 846 l 333 476 l 450 476 q 626 535 569 476 q 682 683 682 593 q 627 807 682 768 q 472 846 572 846 l 399 846 z "},"Q":{"ha":1067,"x_min":78,"x_max":1015,"o":"m 839 -207 q 730 -192 788 -207 q 604 -137 672 -178 q 453 -14 536 -96 q 253 40 338 -11 q 124 181 169 92 q 78 389 78 271 q 117 593 78 496 q 228 767 157 690 q 394 888 299 843 q 603 932 490 932 q 808 881 721 932 q 942 738 894 829 q 989 528 989 647 q 944 310 989 414 q 817 127 899 206 q 625 13 735 49 q 759 -93 706 -57 q 856 -142 813 -129 q 946 -156 899 -156 q 1015 -144 986 -156 l 1010 -169 q 933 -196 978 -185 q 839 -207 889 -207 m 501 54 q 639 92 576 54 q 747 194 701 129 q 817 344 792 258 q 842 525 842 429 q 808 703 842 626 q 714 824 775 781 q 569 867 653 867 q 432 830 494 867 q 324 728 369 793 q 253 578 278 664 q 228 394 228 492 q 262 217 228 294 q 358 97 296 140 q 501 54 419 54 z "},"R":{"ha":892,"x_min":4,"x_max":829,"o":"m 4 0 l 8 22 l 124 78 l 257 839 l 161 894 l 165 917 l 472 917 q 704 861 619 917 q 789 707 789 806 q 728 553 789 618 q 571 456 667 488 l 749 74 l 829 22 l 825 0 l 622 0 l 443 425 l 325 425 l 264 79 l 356 22 l 351 0 l 4 0 m 457 846 l 399 846 l 336 493 l 440 493 q 547 520 503 493 q 616 592 592 547 q 640 688 640 636 q 591 804 640 763 q 457 846 542 846 z "},"S":{"ha":700,"x_min":7,"x_max":657,"o":"m 258 -14 q 120 3 176 -14 q 7 51 64 19 l 33 282 l 57 282 l 115 114 q 265 47 183 47 q 410 101 358 47 q 461 242 461 156 q 445 310 461 281 q 391 368 429 339 q 288 435 353 397 q 174 529 210 479 q 138 650 138 579 q 181 792 138 729 q 296 893 225 856 q 446 931 367 931 q 559 915 508 931 q 657 871 610 899 l 632 649 l 610 649 l 553 811 q 500 850 531 833 q 422 867 469 867 q 311 818 358 867 q 264 690 264 769 q 294 604 264 642 q 401 524 325 567 q 515 448 472 483 q 576 373 557 413 q 594 281 594 333 q 548 128 594 194 q 424 24 501 63 q 258 -14 347 -14 z "},"T":{"ha":893,"x_min":97,"x_max":926,"o":"m 171 0 l 176 22 l 318 78 l 456 846 l 250 846 l 119 629 l 97 629 l 146 917 l 926 917 l 875 629 l 853 629 l 799 846 l 596 846 l 458 78 l 582 22 l 578 0 l 171 0 z "},"U":{"ha":1079,"x_min":163,"x_max":1079,"o":"m 476 -14 q 252 51 338 -14 q 167 264 167 117 q 169 313 167 288 q 176 367 172 339 l 258 839 l 163 894 l 167 917 l 521 917 l 515 894 l 400 839 l 319 381 q 310 328 314 354 q 307 279 307 301 q 364 117 307 167 q 519 68 421 68 q 631 97 578 68 q 724 183 685 125 q 781 332 764 242 l 869 842 l 750 894 l 756 917 l 1079 917 l 1075 894 l 960 840 l 878 367 q 799 144 854 228 q 660 24 743 61 q 476 -14 578 -14 z "},"V":{"ha":968,"x_min":117,"x_max":1018,"o":"m 385 -7 l 200 846 l 117 894 l 122 917 l 469 917 l 465 894 l 344 847 l 483 194 l 492 194 l 846 847 l 738 894 l 742 917 l 1018 917 l 1013 894 l 931 850 l 456 -7 l 385 -7 z "},"W":{"ha":1317,"x_min":117,"x_max":1389,"o":"m 306 -7 l 208 842 l 117 894 l 122 917 l 475 917 l 472 894 l 347 843 l 410 239 l 419 239 l 757 924 l 819 924 l 935 240 l 942 240 l 1206 846 l 1094 894 l 1099 917 l 1389 917 l 1385 894 l 1292 849 l 904 -7 l 843 -7 l 722 672 l 714 672 l 368 -7 l 306 -7 z "},"X":{"ha":979,"x_min":-40,"x_max":1004,"o":"m -40 0 l -35 22 l 69 72 l 428 461 l 219 847 l 143 894 l 147 917 l 499 917 l 494 894 l 368 847 l 368 840 l 535 539 l 807 840 l 807 846 l 711 894 l 715 917 l 1004 917 l 1000 894 l 913 849 l 569 476 l 793 72 l 875 22 l 871 0 l 514 0 l 517 22 l 635 69 l 636 75 l 463 397 l 171 76 l 169 71 l 272 22 l 268 0 l -40 0 z "},"Y":{"ha":946,"x_min":122,"x_max":1004,"o":"m 222 0 l 226 22 l 354 78 l 415 426 l 196 847 l 122 894 l 128 917 l 464 917 l 458 894 l 346 849 l 344 843 l 526 497 l 806 842 l 807 847 l 710 894 l 715 917 l 1004 917 l 1000 894 l 911 851 l 554 428 l 493 78 l 601 22 l 597 0 l 222 0 z "},"Z":{"ha":856,"x_min":38,"x_max":817,"o":"m 38 0 l 46 49 l 635 846 l 311 846 l 188 654 l 165 654 l 213 917 l 817 917 l 808 868 l 218 74 l 572 74 l 697 276 l 719 276 l 671 0 l 38 0 z "},"À":{"ha":994,"x_min":-28,"x_max":886,"o":"m -28 0 l -24 22 l 58 67 l 547 924 l 622 924 l 803 72 l 886 22 l 881 0 l 531 0 l 533 22 l 658 71 l 610 322 l 285 322 l 142 67 l 253 22 l 249 0 l -28 0 m 325 393 l 594 393 l 525 749 l 325 393 m 586 986 l 401 1110 q 371 1151 374 1128 q 372 1197 368 1175 l 479 1197 l 603 986 l 586 986 z "},"Á":{"ha":994,"x_min":-28,"x_max":886,"o":"m -28 0 l -24 22 l 58 67 l 547 924 l 622 924 l 803 72 l 886 22 l 881 0 l 531 0 l 533 22 l 658 71 l 610 322 l 285 322 l 142 67 l 253 22 l 249 0 l -28 0 m 325 393 l 594 393 l 525 749 l 325 393 m 586 986 l 729 1197 l 850 1197 q 835 1155 846 1176 q 790 1110 824 1133 l 604 986 l 586 986 z "},"Â":{"ha":994,"x_min":-28,"x_max":886,"o":"m -28 0 l -24 22 l 58 67 l 547 924 l 622 924 l 803 72 l 886 22 l 881 0 l 531 0 l 533 22 l 658 71 l 610 322 l 285 322 l 142 67 l 253 22 l 249 0 l -28 0 m 325 393 l 594 393 l 525 749 l 325 393 m 390 986 l 608 1197 l 654 1197 l 788 986 l 769 986 l 615 1096 l 408 986 l 390 986 z "},"Ã":{"ha":994,"x_min":-28,"x_max":886,"o":"m -28 0 l -24 22 l 58 67 l 547 924 l 622 924 l 803 72 l 886 22 l 881 0 l 531 0 l 533 22 l 658 71 l 610 322 l 285 322 l 142 67 l 253 22 l 249 0 l -28 0 m 325 393 l 594 393 l 525 749 l 325 393 m 392 1007 q 451 1115 426 1081 q 499 1159 476 1149 q 544 1169 521 1169 q 608 1149 581 1169 q 660 1109 635 1129 q 713 1089 685 1089 q 756 1101 735 1089 q 808 1169 776 1114 l 832 1169 q 772 1061 797 1096 q 726 1017 747 1026 q 679 1007 704 1007 q 617 1027 643 1007 q 565 1067 590 1047 q 513 1088 540 1088 q 469 1075 490 1088 q 415 1007 447 1063 l 392 1007 z "},"Ä":{"ha":994,"x_min":-28,"x_max":886,"o":"m -28 0 l -24 22 l 58 67 l 547 924 l 622 924 l 803 72 l 886 22 l 881 0 l 531 0 l 533 22 l 658 71 l 610 322 l 285 322 l 142 67 l 253 22 l 249 0 l -28 0 m 325 393 l 594 393 l 525 749 l 325 393 m 492 1026 q 445 1045 464 1026 q 426 1092 426 1064 q 445 1138 426 1119 q 492 1157 464 1157 q 539 1138 519 1157 q 558 1092 558 1119 q 539 1045 558 1064 q 492 1026 519 1026 m 736 1026 q 689 1045 708 1026 q 669 1092 669 1064 q 689 1138 669 1119 q 736 1157 708 1157 q 783 1138 764 1157 q 801 1092 801 1119 q 783 1045 801 1064 q 736 1026 764 1026 z "},"Ā":{"ha":994,"x_min":-28,"x_max":886,"o":"m -28 0 l -24 22 l 58 67 l 547 924 l 622 924 l 803 72 l 886 22 l 881 0 l 531 0 l 533 22 l 658 71 l 610 322 l 285 322 l 142 67 l 253 22 l 249 0 l -28 0 m 325 393 l 594 393 l 525 749 l 325 393 m 424 1061 l 436 1128 l 800 1128 l 788 1061 l 424 1061 z "},"Ă":{"ha":994,"x_min":-28,"x_max":886,"o":"m -28 0 l -24 22 l 58 67 l 547 924 l 622 924 l 803 72 l 886 22 l 881 0 l 531 0 l 533 22 l 658 71 l 610 322 l 285 322 l 142 67 l 253 22 l 249 0 l -28 0 m 325 393 l 594 393 l 525 749 l 325 393 m 596 986 q 469 1038 504 986 q 429 1197 435 1090 l 447 1197 q 502 1094 463 1117 q 603 1071 542 1071 q 681 1079 644 1071 q 749 1115 717 1088 q 811 1197 781 1142 l 829 1197 q 596 986 761 986 z "},"Å":{"ha":994,"x_min":-28,"x_max":886,"o":"m -28 0 l -24 22 l 58 67 l 547 924 l 622 924 l 803 72 l 886 22 l 881 0 l 531 0 l 533 22 l 658 71 l 610 322 l 285 322 l 142 67 l 253 22 l 249 0 l -28 0 m 325 393 l 594 393 l 525 749 l 325 393 m 597 986 q 524 1013 547 986 q 501 1082 501 1040 q 538 1177 501 1136 q 635 1218 575 1218 q 707 1192 683 1218 q 731 1122 731 1165 q 694 1027 731 1068 q 597 986 658 986 m 604 1017 q 653 1047 636 1017 q 671 1121 671 1078 q 629 1189 671 1189 q 578 1161 597 1189 q 560 1085 560 1133 q 604 1017 560 1017 z "},"Ǻ":{"ha":994,"x_min":-28,"x_max":897,"o":"m -28 0 l -24 22 l 58 67 l 547 924 l 622 924 l 803 72 l 886 22 l 881 0 l 531 0 l 533 22 l 658 71 l 610 322 l 285 322 l 142 67 l 253 22 l 249 0 l -28 0 m 325 393 l 594 393 l 525 749 l 325 393 m 597 986 q 524 1013 547 986 q 501 1082 501 1040 q 538 1177 501 1136 q 635 1218 575 1218 q 707 1192 683 1218 q 731 1122 731 1165 q 694 1027 731 1068 q 597 986 658 986 m 604 1017 q 653 1047 636 1017 q 671 1121 671 1078 q 629 1189 671 1189 q 578 1161 597 1189 q 560 1085 560 1133 q 604 1017 560 1017 m 633 1257 l 776 1468 l 897 1468 q 882 1426 893 1447 q 838 1381 871 1404 l 651 1257 l 633 1257 z "},"Ạ":{"ha":994,"x_min":-28,"x_max":886,"o":"m -28 0 l -24 22 l 58 67 l 547 924 l 622 924 l 803 72 l 886 22 l 881 0 l 531 0 l 533 22 l 658 71 l 610 322 l 285 322 l 142 67 l 253 22 l 249 0 l -28 0 m 325 393 l 594 393 l 525 749 l 325 393 z "},"Ą":{"ha":994,"x_min":-28,"x_max":886,"o":"m -28 0 l -24 22 l 58 65 l 547 924 l 622 924 l 803 74 l 886 22 l 881 0 l 736 0 q 674 -99 696 -51 q 653 -192 653 -147 q 729 -269 653 -269 q 762 -264 744 -269 q 797 -247 779 -258 l 801 -247 l 797 -267 q 744 -315 775 -297 q 675 -333 714 -333 q 590 -303 621 -333 q 560 -221 560 -274 q 596 -113 560 -167 q 693 0 632 -60 l 531 0 l 533 22 l 657 71 l 606 322 l 285 322 l 142 67 l 253 22 l 249 0 l -28 0 m 325 393 l 590 393 l 519 739 l 325 393 z "},"Ȁ":{"ha":994,"x_min":-28,"x_max":886,"o":"m -28 0 l -24 22 l 58 67 l 547 924 l 622 924 l 803 72 l 886 22 l 881 0 l 531 0 l 533 22 l 658 71 l 610 322 l 285 322 l 142 67 l 253 22 l 249 0 l -28 0 m 325 393 l 594 393 l 525 749 l 325 393 m 656 986 l 519 1118 q 493 1158 497 1140 q 493 1197 489 1175 l 582 1197 l 674 986 l 656 986 m 501 986 l 336 1118 q 308 1158 311 1138 q 308 1197 304 1178 l 397 1197 l 519 986 l 501 986 z "},"Ȃ":{"ha":994,"x_min":-28,"x_max":886,"o":"m -28 0 l -24 22 l 58 67 l 547 924 l 622 924 l 803 72 l 886 22 l 881 0 l 531 0 l 533 22 l 658 71 l 610 322 l 285 322 l 142 67 l 253 22 l 249 0 l -28 0 m 325 393 l 594 393 l 525 749 l 325 393 m 394 986 q 628 1197 463 1197 q 754 1145 719 1197 q 794 986 789 1093 l 776 986 q 722 1090 761 1067 q 621 1113 682 1113 q 543 1104 579 1113 q 475 1069 507 1096 q 413 986 443 1042 l 394 986 z "},"Ắ":{"ha":994,"x_min":-28,"x_max":886,"o":"m -28 0 l -24 22 l 58 67 l 547 924 l 622 924 l 803 72 l 886 22 l 881 0 l 531 0 l 533 22 l 658 71 l 610 322 l 285 322 l 142 67 l 253 22 l 249 0 l -28 0 m 325 393 l 594 393 l 525 749 l 325 393 z "},"Ặ":{"ha":994,"x_min":-28,"x_max":886,"o":"m -28 0 l -24 22 l 58 67 l 547 924 l 622 924 l 803 72 l 886 22 l 881 0 l 531 0 l 533 22 l 658 71 l 610 322 l 285 322 l 142 67 l 253 22 l 249 0 l -28 0 m 325 393 l 594 393 l 525 749 l 325 393 m 596 986 q 469 1038 504 986 q 429 1197 435 1090 l 447 1197 q 502 1094 463 1117 q 603 1071 542 1071 q 681 1079 644 1071 q 749 1115 717 1088 q 811 1197 781 1142 l 829 1197 q 596 986 761 986 z "},"Ằ":{"ha":994,"x_min":-28,"x_max":886,"o":"m -28 0 l -24 22 l 58 67 l 547 924 l 622 924 l 803 72 l 886 22 l 881 0 l 531 0 l 533 22 l 658 71 l 610 322 l 285 322 l 142 67 l 253 22 l 249 0 l -28 0 m 325 393 l 594 393 l 525 749 l 325 393 z "},"Ẳ":{"ha":994,"x_min":-28,"x_max":886,"o":"m -28 0 l -24 22 l 58 67 l 547 924 l 622 924 l 803 72 l 886 22 l 881 0 l 531 0 l 533 22 l 658 71 l 610 322 l 285 322 l 142 67 l 253 22 l 249 0 l -28 0 m 325 393 l 594 393 l 525 749 l 325 393 z "},"Ẵ":{"ha":994,"x_min":-28,"x_max":886,"o":"m -28 0 l -24 22 l 58 67 l 547 924 l 622 924 l 803 72 l 886 22 l 881 0 l 531 0 l 533 22 l 658 71 l 610 322 l 285 322 l 142 67 l 253 22 l 249 0 l -28 0 m 325 393 l 594 393 l 525 749 l 325 393 z "},"Ấ":{"ha":994,"x_min":-28,"x_max":971,"o":"m -28 0 l -24 22 l 58 67 l 547 924 l 622 924 l 803 72 l 886 22 l 881 0 l 531 0 l 533 22 l 658 71 l 610 322 l 285 322 l 142 67 l 253 22 l 249 0 l -28 0 m 325 393 l 594 393 l 525 749 l 325 393 m 765 1118 l 856 1317 l 971 1317 q 956 1275 967 1296 q 914 1231 944 1254 l 781 1118 l 765 1118 m 390 986 l 608 1197 l 654 1197 l 788 986 l 769 986 l 615 1096 l 408 986 l 390 986 z "},"Ậ":{"ha":994,"x_min":-28,"x_max":886,"o":"m -28 0 l -24 22 l 58 67 l 547 924 l 622 924 l 803 72 l 886 22 l 881 0 l 531 0 l 533 22 l 658 71 l 610 322 l 285 322 l 142 67 l 253 22 l 249 0 l -28 0 m 325 393 l 594 393 l 525 749 l 325 393 m 390 986 l 608 1197 l 654 1197 l 788 986 l 769 986 l 615 1096 l 408 986 l 390 986 z "},"Ầ":{"ha":994,"x_min":-28,"x_max":886,"o":"m -28 0 l -24 22 l 58 67 l 547 924 l 622 924 l 803 72 l 886 22 l 881 0 l 531 0 l 533 22 l 658 71 l 610 322 l 285 322 l 142 67 l 253 22 l 249 0 l -28 0 m 325 393 l 594 393 l 525 749 l 325 393 m 436 1118 l 300 1229 q 268 1273 274 1251 q 267 1317 263 1294 l 369 1317 l 454 1118 l 436 1118 m 390 986 l 608 1197 l 654 1197 l 788 986 l 769 986 l 615 1096 l 408 986 l 390 986 z "},"Ẩ":{"ha":994,"x_min":-28,"x_max":886,"o":"m -28 0 l -24 22 l 58 67 l 547 924 l 622 924 l 803 72 l 886 22 l 881 0 l 531 0 l 533 22 l 658 71 l 610 322 l 285 322 l 142 67 l 253 22 l 249 0 l -28 0 m 325 393 l 594 393 l 525 749 l 325 393 z "},"Ẫ":{"ha":994,"x_min":-28,"x_max":886,"o":"m -28 0 l -24 22 l 58 67 l 547 924 l 622 924 l 803 72 l 886 22 l 881 0 l 531 0 l 533 22 l 658 71 l 610 322 l 285 322 l 142 67 l 253 22 l 249 0 l -28 0 m 325 393 l 594 393 l 525 749 l 325 393 z "},"Ả":{"ha":994,"x_min":-28,"x_max":886,"o":"m -28 0 l -24 22 l 58 67 l 547 924 l 622 924 l 803 72 l 886 22 l 881 0 l 531 0 l 533 22 l 658 71 l 610 322 l 285 322 l 142 67 l 253 22 l 249 0 l -28 0 m 325 393 l 594 393 l 525 749 l 325 393 m 543 974 l 536 983 l 536 985 q 614 1021 589 1000 q 639 1076 639 1042 q 619 1116 639 1100 q 553 1142 600 1132 l 579 1214 q 680 1176 651 1207 q 708 1110 708 1144 q 543 974 708 1007 z "},"Æ":{"ha":1322,"x_min":-28,"x_max":1279,"o":"m -28 0 l -24 22 l 64 67 l 711 917 l 1279 917 l 1236 678 l 1214 678 l 1158 846 l 860 846 l 800 508 l 1013 508 l 1103 628 l 1125 628 l 1071 321 l 1049 321 l 1001 438 l 788 438 l 722 71 l 1076 71 l 1194 263 l 1217 263 l 1171 0 l 464 0 l 468 22 l 583 78 l 628 328 l 351 328 l 154 64 l 253 22 l 249 0 l -28 0 m 404 399 l 640 399 l 713 810 l 404 399 z "},"Ǽ":{"ha":1322,"x_min":-28,"x_max":1279,"o":"m -28 0 l -24 22 l 64 67 l 711 917 l 1279 917 l 1236 678 l 1214 678 l 1158 846 l 860 846 l 800 508 l 1013 508 l 1103 628 l 1125 628 l 1071 321 l 1049 321 l 1001 438 l 788 438 l 722 71 l 1076 71 l 1194 263 l 1217 263 l 1171 0 l 464 0 l 468 22 l 583 78 l 628 328 l 351 328 l 154 64 l 253 22 l 249 0 l -28 0 m 404 399 l 640 399 l 713 810 l 404 399 m 818 986 l 961 1197 l 1082 1197 q 1067 1155 1078 1176 q 1022 1110 1056 1133 l 836 986 l 818 986 z "},"Ć":{"ha":928,"x_min":78,"x_max":883,"o":"m 447 -14 q 248 34 331 -14 q 122 166 165 82 q 78 360 78 250 q 121 580 78 476 q 239 763 164 683 q 412 886 314 842 q 619 931 510 931 q 754 915 700 931 q 871 864 808 900 l 838 617 l 814 617 l 749 801 q 684 850 717 833 q 603 867 651 867 q 444 828 514 867 q 326 723 375 790 q 253 569 278 656 q 228 385 228 482 q 299 140 228 228 q 483 51 369 51 q 586 72 539 51 q 672 118 633 93 l 794 281 l 818 281 l 764 56 q 628 5 700 24 q 447 -14 556 -14 m 619 986 l 763 1197 l 883 1197 q 868 1155 879 1176 q 824 1110 857 1133 l 638 986 l 619 986 z "},"Ĉ":{"ha":928,"x_min":78,"x_max":871,"o":"m 447 -14 q 248 34 331 -14 q 122 166 165 82 q 78 360 78 250 q 121 580 78 476 q 239 763 164 683 q 412 886 314 842 q 619 931 510 931 q 754 915 700 931 q 871 864 808 900 l 838 617 l 814 617 l 749 801 q 684 850 717 833 q 603 867 651 867 q 444 828 514 867 q 326 723 375 790 q 253 569 278 656 q 228 385 228 482 q 299 140 228 228 q 483 51 369 51 q 586 72 539 51 q 672 118 633 93 l 794 281 l 818 281 l 764 56 q 628 5 700 24 q 447 -14 556 -14 m 424 986 l 642 1197 l 688 1197 l 821 986 l 803 986 l 649 1096 l 442 986 l 424 986 z "},"Č":{"ha":928,"x_min":78,"x_max":871,"o":"m 447 -14 q 248 34 331 -14 q 122 166 165 82 q 78 360 78 250 q 121 580 78 476 q 239 763 164 683 q 412 886 314 842 q 619 931 510 931 q 754 915 700 931 q 871 864 808 900 l 838 617 l 814 617 l 749 801 q 684 850 717 833 q 603 867 651 867 q 444 828 514 867 q 326 723 375 790 q 253 569 278 656 q 228 385 228 482 q 299 140 228 228 q 483 51 369 51 q 586 72 539 51 q 672 118 633 93 l 794 281 l 818 281 l 764 56 q 628 5 700 24 q 447 -14 556 -14 m 606 986 l 472 1197 l 490 1197 l 643 1088 l 851 1197 l 869 1197 l 651 986 l 606 986 z "},"Ċ":{"ha":928,"x_min":78,"x_max":871,"o":"m 447 -14 q 248 34 331 -14 q 122 166 165 82 q 78 360 78 250 q 121 580 78 476 q 239 763 164 683 q 412 886 314 842 q 619 931 510 931 q 754 915 700 931 q 871 864 808 900 l 838 617 l 814 617 l 749 801 q 684 850 717 833 q 603 867 651 867 q 444 828 514 867 q 326 723 375 790 q 253 569 278 656 q 228 385 228 482 q 299 140 228 228 q 483 51 369 51 q 586 72 539 51 q 672 118 633 93 l 794 281 l 818 281 l 764 56 q 628 5 700 24 q 447 -14 556 -14 m 646 1007 q 586 1031 611 1007 q 561 1092 561 1056 q 586 1151 561 1126 q 646 1176 611 1176 q 706 1151 682 1176 q 731 1092 731 1126 q 706 1031 731 1056 q 646 1007 682 1007 z "},"Ç":{"ha":928,"x_min":78,"x_max":871,"o":"m 400 -333 q 293 -294 325 -333 l 297 -276 l 301 -276 q 338 -290 318 -285 q 383 -294 357 -294 q 469 -229 469 -294 q 443 -176 469 -197 q 350 -135 417 -154 l 426 -14 q 238 40 315 -8 q 119 172 160 89 q 78 360 78 254 q 121 580 78 476 q 239 763 164 683 q 412 886 314 842 q 619 931 510 931 q 754 915 700 931 q 871 864 808 900 l 838 617 l 814 617 l 749 801 q 684 850 717 833 q 603 867 651 867 q 444 828 514 867 q 326 723 375 790 q 253 569 278 656 q 228 385 228 482 q 299 140 228 228 q 483 51 369 51 q 586 72 539 51 q 672 118 633 93 l 794 281 l 818 281 l 764 56 q 636 7 704 25 q 469 -14 568 -11 l 432 -74 q 522 -127 494 -96 q 549 -206 549 -158 q 509 -296 549 -258 q 400 -333 469 -333 z "},"Ḉ":{"ha":928,"x_min":78,"x_max":883,"o":"m 619 986 l 763 1197 l 883 1197 q 868 1155 879 1176 q 824 1110 857 1133 l 636 986 l 619 986 m 400 -333 q 293 -294 325 -333 l 297 -276 l 301 -276 q 338 -290 318 -285 q 383 -294 357 -294 q 469 -229 469 -294 q 443 -176 469 -197 q 350 -135 417 -154 l 426 -14 q 238 40 315 -8 q 119 172 160 89 q 78 360 78 254 q 121 580 78 476 q 239 763 164 683 q 412 886 314 842 q 619 931 510 931 q 754 915 700 931 q 871 864 808 900 l 838 617 l 814 617 l 749 801 q 684 850 717 833 q 603 867 651 867 q 444 828 514 867 q 326 723 375 790 q 253 569 278 656 q 228 385 228 482 q 299 140 228 228 q 483 51 369 51 q 586 72 539 51 q 672 118 633 93 l 794 281 l 818 281 l 764 56 q 636 7 704 25 q 469 -14 568 -11 l 432 -74 q 522 -127 494 -96 q 549 -206 549 -158 q 509 -296 549 -258 q 400 -333 469 -333 z "},"Ď":{"ha":1022,"x_min":4,"x_max":956,"o":"m 4 0 l 8 22 l 124 78 l 257 839 l 161 894 l 165 917 l 489 917 q 756 869 653 917 q 907 735 858 821 q 956 540 956 650 q 921 357 956 451 q 817 181 886 263 q 642 50 747 100 q 393 0 536 0 l 4 0 m 467 846 l 399 846 l 261 69 l 404 69 q 623 126 533 69 q 759 287 713 183 q 806 529 806 390 q 723 760 806 675 q 467 846 640 846 m 536 986 l 403 1197 l 421 1197 l 574 1088 l 782 1197 l 800 1197 l 582 986 l 536 986 z "},"Đ":{"ha":1022,"x_min":4,"x_max":956,"o":"m 4 0 l 8 22 l 124 78 l 188 446 l 85 446 l 96 506 l 199 506 l 257 839 l 161 894 l 165 917 l 489 917 q 756 869 653 917 q 907 735 858 821 q 956 540 956 650 q 921 357 956 451 q 817 181 886 263 q 642 50 747 100 q 393 0 536 0 l 4 0 m 546 446 l 328 446 l 261 69 l 404 69 q 623 126 533 69 q 759 287 713 183 q 806 529 806 390 q 723 760 806 675 q 467 846 640 846 l 399 846 l 339 506 l 557 506 l 546 446 z "},"Ḍ":{"ha":1022,"x_min":4,"x_max":956,"o":"m 4 0 l 8 22 l 124 78 l 257 839 l 161 894 l 165 917 l 489 917 q 756 869 653 917 q 907 735 858 821 q 956 540 956 650 q 921 357 956 451 q 817 181 886 263 q 642 50 747 100 q 393 0 536 0 l 4 0 m 467 846 l 399 846 l 261 69 l 404 69 q 623 126 533 69 q 759 287 713 183 q 806 529 806 390 q 723 760 806 675 q 467 846 640 846 z "},"Ḏ":{"ha":1022,"x_min":4,"x_max":956,"o":"m 4 0 l 8 22 l 124 78 l 257 839 l 161 894 l 165 917 l 489 917 q 756 869 653 917 q 907 735 858 821 q 956 540 956 650 q 921 357 956 451 q 817 181 886 263 q 642 50 747 100 q 393 0 536 0 l 4 0 m 467 846 l 399 846 l 261 69 l 404 69 q 623 126 533 69 q 759 287 713 183 q 806 529 806 390 q 723 760 806 675 q 467 846 640 846 z "},"È":{"ha":864,"x_min":4,"x_max":819,"o":"m 4 0 l 8 22 l 125 78 l 258 839 l 161 894 l 165 917 l 819 917 l 776 678 l 754 678 l 700 846 l 400 846 l 340 507 l 553 507 l 643 626 l 665 626 l 611 322 l 589 322 l 542 439 l 328 439 l 263 71 l 617 71 l 736 263 l 758 263 l 711 0 l 4 0 m 542 986 l 357 1110 q 326 1151 329 1128 q 328 1197 324 1175 l 435 1197 l 558 986 l 542 986 z "},"É":{"ha":864,"x_min":4,"x_max":819,"o":"m 4 0 l 8 22 l 125 78 l 258 839 l 161 894 l 165 917 l 819 917 l 776 678 l 754 678 l 700 846 l 400 846 l 340 507 l 553 507 l 643 626 l 665 626 l 611 322 l 589 322 l 542 439 l 328 439 l 263 71 l 617 71 l 736 263 l 758 263 l 711 0 l 4 0 m 542 986 l 685 1197 l 806 1197 q 790 1155 801 1176 q 746 1110 779 1133 l 560 986 l 542 986 z "},"Ê":{"ha":864,"x_min":4,"x_max":819,"o":"m 4 0 l 8 22 l 125 78 l 258 839 l 161 894 l 165 917 l 819 917 l 776 678 l 754 678 l 700 846 l 400 846 l 340 507 l 553 507 l 643 626 l 665 626 l 611 322 l 589 322 l 542 439 l 328 439 l 263 71 l 617 71 l 736 263 l 758 263 l 711 0 l 4 0 m 346 986 l 564 1197 l 610 1197 l 743 986 l 725 986 l 571 1096 l 364 986 l 346 986 z "},"Ě":{"ha":864,"x_min":4,"x_max":819,"o":"m 4 0 l 8 22 l 125 78 l 258 839 l 161 894 l 165 917 l 819 917 l 776 678 l 754 678 l 700 846 l 400 846 l 340 507 l 553 507 l 643 626 l 665 626 l 611 322 l 589 322 l 542 439 l 328 439 l 263 71 l 617 71 l 736 263 l 758 263 l 711 0 l 4 0 m 528 986 l 394 1197 l 413 1197 l 565 1088 l 774 1197 l 792 1197 l 574 986 l 528 986 z "},"Ẽ":{"ha":864,"x_min":4,"x_max":819,"o":"m 4 0 l 8 22 l 125 78 l 258 839 l 161 894 l 165 917 l 819 917 l 776 678 l 754 678 l 700 846 l 400 846 l 340 507 l 553 507 l 643 626 l 665 626 l 611 322 l 589 322 l 542 439 l 328 439 l 263 71 l 617 71 l 736 263 l 758 263 l 711 0 l 4 0 m 349 1007 q 408 1115 383 1081 q 456 1159 433 1149 q 501 1169 478 1169 q 565 1149 538 1169 q 617 1109 592 1129 q 669 1089 642 1089 q 713 1101 692 1089 q 765 1169 733 1114 l 789 1169 q 729 1061 754 1096 q 683 1017 704 1026 q 636 1007 661 1007 q 574 1027 600 1007 q 522 1067 547 1047 q 469 1088 497 1088 q 426 1075 447 1088 q 372 1007 404 1063 l 349 1007 z "},"Ë":{"ha":864,"x_min":4,"x_max":819,"o":"m 4 0 l 8 22 l 125 78 l 258 839 l 161 894 l 165 917 l 819 917 l 776 678 l 754 678 l 700 846 l 400 846 l 340 507 l 553 507 l 643 626 l 665 626 l 611 322 l 589 322 l 542 439 l 328 439 l 263 71 l 617 71 l 736 263 l 758 263 l 711 0 l 4 0 m 447 1026 q 401 1045 419 1026 q 382 1092 382 1064 q 401 1138 382 1119 q 447 1157 419 1157 q 494 1138 475 1157 q 514 1092 514 1119 q 494 1045 514 1064 q 447 1026 475 1026 m 692 1026 q 644 1045 664 1026 q 625 1092 625 1064 q 644 1138 625 1119 q 692 1157 664 1157 q 738 1138 719 1157 q 757 1092 757 1119 q 738 1045 757 1064 q 692 1026 719 1026 z "},"Ē":{"ha":864,"x_min":4,"x_max":819,"o":"m 4 0 l 8 22 l 125 78 l 258 839 l 161 894 l 165 917 l 819 917 l 776 678 l 754 678 l 700 846 l 400 846 l 340 507 l 553 507 l 643 626 l 665 626 l 611 322 l 589 322 l 542 439 l 328 439 l 263 71 l 617 71 l 736 263 l 758 263 l 711 0 l 4 0 m 381 1061 l 393 1128 l 757 1128 l 744 1061 l 381 1061 z "},"Ĕ":{"ha":864,"x_min":4,"x_max":819,"o":"m 4 0 l 8 22 l 125 78 l 258 839 l 161 894 l 165 917 l 819 917 l 776 678 l 754 678 l 700 846 l 400 846 l 340 507 l 553 507 l 643 626 l 665 626 l 611 322 l 589 322 l 542 439 l 328 439 l 263 71 l 617 71 l 736 263 l 758 263 l 711 0 l 4 0 m 551 986 q 425 1038 460 986 q 385 1197 390 1090 l 403 1197 q 458 1094 418 1117 q 558 1071 497 1071 q 636 1079 600 1071 q 704 1115 672 1088 q 767 1197 736 1142 l 785 1197 q 551 986 717 986 z "},"Ė":{"ha":864,"x_min":4,"x_max":819,"o":"m 4 0 l 8 22 l 125 78 l 258 839 l 161 894 l 165 917 l 819 917 l 776 678 l 754 678 l 700 846 l 400 846 l 340 507 l 553 507 l 643 626 l 665 626 l 611 322 l 589 322 l 542 439 l 328 439 l 263 71 l 617 71 l 736 263 l 758 263 l 711 0 l 4 0 m 568 1007 q 508 1031 533 1007 q 483 1092 483 1056 q 508 1151 483 1126 q 568 1176 533 1176 q 628 1151 604 1176 q 653 1092 653 1126 q 628 1031 653 1056 q 568 1007 604 1007 z "},"Ę":{"ha":864,"x_min":4,"x_max":819,"o":"m 4 0 l 8 22 l 125 78 l 258 839 l 161 894 l 165 917 l 819 917 l 776 678 l 754 678 l 700 846 l 400 846 l 340 507 l 553 507 l 643 626 l 665 626 l 611 322 l 589 322 l 542 439 l 328 439 l 263 71 l 617 71 l 736 263 l 758 263 l 711 0 l 610 0 q 549 -99 571 -51 q 526 -192 526 -147 q 547 -250 526 -231 q 604 -269 568 -269 q 637 -264 619 -269 q 671 -247 654 -258 l 676 -247 l 672 -267 q 619 -315 650 -297 q 549 -333 589 -333 q 465 -303 496 -333 q 435 -221 435 -274 q 471 -113 435 -167 q 568 0 507 -60 l 4 0 z "},"Ẹ":{"ha":864,"x_min":4,"x_max":819,"o":"m 4 0 l 8 22 l 125 78 l 258 839 l 161 894 l 165 917 l 819 917 l 776 678 l 754 678 l 700 846 l 400 846 l 340 507 l 553 507 l 643 626 l 665 626 l 611 322 l 589 322 l 542 439 l 328 439 l 263 71 l 617 71 l 736 263 l 758 263 l 711 0 l 4 0 z "},"Ȅ":{"ha":864,"x_min":4,"x_max":819,"o":"m 4 0 l 8 22 l 125 78 l 258 839 l 161 894 l 165 917 l 819 917 l 776 678 l 754 678 l 700 846 l 400 846 l 340 507 l 553 507 l 643 626 l 665 626 l 611 322 l 589 322 l 542 439 l 328 439 l 263 71 l 617 71 l 736 263 l 758 263 l 711 0 l 4 0 m 611 986 l 475 1118 q 449 1158 453 1140 q 449 1197 444 1175 l 538 1197 l 629 986 l 611 986 m 457 986 l 292 1118 q 263 1158 267 1138 q 264 1197 260 1178 l 353 1197 l 475 986 l 457 986 z "},"Ȇ":{"ha":864,"x_min":4,"x_max":819,"o":"m 4 0 l 8 22 l 125 78 l 258 839 l 161 894 l 165 917 l 819 917 l 776 678 l 754 678 l 700 846 l 400 846 l 340 507 l 553 507 l 643 626 l 665 626 l 611 322 l 589 322 l 542 439 l 328 439 l 263 71 l 617 71 l 736 263 l 758 263 l 711 0 l 4 0 m 350 986 q 583 1197 418 1197 q 710 1145 675 1197 q 750 986 744 1093 l 732 986 q 677 1090 717 1067 q 576 1113 638 1113 q 499 1104 535 1113 q 431 1069 463 1096 q 368 986 399 1042 l 350 986 z "},"Ế":{"ha":864,"x_min":4,"x_max":926,"o":"m 4 0 l 8 22 l 125 78 l 258 839 l 161 894 l 165 917 l 819 917 l 776 678 l 754 678 l 700 846 l 400 846 l 340 507 l 553 507 l 643 626 l 665 626 l 611 322 l 589 322 l 542 439 l 328 439 l 263 71 l 617 71 l 736 263 l 758 263 l 711 0 l 4 0 m 721 1118 l 811 1317 l 926 1317 q 911 1275 922 1296 q 869 1231 900 1254 l 736 1118 l 721 1118 m 346 986 l 564 1197 l 610 1197 l 743 986 l 725 986 l 571 1096 l 364 986 l 346 986 z "},"Ệ":{"ha":864,"x_min":4,"x_max":819,"o":"m 4 0 l 8 22 l 125 78 l 258 839 l 161 894 l 165 917 l 819 917 l 776 678 l 754 678 l 700 846 l 400 846 l 340 507 l 553 507 l 643 626 l 665 626 l 611 322 l 589 322 l 542 439 l 328 439 l 263 71 l 617 71 l 736 263 l 758 263 l 711 0 l 4 0 m 346 986 l 564 1197 l 610 1197 l 743 986 l 725 986 l 571 1096 l 364 986 l 346 986 z "},"Ề":{"ha":864,"x_min":4,"x_max":819,"o":"m 4 0 l 8 22 l 125 78 l 258 839 l 161 894 l 165 917 l 819 917 l 776 678 l 754 678 l 700 846 l 400 846 l 340 507 l 553 507 l 643 626 l 665 626 l 611 322 l 589 322 l 542 439 l 328 439 l 263 71 l 617 71 l 736 263 l 758 263 l 711 0 l 4 0 m 392 1118 l 256 1229 q 224 1273 229 1251 q 222 1317 218 1294 l 325 1317 l 410 1118 l 392 1118 m 346 986 l 564 1197 l 610 1197 l 743 986 l 725 986 l 571 1096 l 364 986 l 346 986 z "},"Ể":{"ha":864,"x_min":4,"x_max":819,"o":"m 4 0 l 8 22 l 125 78 l 258 839 l 161 894 l 165 917 l 819 917 l 776 678 l 754 678 l 700 846 l 400 846 l 340 507 l 553 507 l 643 626 l 665 626 l 611 322 l 589 322 l 542 439 l 328 439 l 263 71 l 617 71 l 736 263 l 758 263 l 711 0 l 4 0 z "},"Ễ":{"ha":864,"x_min":4,"x_max":838,"o":"m 4 0 l 8 22 l 125 78 l 258 839 l 161 894 l 165 917 l 819 917 l 776 678 l 754 678 l 700 846 l 400 846 l 340 507 l 553 507 l 643 626 l 665 626 l 611 322 l 589 322 l 542 439 l 328 439 l 263 71 l 617 71 l 736 263 l 758 263 l 711 0 l 4 0 z "},"Ẻ":{"ha":864,"x_min":4,"x_max":819,"o":"m 4 0 l 8 22 l 125 78 l 258 839 l 161 894 l 165 917 l 819 917 l 776 678 l 754 678 l 700 846 l 400 846 l 340 507 l 553 507 l 643 626 l 665 626 l 611 322 l 589 322 l 542 439 l 328 439 l 263 71 l 617 71 l 736 263 l 758 263 l 711 0 l 4 0 m 499 974 l 492 983 l 492 985 q 569 1021 544 1000 q 594 1076 594 1042 q 575 1116 594 1100 q 508 1142 556 1132 l 535 1214 q 635 1176 607 1207 q 664 1110 664 1144 q 499 974 664 1007 z "},"Ḕ":{"ha":864,"x_min":4,"x_max":819,"o":"m 4 0 l 8 22 l 125 78 l 258 839 l 161 894 l 165 917 l 819 917 l 776 678 l 754 678 l 700 846 l 400 846 l 340 507 l 553 507 l 643 626 l 665 626 l 611 322 l 589 322 l 542 439 l 328 439 l 263 71 l 617 71 l 736 263 l 758 263 l 711 0 l 4 0 z "},"Ḗ":{"ha":864,"x_min":4,"x_max":849,"o":"m 4 0 l 8 22 l 125 78 l 258 839 l 161 894 l 165 917 l 819 917 l 776 678 l 754 678 l 700 846 l 400 846 l 340 507 l 553 507 l 643 626 l 665 626 l 611 322 l 589 322 l 542 439 l 328 439 l 263 71 l 617 71 l 736 263 l 758 263 l 711 0 l 4 0 z "},"Ḝ":{"ha":864,"x_min":4,"x_max":819,"o":"m 550 986 q 425 1038 460 986 q 385 1197 390 1090 l 403 1197 q 458 1094 418 1117 q 558 1071 497 1071 q 636 1079 600 1071 q 704 1115 672 1088 q 767 1197 736 1142 l 785 1197 q 550 986 717 986 m 4 0 l 8 22 l 125 78 l 258 839 l 161 894 l 165 917 l 819 917 l 776 678 l 754 678 l 700 846 l 400 846 l 340 507 l 553 507 l 643 626 l 665 626 l 611 322 l 589 322 l 542 439 l 328 439 l 263 71 l 617 71 l 736 263 l 758 263 l 711 0 l 425 0 l 379 -74 q 470 -127 443 -96 q 497 -206 497 -158 q 457 -296 497 -258 q 349 -333 417 -333 q 285 -324 314 -333 q 242 -294 256 -314 l 244 -276 l 249 -276 q 285 -290 265 -285 q 331 -294 304 -294 q 417 -229 417 -294 q 390 -176 417 -197 q 297 -135 364 -154 l 382 0 l 4 0 z "},"Ĝ":{"ha":1014,"x_min":78,"x_max":932,"o":"m 440 -14 q 245 34 326 -14 q 121 166 164 82 q 78 360 78 250 q 123 581 78 478 q 246 764 168 685 q 424 888 324 843 q 633 932 524 932 q 782 917 722 932 q 910 864 842 901 l 875 631 l 853 631 l 789 801 q 714 851 753 836 q 619 867 675 867 q 453 827 526 867 q 330 720 381 788 q 253 565 279 653 q 226 382 226 478 q 301 147 226 231 q 492 64 375 64 q 566 69 528 64 q 644 88 604 75 l 686 326 l 579 385 l 585 407 l 932 407 l 928 385 l 825 322 l 788 103 q 682 41 742 67 q 560 1 622 15 q 440 -14 497 -14 m 435 986 l 653 1197 l 699 1197 l 832 986 l 814 986 l 660 1096 l 453 986 l 435 986 z "},"Ğ":{"ha":1014,"x_min":78,"x_max":932,"o":"m 440 -14 q 245 34 326 -14 q 121 166 164 82 q 78 360 78 250 q 123 581 78 478 q 246 764 168 685 q 424 888 324 843 q 633 932 524 932 q 782 917 722 932 q 910 864 842 901 l 875 631 l 853 631 l 789 801 q 714 851 753 836 q 619 867 675 867 q 453 827 526 867 q 330 720 381 788 q 253 565 279 653 q 226 382 226 478 q 301 147 226 231 q 492 64 375 64 q 566 69 528 64 q 644 88 604 75 l 686 326 l 579 385 l 585 407 l 932 407 l 928 385 l 825 322 l 788 103 q 682 41 742 67 q 560 1 622 15 q 440 -14 497 -14 m 640 986 q 514 1038 549 986 q 474 1197 479 1090 l 492 1197 q 547 1094 507 1117 q 647 1071 586 1071 q 725 1079 689 1071 q 793 1115 761 1088 q 856 1197 825 1142 l 874 1197 q 640 986 806 986 z "},"Ġ":{"ha":1014,"x_min":78,"x_max":932,"o":"m 440 -14 q 245 34 326 -14 q 121 166 164 82 q 78 360 78 250 q 123 581 78 478 q 246 764 168 685 q 424 888 324 843 q 633 932 524 932 q 782 917 722 932 q 910 864 842 901 l 875 631 l 853 631 l 789 801 q 714 851 753 836 q 619 867 675 867 q 453 827 526 867 q 330 720 381 788 q 253 565 279 653 q 226 382 226 478 q 301 147 226 231 q 492 64 375 64 q 566 69 528 64 q 644 88 604 75 l 686 326 l 579 385 l 585 407 l 932 407 l 928 385 l 825 322 l 788 103 q 682 41 742 67 q 560 1 622 15 q 440 -14 497 -14 m 657 1007 q 597 1031 622 1007 q 572 1092 572 1056 q 597 1151 572 1126 q 657 1176 622 1176 q 717 1151 693 1176 q 742 1092 742 1126 q 717 1031 742 1056 q 657 1007 693 1007 z "},"Ģ":{"ha":1014,"x_min":78,"x_max":932,"o":"m 440 -14 q 245 34 326 -14 q 121 166 164 82 q 78 360 78 250 q 123 581 78 478 q 246 764 168 685 q 424 888 324 843 q 633 932 524 932 q 782 917 722 932 q 910 864 842 901 l 875 631 l 853 631 l 789 801 q 714 851 753 836 q 619 867 675 867 q 453 827 526 867 q 330 720 381 788 q 253 565 279 653 q 226 382 226 478 q 301 147 226 231 q 492 64 375 64 q 566 69 528 64 q 644 88 604 75 l 686 326 l 579 385 l 585 407 l 932 407 l 928 385 l 825 322 l 788 103 q 682 41 742 67 q 560 1 622 15 q 440 -14 497 -14 m 679 986 q 572 1015 607 986 q 538 1089 538 1043 q 587 1181 538 1150 q 711 1211 636 1211 q 736 1210 722 1211 q 761 1207 750 1208 l 757 1189 q 739 1191 747 1190 q 722 1192 731 1192 q 649 1174 675 1192 q 622 1122 622 1156 q 735 1060 622 1060 l 726 1015 q 714 994 725 1003 q 679 986 703 986 z "},"Ǧ":{"ha":1014,"x_min":78,"x_max":932,"o":"m 440 -14 q 245 34 326 -14 q 121 166 164 82 q 78 360 78 250 q 123 581 78 478 q 246 764 168 685 q 424 888 324 843 q 633 932 524 932 q 782 917 722 932 q 910 864 842 901 l 875 631 l 853 631 l 789 801 q 714 851 753 836 q 619 867 675 867 q 453 827 526 867 q 330 720 381 788 q 253 565 279 653 q 226 382 226 478 q 301 147 226 231 q 492 64 375 64 q 566 69 528 64 q 644 88 604 75 l 686 326 l 579 385 l 585 407 l 932 407 l 928 385 l 825 322 l 788 103 q 682 41 742 67 q 560 1 622 15 q 440 -14 497 -14 m 617 986 l 483 1197 l 501 1197 l 654 1088 l 863 1197 l 881 1197 l 663 986 l 617 986 z "},"Ḡ":{"ha":1014,"x_min":78,"x_max":932,"o":"m 440 -14 q 245 34 326 -14 q 121 166 164 82 q 78 360 78 250 q 123 581 78 478 q 246 764 168 685 q 424 888 324 843 q 633 932 524 932 q 782 917 722 932 q 910 864 842 901 l 875 631 l 853 631 l 789 801 q 714 851 753 836 q 619 867 675 867 q 453 827 526 867 q 330 720 381 788 q 253 565 279 653 q 226 382 226 478 q 301 147 226 231 q 492 64 375 64 q 566 69 528 64 q 644 88 604 75 l 686 326 l 579 385 l 585 407 l 932 407 l 928 385 l 825 322 l 788 103 q 682 41 742 67 q 560 1 622 15 q 440 -14 497 -14 m 468 1061 l 481 1128 l 844 1128 l 832 1061 l 468 1061 z "},"Ĥ":{"ha":1074,"x_min":4,"x_max":1069,"o":"m 4 0 l 8 22 l 117 78 l 251 839 l 150 894 l 154 917 l 506 917 l 501 894 l 390 839 l 332 508 l 754 508 l 813 839 l 715 894 l 719 917 l 1069 917 l 1065 894 l 953 839 l 818 78 l 924 22 l 919 0 l 568 0 l 572 22 l 678 78 l 742 438 l 319 438 l 256 78 l 360 22 l 356 0 l 4 0 m 426 986 l 644 1197 l 690 1197 l 824 986 l 806 986 l 651 1096 l 444 986 l 426 986 z "},"Ħ":{"ha":1074,"x_min":4,"x_max":1069,"o":"m 4 0 l 8 22 l 117 78 l 219 660 l 115 660 l 128 719 l 231 719 l 251 839 l 150 894 l 154 917 l 506 917 l 501 894 l 390 839 l 369 719 l 792 719 l 813 839 l 715 894 l 719 917 l 1069 917 l 1065 894 l 953 839 l 932 719 l 1036 719 l 1025 660 l 921 660 l 818 78 l 924 22 l 919 0 l 568 0 l 572 22 l 678 78 l 742 438 l 319 438 l 256 78 l 360 22 l 356 0 l 4 0 m 332 508 l 754 508 l 781 660 l 358 660 l 332 508 z "},"Ḥ":{"ha":1074,"x_min":4,"x_max":1069,"o":"m 4 0 l 8 22 l 117 78 l 251 839 l 150 894 l 154 917 l 506 917 l 501 894 l 390 839 l 332 508 l 754 508 l 813 839 l 715 894 l 719 917 l 1069 917 l 1065 894 l 953 839 l 818 78 l 924 22 l 919 0 l 568 0 l 572 22 l 678 78 l 742 438 l 319 438 l 256 78 l 360 22 l 356 0 l 4 0 z "},"Ḫ":{"ha":1074,"x_min":4,"x_max":1069,"o":"m 4 0 l 8 22 l 117 78 l 251 839 l 150 894 l 154 917 l 506 917 l 501 894 l 390 839 l 332 508 l 754 508 l 813 839 l 715 894 l 719 917 l 1069 917 l 1065 894 l 953 839 l 818 78 l 924 22 l 919 0 l 568 0 l 572 22 l 678 78 l 742 438 l 319 438 l 256 78 l 360 22 l 356 0 l 4 0 z "},"Ì":{"ha":513,"x_min":4,"x_max":508,"o":"m 4 0 l 8 22 l 117 78 l 251 839 l 150 894 l 154 917 l 508 917 l 504 894 l 390 839 l 256 78 l 361 22 l 357 0 l 4 0 m 336 986 l 151 1110 q 121 1151 124 1128 q 122 1197 118 1175 l 229 1197 l 353 986 l 336 986 z "},"Í":{"ha":513,"x_min":4,"x_max":600,"o":"m 4 0 l 8 22 l 117 78 l 251 839 l 150 894 l 154 917 l 508 917 l 504 894 l 390 839 l 256 78 l 361 22 l 357 0 l 4 0 m 336 986 l 479 1197 l 600 1197 q 585 1155 596 1176 q 540 1110 574 1133 l 354 986 l 336 986 z "},"Î":{"ha":513,"x_min":4,"x_max":538,"o":"m 4 0 l 8 22 l 117 78 l 251 839 l 150 894 l 154 917 l 508 917 l 504 894 l 390 839 l 256 78 l 361 22 l 357 0 l 4 0 m 140 986 l 358 1197 l 404 1197 l 538 986 l 519 986 l 365 1096 l 158 986 l 140 986 z "},"Ĩ":{"ha":513,"x_min":4,"x_max":583,"o":"m 4 0 l 8 22 l 117 78 l 251 839 l 150 894 l 154 917 l 508 917 l 504 894 l 390 839 l 256 78 l 361 22 l 357 0 l 4 0 m 143 1007 q 203 1115 178 1081 q 250 1159 228 1149 q 296 1169 272 1169 q 359 1149 332 1169 q 411 1109 386 1129 q 464 1089 436 1089 q 507 1101 486 1089 q 560 1169 528 1114 l 583 1169 q 524 1061 549 1096 q 477 1017 499 1026 q 431 1007 456 1007 q 368 1027 394 1007 q 317 1067 342 1047 q 264 1088 292 1088 q 220 1075 242 1088 q 167 1007 199 1063 l 143 1007 z "},"Ï":{"ha":513,"x_min":4,"x_max":551,"o":"m 4 0 l 8 22 l 117 78 l 251 839 l 150 894 l 154 917 l 508 917 l 504 894 l 390 839 l 256 78 l 361 22 l 357 0 l 4 0 m 242 1026 q 195 1045 214 1026 q 176 1092 176 1064 q 195 1138 176 1119 q 242 1157 214 1157 q 289 1138 269 1157 q 308 1092 308 1119 q 289 1045 308 1064 q 242 1026 269 1026 m 486 1026 q 439 1045 458 1026 q 419 1092 419 1064 q 439 1138 419 1119 q 486 1157 458 1157 q 533 1138 514 1157 q 551 1092 551 1119 q 533 1045 551 1064 q 486 1026 514 1026 z "},"Ī":{"ha":513,"x_min":4,"x_max":551,"o":"m 4 0 l 8 22 l 117 78 l 251 839 l 150 894 l 154 917 l 508 917 l 504 894 l 390 839 l 256 78 l 361 22 l 357 0 l 4 0 m 175 1061 l 188 1128 l 551 1128 l 539 1061 l 175 1061 z "},"Ĭ":{"ha":513,"x_min":4,"x_max":579,"o":"m 4 0 l 8 22 l 117 78 l 251 839 l 150 894 l 154 917 l 508 917 l 504 894 l 390 839 l 256 78 l 361 22 l 357 0 l 4 0 m 346 986 q 219 1038 254 986 q 179 1197 185 1090 l 197 1197 q 252 1094 213 1117 q 353 1071 292 1071 q 431 1079 394 1071 q 499 1115 467 1088 q 561 1197 531 1142 l 579 1197 q 346 986 511 986 z "},"İ":{"ha":513,"x_min":4,"x_max":508,"o":"m 4 0 l 8 22 l 117 78 l 251 839 l 150 894 l 154 917 l 508 917 l 504 894 l 390 839 l 256 78 l 361 22 l 357 0 l 4 0 m 363 1007 q 303 1031 328 1007 q 278 1092 278 1056 q 303 1151 278 1126 q 363 1176 328 1176 q 423 1151 399 1176 q 447 1092 447 1126 q 423 1031 447 1056 q 363 1007 399 1007 z "},"Į":{"ha":513,"x_min":4,"x_max":508,"o":"m 4 0 l 8 22 l 117 78 l 251 839 l 150 894 l 154 917 l 508 917 l 504 894 l 390 839 l 256 78 l 361 22 l 357 0 l 199 0 q 138 -99 160 -51 q 115 -192 115 -147 q 136 -250 115 -231 q 193 -269 157 -269 q 226 -264 208 -269 q 260 -247 243 -258 l 264 -247 l 261 -267 q 208 -315 239 -297 q 138 -333 178 -333 q 54 -303 85 -333 q 24 -221 24 -274 q 60 -113 24 -167 q 157 0 96 -60 l 4 0 z "},"Ị":{"ha":513,"x_min":4,"x_max":508,"o":"m 4 0 l 8 22 l 117 78 l 251 839 l 150 894 l 154 917 l 508 917 l 504 894 l 390 839 l 256 78 l 361 22 l 357 0 l 4 0 z "},"Ȉ":{"ha":513,"x_min":4,"x_max":508,"o":"m 4 0 l 8 22 l 117 78 l 251 839 l 150 894 l 154 917 l 508 917 l 504 894 l 390 839 l 256 78 l 361 22 l 357 0 l 4 0 m 406 986 l 269 1118 q 243 1158 247 1140 q 243 1197 239 1175 l 332 1197 l 424 986 l 406 986 m 251 986 l 86 1118 q 58 1158 61 1138 q 58 1197 54 1178 l 147 1197 l 269 986 l 251 986 z "},"Ȋ":{"ha":513,"x_min":4,"x_max":544,"o":"m 4 0 l 8 22 l 117 78 l 251 839 l 150 894 l 154 917 l 508 917 l 504 894 l 390 839 l 256 78 l 361 22 l 357 0 l 4 0 m 144 986 q 378 1197 213 1197 q 504 1145 469 1197 q 544 986 539 1093 l 526 986 q 472 1090 511 1067 q 371 1113 432 1113 q 293 1104 329 1113 q 225 1069 257 1096 q 163 986 193 1042 l 144 986 z "},"Ỉ":{"ha":513,"x_min":4,"x_max":508,"o":"m 4 0 l 8 22 l 117 78 l 251 839 l 150 894 l 154 917 l 508 917 l 504 894 l 390 839 l 256 78 l 361 22 l 357 0 l 4 0 m 293 974 l 286 983 l 286 985 q 364 1021 339 1000 q 389 1076 389 1042 q 369 1116 389 1100 q 303 1142 350 1132 l 329 1214 q 430 1176 401 1207 q 458 1110 458 1144 q 293 974 458 1007 z "},"Ḯ":{"ha":513,"x_min":4,"x_max":640,"o":"m 4 0 l 8 22 l 117 78 l 251 839 l 150 894 l 154 917 l 508 917 l 504 894 l 390 839 l 256 78 l 361 22 l 357 0 l 4 0 z "},"Ĳ":{"ha":1039,"x_min":4,"x_max":1042,"o":"m 4 0 l 8 22 l 117 78 l 251 839 l 150 894 l 154 917 l 508 917 l 504 894 l 390 839 l 256 78 l 361 22 l 357 0 l 4 0 m 463 -240 q 429 -226 442 -240 q 428 -179 417 -212 l 447 -118 l 456 -118 q 490 -128 476 -125 q 521 -131 503 -131 q 572 -117 549 -131 q 614 -58 596 -103 q 649 79 632 -14 l 783 839 l 685 894 l 689 917 l 1042 917 l 1038 894 l 924 839 l 833 331 q 756 56 807 176 q 636 -131 706 -64 q 562 -200 590 -176 q 512 -232 533 -224 q 463 -240 490 -240 z "},"Ĵ":{"ha":526,"x_min":-96,"x_max":560,"o":"m -50 -240 q -83 -226 -71 -240 q -85 -179 -96 -212 l -65 -118 l -57 -118 q -23 -128 -36 -125 q 8 -131 -10 -131 q 60 -117 36 -131 q 101 -58 83 -103 q 136 79 119 -14 l 271 839 l 172 894 l 176 917 l 529 917 l 525 894 l 411 839 l 321 331 q 244 56 294 176 q 124 -131 193 -64 q 49 -200 78 -176 q -1 -232 21 -224 q -50 -240 -22 -240 m 163 986 l 381 1197 l 426 1197 l 560 986 l 542 986 l 388 1096 l 181 986 l 163 986 z "},"Ķ":{"ha":981,"x_min":4,"x_max":963,"o":"m 4 0 l 8 22 l 125 78 l 258 839 l 161 894 l 165 917 l 519 917 l 514 894 l 399 839 l 264 78 l 363 22 l 357 0 l 4 0 m 661 0 l 335 468 l 761 847 l 674 894 l 678 917 l 963 917 l 957 894 l 872 863 l 469 507 l 786 72 l 869 22 l 865 0 l 661 0 m 346 -332 q 320 -331 335 -332 q 296 -328 306 -331 l 300 -310 q 335 -314 319 -314 q 408 -295 382 -314 q 435 -243 435 -276 q 322 -181 435 -181 l 331 -136 q 344 -115 333 -124 q 378 -107 354 -107 q 485 -136 450 -107 q 519 -211 519 -165 q 470 -301 519 -271 q 346 -332 421 -332 z "},"Ĺ":{"ha":824,"x_min":4,"x_max":728,"o":"m 4 0 l 8 22 l 125 78 l 258 839 l 161 894 l 165 917 l 532 917 l 528 894 l 399 839 l 264 71 l 568 71 l 706 314 l 728 314 l 671 0 l 4 0 m 346 986 l 489 1197 l 610 1197 q 594 1155 606 1176 q 550 1110 583 1133 l 364 986 l 346 986 z "},"Ľ":{"ha":824,"x_min":4,"x_max":758,"o":"m 4 0 l 8 22 l 125 78 l 258 839 l 161 894 l 165 917 l 532 917 l 528 894 l 399 839 l 264 71 l 568 71 l 706 314 l 728 314 l 671 0 l 4 0 m 568 657 l 646 917 l 756 917 q 753 873 758 896 q 726 824 749 850 l 586 657 l 568 657 z "},"Ļ":{"ha":824,"x_min":4,"x_max":728,"o":"m 4 0 l 8 22 l 125 78 l 258 839 l 161 894 l 165 917 l 532 917 l 528 894 l 399 839 l 264 71 l 568 71 l 706 314 l 728 314 l 671 0 l 4 0 m 263 -332 q 237 -331 251 -332 q 213 -328 222 -331 l 217 -310 q 251 -314 236 -314 q 325 -295 299 -314 q 351 -243 351 -276 q 239 -181 351 -181 l 247 -136 q 260 -115 250 -124 q 294 -107 271 -107 q 401 -136 367 -107 q 436 -211 436 -165 q 387 -301 436 -271 q 263 -332 338 -332 z "},"Ł":{"ha":824,"x_min":4,"x_max":728,"o":"m 4 0 l 8 22 l 125 78 l 174 356 l 53 285 l 67 365 l 188 435 l 258 839 l 161 894 l 165 917 l 532 917 l 528 894 l 399 839 l 342 511 l 567 642 l 550 561 l 328 432 l 264 71 l 568 71 l 706 314 l 728 314 l 671 0 l 4 0 z "},"Ŀ":{"ha":824,"x_min":4,"x_max":763,"o":"m 4 0 l 8 22 l 125 78 l 258 839 l 161 894 l 165 917 l 532 917 l 528 894 l 399 839 l 264 71 l 568 71 l 706 314 l 728 314 l 671 0 l 4 0 m 678 400 q 618 424 643 400 q 593 485 593 449 q 618 544 593 519 q 678 569 643 569 q 738 544 714 569 q 763 485 763 519 q 738 424 763 449 q 678 400 714 400 z "},"Ḷ":{"ha":824,"x_min":4,"x_max":728,"o":"m 4 0 l 8 22 l 125 78 l 258 839 l 161 894 l 165 917 l 532 917 l 528 894 l 399 839 l 264 71 l 568 71 l 706 314 l 728 314 l 671 0 l 4 0 z "},"Ḻ":{"ha":824,"x_min":4,"x_max":728,"o":"m 4 0 l 8 22 l 125 78 l 258 839 l 161 894 l 165 917 l 532 917 l 528 894 l 399 839 l 264 71 l 568 71 l 706 314 l 728 314 l 671 0 l 4 0 z "},"Ṃ":{"ha":1285,"x_min":4,"x_max":1274,"o":"m 4 0 l 8 22 l 124 78 l 288 838 l 172 894 l 178 917 l 446 917 l 621 196 l 1019 917 l 1274 917 l 1268 894 l 1153 840 l 1064 78 l 1149 22 l 1144 0 l 814 0 l 818 22 l 925 76 l 1006 744 l 588 -7 l 526 -7 l 346 750 l 207 76 l 306 22 l 301 0 l 4 0 z "},"Ń":{"ha":1072,"x_min":6,"x_max":1074,"o":"m 6 0 l 10 22 l 128 78 l 261 836 l 164 894 l 168 917 l 375 917 l 760 243 l 865 840 l 733 894 l 739 917 l 1074 917 l 1069 894 l 953 839 l 804 -7 l 742 -7 l 328 713 l 215 78 l 346 22 l 340 0 l 6 0 m 644 986 l 788 1197 l 908 1197 q 893 1155 904 1176 q 849 1110 882 1133 l 663 986 l 644 986 z "},"Ň":{"ha":1072,"x_min":6,"x_max":1074,"o":"m 6 0 l 10 22 l 128 78 l 261 836 l 164 894 l 168 917 l 375 917 l 760 243 l 865 840 l 733 894 l 739 917 l 1074 917 l 1069 894 l 953 839 l 804 -7 l 742 -7 l 328 713 l 215 78 l 346 22 l 340 0 l 6 0 m 631 986 l 497 1197 l 515 1197 l 668 1088 l 876 1197 l 894 1197 l 676 986 l 631 986 z "},"Ñ":{"ha":1072,"x_min":6,"x_max":1074,"o":"m 6 0 l 10 22 l 128 78 l 261 836 l 164 894 l 168 917 l 375 917 l 760 243 l 865 840 l 733 894 l 739 917 l 1074 917 l 1069 894 l 953 839 l 804 -7 l 742 -7 l 328 713 l 215 78 l 346 22 l 340 0 l 6 0 m 450 1007 q 510 1115 485 1081 q 557 1159 535 1149 q 603 1169 579 1169 q 666 1149 639 1169 q 718 1109 693 1129 q 771 1089 743 1089 q 814 1101 793 1089 q 867 1169 835 1114 l 890 1169 q 831 1061 856 1096 q 784 1017 806 1026 q 738 1007 763 1007 q 675 1027 701 1007 q 624 1067 649 1047 q 571 1088 599 1088 q 527 1075 549 1088 q 474 1007 506 1063 l 450 1007 z "},"Ņ":{"ha":1072,"x_min":6,"x_max":1074,"o":"m 6 0 l 10 22 l 128 78 l 261 836 l 164 894 l 168 917 l 375 917 l 760 243 l 865 840 l 733 894 l 739 917 l 1074 917 l 1069 894 l 953 839 l 804 -7 l 742 -7 l 328 713 l 215 78 l 346 22 l 340 0 l 6 0 m 382 -332 q 356 -331 371 -332 q 332 -328 342 -331 l 336 -310 q 371 -314 356 -314 q 444 -295 418 -314 q 471 -243 471 -276 q 358 -181 471 -181 l 367 -136 q 380 -115 369 -124 q 414 -107 390 -107 q 521 -136 486 -107 q 556 -211 556 -165 q 506 -301 556 -271 q 382 -332 457 -332 z "},"Ṅ":{"ha":1072,"x_min":6,"x_max":1074,"o":"m 6 0 l 10 22 l 128 78 l 261 836 l 164 894 l 168 917 l 375 917 l 760 243 l 865 840 l 733 894 l 739 917 l 1074 917 l 1069 894 l 953 839 l 804 -7 l 742 -7 l 328 713 l 215 78 l 346 22 l 340 0 l 6 0 m 671 1007 q 611 1031 636 1007 q 586 1092 586 1056 q 611 1151 586 1126 q 671 1176 636 1176 q 731 1151 707 1176 q 756 1092 756 1126 q 731 1031 756 1056 q 671 1007 707 1007 z "},"Ṇ":{"ha":1072,"x_min":6,"x_max":1074,"o":"m 6 0 l 10 22 l 128 78 l 261 836 l 164 894 l 168 917 l 375 917 l 760 243 l 865 840 l 733 894 l 739 917 l 1074 917 l 1069 894 l 953 839 l 804 -7 l 742 -7 l 328 713 l 215 78 l 346 22 l 340 0 l 6 0 z "},"Ṉ":{"ha":1072,"x_min":6,"x_max":1074,"o":"m 6 0 l 10 22 l 128 78 l 261 836 l 164 894 l 168 917 l 375 917 l 760 243 l 865 840 l 733 894 l 739 917 l 1074 917 l 1069 894 l 953 839 l 804 -7 l 742 -7 l 328 713 l 215 78 l 346 22 l 340 0 l 6 0 z "},"Ò":{"ha":1067,"x_min":78,"x_max":989,"o":"m 463 -14 q 259 37 346 -14 q 125 178 172 88 q 78 389 78 269 q 117 593 78 496 q 228 767 157 690 q 394 888 299 843 q 603 932 490 932 q 808 881 721 932 q 942 738 894 829 q 989 528 989 647 q 950 326 989 424 q 841 152 911 229 q 674 31 771 75 q 463 -14 578 -14 m 501 54 q 639 92 576 54 q 747 194 701 129 q 817 344 792 258 q 842 525 842 429 q 808 703 842 626 q 714 824 775 781 q 569 867 653 867 q 432 830 494 867 q 324 728 369 793 q 253 578 278 664 q 228 394 228 492 q 262 217 228 294 q 358 97 296 140 q 501 54 419 54 m 618 986 l 433 1110 q 403 1151 406 1128 q 404 1197 400 1175 l 511 1197 l 635 986 l 618 986 z "},"Ó":{"ha":1067,"x_min":78,"x_max":989,"o":"m 463 -14 q 259 37 346 -14 q 125 178 172 88 q 78 389 78 269 q 117 593 78 496 q 228 767 157 690 q 394 888 299 843 q 603 932 490 932 q 808 881 721 932 q 942 738 894 829 q 989 528 989 647 q 950 326 989 424 q 841 152 911 229 q 674 31 771 75 q 463 -14 578 -14 m 501 54 q 639 92 576 54 q 747 194 701 129 q 817 344 792 258 q 842 525 842 429 q 808 703 842 626 q 714 824 775 781 q 569 867 653 867 q 432 830 494 867 q 324 728 369 793 q 253 578 278 664 q 228 394 228 492 q 262 217 228 294 q 358 97 296 140 q 501 54 419 54 m 618 986 l 761 1197 l 882 1197 q 867 1155 878 1176 q 822 1110 856 1133 l 636 986 l 618 986 z "},"Ô":{"ha":1067,"x_min":78,"x_max":989,"o":"m 463 -14 q 259 37 346 -14 q 125 178 172 88 q 78 389 78 269 q 117 593 78 496 q 228 767 157 690 q 394 888 299 843 q 603 932 490 932 q 808 881 721 932 q 942 738 894 829 q 989 528 989 647 q 950 326 989 424 q 841 152 911 229 q 674 31 771 75 q 463 -14 578 -14 m 501 54 q 639 92 576 54 q 747 194 701 129 q 817 344 792 258 q 842 525 842 429 q 808 703 842 626 q 714 824 775 781 q 569 867 653 867 q 432 830 494 867 q 324 728 369 793 q 253 578 278 664 q 228 394 228 492 q 262 217 228 294 q 358 97 296 140 q 501 54 419 54 m 421 986 l 639 1197 l 685 1197 l 818 986 l 800 986 l 646 1096 l 439 986 l 421 986 z "},"Õ":{"ha":1067,"x_min":78,"x_max":989,"o":"m 463 -14 q 259 37 346 -14 q 125 178 172 88 q 78 389 78 269 q 117 593 78 496 q 228 767 157 690 q 394 888 299 843 q 603 932 490 932 q 808 881 721 932 q 942 738 894 829 q 989 528 989 647 q 950 326 989 424 q 841 152 911 229 q 674 31 771 75 q 463 -14 578 -14 m 501 54 q 639 92 576 54 q 747 194 701 129 q 817 344 792 258 q 842 525 842 429 q 808 703 842 626 q 714 824 775 781 q 569 867 653 867 q 432 830 494 867 q 324 728 369 793 q 253 578 278 664 q 228 394 228 492 q 262 217 228 294 q 358 97 296 140 q 501 54 419 54 m 424 1007 q 483 1115 458 1081 q 531 1159 508 1149 q 576 1169 553 1169 q 640 1149 613 1169 q 692 1109 667 1129 q 744 1089 717 1089 q 788 1101 767 1089 q 840 1169 808 1114 l 864 1169 q 804 1061 829 1096 q 758 1017 779 1026 q 711 1007 736 1007 q 649 1027 675 1007 q 597 1067 622 1047 q 544 1088 572 1088 q 501 1075 522 1088 q 447 1007 479 1063 l 424 1007 z "},"Ö":{"ha":1067,"x_min":78,"x_max":989,"o":"m 463 -14 q 259 37 346 -14 q 125 178 172 88 q 78 389 78 269 q 117 593 78 496 q 228 767 157 690 q 394 888 299 843 q 603 932 490 932 q 808 881 721 932 q 942 738 894 829 q 989 528 989 647 q 950 326 989 424 q 841 152 911 229 q 674 31 771 75 q 463 -14 578 -14 m 501 54 q 639 92 576 54 q 747 194 701 129 q 817 344 792 258 q 842 525 842 429 q 808 703 842 626 q 714 824 775 781 q 569 867 653 867 q 432 830 494 867 q 324 728 369 793 q 253 578 278 664 q 228 394 228 492 q 262 217 228 294 q 358 97 296 140 q 501 54 419 54 m 524 1026 q 477 1045 496 1026 q 458 1092 458 1064 q 477 1138 458 1119 q 524 1157 496 1157 q 571 1138 551 1157 q 590 1092 590 1119 q 571 1045 590 1064 q 524 1026 551 1026 m 768 1026 q 721 1045 740 1026 q 701 1092 701 1064 q 721 1138 701 1119 q 768 1157 740 1157 q 815 1138 796 1157 q 833 1092 833 1119 q 815 1045 833 1064 q 768 1026 796 1026 z "},"Ō":{"ha":1067,"x_min":78,"x_max":989,"o":"m 463 -14 q 259 37 346 -14 q 125 178 172 88 q 78 389 78 269 q 117 593 78 496 q 228 767 157 690 q 394 888 299 843 q 603 932 490 932 q 808 881 721 932 q 942 738 894 829 q 989 528 989 647 q 950 326 989 424 q 841 152 911 229 q 674 31 771 75 q 463 -14 578 -14 m 501 54 q 639 92 576 54 q 747 194 701 129 q 817 344 792 258 q 842 525 842 429 q 808 703 842 626 q 714 824 775 781 q 569 867 653 867 q 432 830 494 867 q 324 728 369 793 q 253 578 278 664 q 228 394 228 492 q 262 217 228 294 q 358 97 296 140 q 501 54 419 54 m 456 1061 l 468 1128 l 832 1128 l 819 1061 l 456 1061 z "},"Ŏ":{"ha":1067,"x_min":78,"x_max":989,"o":"m 463 -14 q 259 37 346 -14 q 125 178 172 88 q 78 389 78 269 q 117 593 78 496 q 228 767 157 690 q 394 888 299 843 q 603 932 490 932 q 808 881 721 932 q 942 738 894 829 q 989 528 989 647 q 950 326 989 424 q 841 152 911 229 q 674 31 771 75 q 463 -14 578 -14 m 501 54 q 639 92 576 54 q 747 194 701 129 q 817 344 792 258 q 842 525 842 429 q 808 703 842 626 q 714 824 775 781 q 569 867 653 867 q 432 830 494 867 q 324 728 369 793 q 253 578 278 664 q 228 394 228 492 q 262 217 228 294 q 358 97 296 140 q 501 54 419 54 m 626 986 q 500 1038 535 986 q 460 1197 465 1090 l 478 1197 q 533 1094 493 1117 q 633 1071 572 1071 q 711 1079 675 1071 q 779 1115 747 1088 q 842 1197 811 1142 l 860 1197 q 626 986 792 986 z "},"Ő":{"ha":1067,"x_min":78,"x_max":989,"o":"m 463 -14 q 259 37 346 -14 q 125 178 172 88 q 78 389 78 269 q 117 593 78 496 q 228 767 157 690 q 394 888 299 843 q 603 932 490 932 q 808 881 721 932 q 942 738 894 829 q 989 528 989 647 q 950 326 989 424 q 841 152 911 229 q 674 31 771 75 q 463 -14 578 -14 m 501 54 q 639 92 576 54 q 747 194 701 129 q 817 344 792 258 q 842 525 842 429 q 808 703 842 626 q 714 824 775 781 q 569 867 653 867 q 432 830 494 867 q 324 728 369 793 q 253 578 278 664 q 228 394 228 492 q 262 217 228 294 q 358 97 296 140 q 501 54 419 54 m 531 986 l 640 1197 l 729 1197 q 728 1153 732 1175 q 697 1110 724 1131 l 549 986 l 531 986 m 693 986 l 828 1197 l 917 1197 q 917 1151 919 1175 q 886 1110 914 1128 l 710 986 l 693 986 z "},"Ọ":{"ha":1067,"x_min":78,"x_max":989,"o":"m 463 -14 q 259 37 346 -14 q 125 178 172 88 q 78 389 78 269 q 117 593 78 496 q 228 767 157 690 q 394 888 299 843 q 603 932 490 932 q 808 881 721 932 q 942 738 894 829 q 989 528 989 647 q 950 326 989 424 q 841 152 911 229 q 674 31 771 75 q 463 -14 578 -14 m 501 54 q 639 92 576 54 q 747 194 701 129 q 817 344 792 258 q 842 525 842 429 q 808 703 842 626 q 714 824 775 781 q 569 867 653 867 q 432 830 494 867 q 324 728 369 793 q 253 578 278 664 q 228 394 228 492 q 262 217 228 294 q 358 97 296 140 q 501 54 419 54 z "},"Ǫ":{"ha":1067,"x_min":78,"x_max":989,"o":"m 433 -333 q 349 -303 381 -333 q 318 -221 318 -274 q 351 -119 318 -171 q 439 -14 383 -68 q 247 44 328 -8 q 122 185 167 96 q 78 389 78 274 q 117 593 78 496 q 228 767 157 690 q 394 888 299 843 q 603 932 490 932 q 808 881 721 932 q 942 738 894 829 q 989 528 989 647 q 952 330 989 425 q 848 159 915 235 q 688 37 781 83 q 483 -14 594 -10 q 430 -106 449 -61 q 411 -192 411 -151 q 488 -269 411 -269 q 520 -264 503 -269 q 556 -247 538 -258 l 560 -247 l 556 -267 q 503 -315 533 -297 q 433 -333 472 -333 m 501 54 q 639 92 576 54 q 747 194 701 129 q 817 344 792 258 q 842 525 842 429 q 808 703 842 626 q 714 824 775 781 q 569 867 653 867 q 432 830 494 867 q 324 728 369 793 q 253 578 278 664 q 228 394 228 492 q 262 217 228 294 q 358 97 296 140 q 501 54 419 54 z "},"Ȍ":{"ha":1067,"x_min":78,"x_max":989,"o":"m 463 -14 q 259 37 346 -14 q 125 178 172 88 q 78 389 78 269 q 117 593 78 496 q 228 767 157 690 q 394 888 299 843 q 603 932 490 932 q 808 881 721 932 q 942 738 894 829 q 989 528 989 647 q 950 326 989 424 q 841 152 911 229 q 674 31 771 75 q 463 -14 578 -14 m 501 54 q 639 92 576 54 q 747 194 701 129 q 817 344 792 258 q 842 525 842 429 q 808 703 842 626 q 714 824 775 781 q 569 867 653 867 q 432 830 494 867 q 324 728 369 793 q 253 578 278 664 q 228 394 228 492 q 262 217 228 294 q 358 97 296 140 q 501 54 419 54 m 686 986 l 550 1118 q 524 1158 528 1140 q 524 1197 519 1175 l 613 1197 l 704 986 l 686 986 m 532 986 l 367 1118 q 338 1158 342 1138 q 339 1197 335 1178 l 428 1197 l 550 986 l 532 986 z "},"Ȏ":{"ha":1067,"x_min":78,"x_max":989,"o":"m 463 -14 q 259 37 346 -14 q 125 178 172 88 q 78 389 78 269 q 117 593 78 496 q 228 767 157 690 q 394 888 299 843 q 603 932 490 932 q 808 881 721 932 q 942 738 894 829 q 989 528 989 647 q 950 326 989 424 q 841 152 911 229 q 674 31 771 75 q 463 -14 578 -14 m 501 54 q 639 92 576 54 q 747 194 701 129 q 817 344 792 258 q 842 525 842 429 q 808 703 842 626 q 714 824 775 781 q 569 867 653 867 q 432 830 494 867 q 324 728 369 793 q 253 578 278 664 q 228 394 228 492 q 262 217 228 294 q 358 97 296 140 q 501 54 419 54 m 426 986 q 660 1197 494 1197 q 786 1145 751 1197 q 826 986 821 1093 l 808 986 q 753 1090 793 1067 q 653 1113 714 1113 q 575 1104 611 1113 q 507 1069 539 1096 q 444 986 475 1042 l 426 986 z "},"Ȫ":{"ha":1067,"x_min":78,"x_max":989,"o":"m 463 -14 q 259 37 346 -14 q 125 178 172 88 q 78 389 78 269 q 117 593 78 496 q 228 767 157 690 q 394 888 299 843 q 603 932 490 932 q 808 881 721 932 q 942 738 894 829 q 989 528 989 647 q 950 326 989 424 q 841 152 911 229 q 674 31 771 75 q 463 -14 578 -14 m 501 54 q 639 92 576 54 q 747 194 701 129 q 817 344 792 258 q 842 525 842 429 q 808 703 842 626 q 714 824 775 781 q 569 867 653 867 q 432 830 494 867 q 324 728 369 793 q 253 578 278 664 q 228 394 228 492 q 262 217 228 294 q 358 97 296 140 q 501 54 419 54 z "},"Ȭ":{"ha":1067,"x_min":78,"x_max":989,"o":"m 463 -14 q 259 37 346 -14 q 125 178 172 88 q 78 389 78 269 q 117 593 78 496 q 228 767 157 690 q 394 888 299 843 q 603 932 490 932 q 808 881 721 932 q 942 738 894 829 q 989 528 989 647 q 950 326 989 424 q 841 152 911 229 q 674 31 771 75 q 463 -14 578 -14 m 501 54 q 639 92 576 54 q 747 194 701 129 q 817 344 792 258 q 842 525 842 429 q 808 703 842 626 q 714 824 775 781 q 569 867 653 867 q 432 830 494 867 q 324 728 369 793 q 253 578 278 664 q 228 394 228 492 q 262 217 228 294 q 358 97 296 140 q 501 54 419 54 z "},"Ȱ":{"ha":1067,"x_min":78,"x_max":989,"o":"m 463 -14 q 259 37 346 -14 q 125 178 172 88 q 78 389 78 269 q 117 593 78 496 q 228 767 157 690 q 394 888 299 843 q 603 932 490 932 q 808 881 721 932 q 942 738 894 829 q 989 528 989 647 q 950 326 989 424 q 841 152 911 229 q 674 31 771 75 q 463 -14 578 -14 m 501 54 q 639 92 576 54 q 747 194 701 129 q 817 344 792 258 q 842 525 842 429 q 808 703 842 626 q 714 824 775 781 q 569 867 653 867 q 432 830 494 867 q 324 728 369 793 q 253 578 278 664 q 228 394 228 492 q 262 217 228 294 q 358 97 296 140 q 501 54 419 54 z "},"Ố":{"ha":1067,"x_min":78,"x_max":1001,"o":"m 463 -14 q 259 37 346 -14 q 125 178 172 88 q 78 389 78 269 q 117 593 78 496 q 228 767 157 690 q 394 888 299 843 q 603 932 490 932 q 808 881 721 932 q 942 738 894 829 q 989 528 989 647 q 950 326 989 424 q 841 152 911 229 q 674 31 771 75 q 463 -14 578 -14 m 501 54 q 639 92 576 54 q 747 194 701 129 q 817 344 792 258 q 842 525 842 429 q 808 703 842 626 q 714 824 775 781 q 569 867 653 867 q 432 830 494 867 q 324 728 369 793 q 253 578 278 664 q 228 394 228 492 q 262 217 228 294 q 358 97 296 140 q 501 54 419 54 m 796 1118 l 886 1317 l 1001 1317 q 986 1275 997 1296 q 944 1231 975 1254 l 811 1118 l 796 1118 m 421 986 l 639 1197 l 685 1197 l 818 986 l 800 986 l 646 1096 l 439 986 l 421 986 z "},"Ộ":{"ha":1067,"x_min":78,"x_max":989,"o":"m 463 -14 q 259 37 346 -14 q 125 178 172 88 q 78 389 78 269 q 117 593 78 496 q 228 767 157 690 q 394 888 299 843 q 603 932 490 932 q 808 881 721 932 q 942 738 894 829 q 989 528 989 647 q 950 326 989 424 q 841 152 911 229 q 674 31 771 75 q 463 -14 578 -14 m 501 54 q 639 92 576 54 q 747 194 701 129 q 817 344 792 258 q 842 525 842 429 q 808 703 842 626 q 714 824 775 781 q 569 867 653 867 q 432 830 494 867 q 324 728 369 793 q 253 578 278 664 q 228 394 228 492 q 262 217 228 294 q 358 97 296 140 q 501 54 419 54 m 421 986 l 639 1197 l 685 1197 l 818 986 l 800 986 l 646 1096 l 439 986 l 421 986 z "},"Ồ":{"ha":1067,"x_min":78,"x_max":989,"o":"m 463 -14 q 259 37 346 -14 q 125 178 172 88 q 78 389 78 269 q 117 593 78 496 q 228 767 157 690 q 394 888 299 843 q 603 932 490 932 q 808 881 721 932 q 942 738 894 829 q 989 528 989 647 q 950 326 989 424 q 841 152 911 229 q 674 31 771 75 q 463 -14 578 -14 m 501 54 q 639 92 576 54 q 747 194 701 129 q 817 344 792 258 q 842 525 842 429 q 808 703 842 626 q 714 824 775 781 q 569 867 653 867 q 432 830 494 867 q 324 728 369 793 q 253 578 278 664 q 228 394 228 492 q 262 217 228 294 q 358 97 296 140 q 501 54 419 54 m 467 1118 l 331 1229 q 299 1273 304 1251 q 297 1317 293 1294 l 400 1317 l 485 1118 l 467 1118 m 421 986 l 639 1197 l 685 1197 l 818 986 l 800 986 l 646 1096 l 439 986 l 421 986 z "},"Ổ":{"ha":1067,"x_min":78,"x_max":989,"o":"m 463 -14 q 259 37 346 -14 q 125 178 172 88 q 78 389 78 269 q 117 593 78 496 q 228 767 157 690 q 394 888 299 843 q 603 932 490 932 q 808 881 721 932 q 942 738 894 829 q 989 528 989 647 q 950 326 989 424 q 841 152 911 229 q 674 31 771 75 q 463 -14 578 -14 m 501 54 q 639 92 576 54 q 747 194 701 129 q 817 344 792 258 q 842 525 842 429 q 808 703 842 626 q 714 824 775 781 q 569 867 653 867 q 432 830 494 867 q 324 728 369 793 q 253 578 278 664 q 228 394 228 492 q 262 217 228 294 q 358 97 296 140 q 501 54 419 54 z "},"Ỗ":{"ha":1067,"x_min":78,"x_max":989,"o":"m 463 -14 q 259 37 346 -14 q 125 178 172 88 q 78 389 78 269 q 117 593 78 496 q 228 767 157 690 q 394 888 299 843 q 603 932 490 932 q 808 881 721 932 q 942 738 894 829 q 989 528 989 647 q 950 326 989 424 q 841 152 911 229 q 674 31 771 75 q 463 -14 578 -14 m 501 54 q 639 92 576 54 q 747 194 701 129 q 817 344 792 258 q 842 525 842 429 q 808 703 842 626 q 714 824 775 781 q 569 867 653 867 q 432 830 494 867 q 324 728 369 793 q 253 578 278 664 q 228 394 228 492 q 262 217 228 294 q 358 97 296 140 q 501 54 419 54 z "},"Ỏ":{"ha":1067,"x_min":78,"x_max":989,"o":"m 463 -14 q 259 37 346 -14 q 125 178 172 88 q 78 389 78 269 q 117 593 78 496 q 228 767 157 690 q 394 888 299 843 q 603 932 490 932 q 808 881 721 932 q 942 738 894 829 q 989 528 989 647 q 950 326 989 424 q 841 152 911 229 q 674 31 771 75 q 463 -14 578 -14 m 501 54 q 639 92 576 54 q 747 194 701 129 q 817 344 792 258 q 842 525 842 429 q 808 703 842 626 q 714 824 775 781 q 569 867 653 867 q 432 830 494 867 q 324 728 369 793 q 253 578 278 664 q 228 394 228 492 q 262 217 228 294 q 358 97 296 140 q 501 54 419 54 m 575 974 l 568 983 l 568 985 q 646 1021 621 1000 q 671 1076 671 1042 q 651 1116 671 1100 q 585 1142 632 1132 l 611 1214 q 712 1176 683 1207 q 740 1110 740 1144 q 575 974 740 1007 z "},"Ṍ":{"ha":1067,"x_min":78,"x_max":989,"o":"m 463 -14 q 259 37 346 -14 q 125 178 172 88 q 78 389 78 269 q 117 593 78 496 q 228 767 157 690 q 394 888 299 843 q 603 932 490 932 q 808 881 721 932 q 942 738 894 829 q 989 528 989 647 q 950 326 989 424 q 841 152 911 229 q 674 31 771 75 q 463 -14 578 -14 m 501 54 q 639 92 576 54 q 747 194 701 129 q 817 344 792 258 q 842 525 842 429 q 808 703 842 626 q 714 824 775 781 q 569 867 653 867 q 432 830 494 867 q 324 728 369 793 q 253 578 278 664 q 228 394 228 492 q 262 217 228 294 q 358 97 296 140 q 501 54 419 54 z "},"Ṏ":{"ha":1067,"x_min":78,"x_max":989,"o":"m 463 -14 q 259 37 346 -14 q 125 178 172 88 q 78 389 78 269 q 117 593 78 496 q 228 767 157 690 q 394 888 299 843 q 603 932 490 932 q 808 881 721 932 q 942 738 894 829 q 989 528 989 647 q 950 326 989 424 q 841 152 911 229 q 674 31 771 75 q 463 -14 578 -14 m 501 54 q 639 92 576 54 q 747 194 701 129 q 817 344 792 258 q 842 525 842 429 q 808 703 842 626 q 714 824 775 781 q 569 867 653 867 q 432 830 494 867 q 324 728 369 793 q 253 578 278 664 q 228 394 228 492 q 262 217 228 294 q 358 97 296 140 q 501 54 419 54 z "},"Ṑ":{"ha":1067,"x_min":78,"x_max":989,"o":"m 463 -14 q 259 37 346 -14 q 125 178 172 88 q 78 389 78 269 q 117 593 78 496 q 228 767 157 690 q 394 888 299 843 q 603 932 490 932 q 808 881 721 932 q 942 738 894 829 q 989 528 989 647 q 950 326 989 424 q 841 152 911 229 q 674 31 771 75 q 463 -14 578 -14 m 501 54 q 639 92 576 54 q 747 194 701 129 q 817 344 792 258 q 842 525 842 429 q 808 703 842 626 q 714 824 775 781 q 569 867 653 867 q 432 830 494 867 q 324 728 369 793 q 253 578 278 664 q 228 394 228 492 q 262 217 228 294 q 358 97 296 140 q 501 54 419 54 z "},"Ṓ":{"ha":1067,"x_min":78,"x_max":989,"o":"m 463 -14 q 259 37 346 -14 q 125 178 172 88 q 78 389 78 269 q 117 593 78 496 q 228 767 157 690 q 394 888 299 843 q 603 932 490 932 q 808 881 721 932 q 942 738 894 829 q 989 528 989 647 q 950 326 989 424 q 841 152 911 229 q 674 31 771 75 q 463 -14 578 -14 m 501 54 q 639 92 576 54 q 747 194 701 129 q 817 344 792 258 q 842 525 842 429 q 808 703 842 626 q 714 824 775 781 q 569 867 653 867 q 432 830 494 867 q 324 728 369 793 q 253 578 278 664 q 228 394 228 492 q 262 217 228 294 q 358 97 296 140 q 501 54 419 54 z "},"Ø":{"ha":1067,"x_min":0,"x_max":1068,"o":"m 0 -14 l 153 133 q 78 389 78 239 q 117 593 78 496 q 228 767 157 690 q 394 888 299 843 q 603 932 490 932 q 754 906 686 932 q 872 832 822 879 l 975 931 l 1068 931 l 915 782 q 989 528 989 678 q 950 326 989 424 q 841 152 911 229 q 674 31 771 75 q 463 -14 578 -14 q 312 12 379 -14 q 194 86 244 38 l 92 -14 l 0 -14 m 228 394 q 256 233 228 306 l 786 747 q 695 835 750 803 q 569 867 640 867 q 432 830 494 867 q 324 728 369 793 q 253 578 278 664 q 228 394 228 492 m 501 54 q 639 92 576 54 q 747 194 701 129 q 817 344 792 258 q 842 525 842 429 q 815 686 842 614 l 285 174 q 376 85 321 117 q 501 54 432 54 z "},"Ǿ":{"ha":1067,"x_min":0,"x_max":1068,"o":"m 0 -14 l 153 133 q 78 389 78 239 q 117 593 78 496 q 228 767 157 690 q 394 888 299 843 q 603 932 490 932 q 754 906 686 932 q 872 832 822 879 l 975 931 l 1068 931 l 915 782 q 989 528 989 678 q 950 326 989 424 q 841 152 911 229 q 674 31 771 75 q 463 -14 578 -14 q 312 12 379 -14 q 194 86 244 38 l 92 -14 l 0 -14 m 228 394 q 256 233 228 306 l 786 747 q 695 835 750 803 q 569 867 640 867 q 432 830 494 867 q 324 728 369 793 q 253 578 278 664 q 228 394 228 492 m 501 54 q 639 92 576 54 q 747 194 701 129 q 817 344 792 258 q 842 525 842 429 q 815 686 842 614 l 285 174 q 376 85 321 117 q 501 54 432 54 m 618 986 l 761 1197 l 882 1197 q 867 1155 878 1176 q 822 1110 856 1133 l 636 986 l 618 986 z "},"Ơ":{"ha":1067,"x_min":78,"x_max":1011,"o":"m 463 -14 q 259 37 346 -14 q 125 178 172 88 q 78 389 78 269 q 117 593 78 496 q 228 767 157 690 q 394 888 299 843 q 603 932 490 932 q 779 896 700 932 q 815 892 797 892 q 879 911 858 892 q 907 967 900 931 l 917 1036 l 926 1044 l 979 1044 q 1003 1040 996 1044 q 1011 1022 1011 1036 q 989 944 1011 981 q 928 885 967 907 q 839 863 889 863 l 835 863 q 949 724 908 810 q 989 528 989 638 q 950 326 989 424 q 841 152 911 229 q 674 31 771 75 q 463 -14 578 -14 m 501 54 q 639 92 576 54 q 747 194 701 129 q 817 344 792 258 q 842 525 842 429 q 808 703 842 626 q 714 824 775 781 q 569 867 653 867 q 432 830 494 867 q 324 728 369 793 q 253 578 278 664 q 228 394 228 492 q 262 217 228 294 q 358 97 296 140 q 501 54 419 54 z "},"Ớ":{"ha":1067,"x_min":78,"x_max":1011,"o":"m 463 -14 q 259 37 346 -14 q 125 178 172 88 q 78 389 78 269 q 117 593 78 496 q 228 767 157 690 q 394 888 299 843 q 603 932 490 932 q 779 896 700 932 q 815 892 797 892 q 879 911 858 892 q 907 967 900 931 l 917 1036 l 926 1044 l 979 1044 q 1003 1040 996 1044 q 1011 1022 1011 1036 q 989 944 1011 981 q 928 885 967 907 q 839 863 889 863 l 835 863 q 949 724 908 810 q 989 528 989 638 q 950 326 989 424 q 841 152 911 229 q 674 31 771 75 q 463 -14 578 -14 m 501 54 q 639 92 576 54 q 747 194 701 129 q 817 344 792 258 q 842 525 842 429 q 808 703 842 626 q 714 824 775 781 q 569 867 653 867 q 432 830 494 867 q 324 728 369 793 q 253 578 278 664 q 228 394 228 492 q 262 217 228 294 q 358 97 296 140 q 501 54 419 54 m 618 986 l 761 1197 l 882 1197 q 867 1155 878 1176 q 822 1110 856 1133 l 636 986 l 618 986 z "},"Ợ":{"ha":1067,"x_min":78,"x_max":1011,"o":"m 463 -14 q 259 37 346 -14 q 125 178 172 88 q 78 389 78 269 q 117 593 78 496 q 228 767 157 690 q 394 888 299 843 q 603 932 490 932 q 779 896 700 932 q 815 892 797 892 q 879 911 858 892 q 907 967 900 931 l 917 1036 l 926 1044 l 979 1044 q 1003 1040 996 1044 q 1011 1022 1011 1036 q 989 944 1011 981 q 928 885 967 907 q 839 863 889 863 l 835 863 q 949 724 908 810 q 989 528 989 638 q 950 326 989 424 q 841 152 911 229 q 674 31 771 75 q 463 -14 578 -14 m 501 54 q 639 92 576 54 q 747 194 701 129 q 817 344 792 258 q 842 525 842 429 q 808 703 842 626 q 714 824 775 781 q 569 867 653 867 q 432 830 494 867 q 324 728 369 793 q 253 578 278 664 q 228 394 228 492 q 262 217 228 294 q 358 97 296 140 q 501 54 419 54 z "},"Ờ":{"ha":1067,"x_min":78,"x_max":1011,"o":"m 463 -14 q 259 37 346 -14 q 125 178 172 88 q 78 389 78 269 q 117 593 78 496 q 228 767 157 690 q 394 888 299 843 q 603 932 490 932 q 779 896 700 932 q 815 892 797 892 q 879 911 858 892 q 907 967 900 931 l 917 1036 l 926 1044 l 979 1044 q 1003 1040 996 1044 q 1011 1022 1011 1036 q 989 944 1011 981 q 928 885 967 907 q 839 863 889 863 l 835 863 q 949 724 908 810 q 989 528 989 638 q 950 326 989 424 q 841 152 911 229 q 674 31 771 75 q 463 -14 578 -14 m 501 54 q 639 92 576 54 q 747 194 701 129 q 817 344 792 258 q 842 525 842 429 q 808 703 842 626 q 714 824 775 781 q 569 867 653 867 q 432 830 494 867 q 324 728 369 793 q 253 578 278 664 q 228 394 228 492 q 262 217 228 294 q 358 97 296 140 q 501 54 419 54 m 618 986 l 433 1110 q 403 1151 406 1128 q 404 1197 400 1175 l 511 1197 l 635 986 l 618 986 z "},"Ở":{"ha":1067,"x_min":78,"x_max":1011,"o":"m 463 -14 q 259 37 346 -14 q 125 178 172 88 q 78 389 78 269 q 117 593 78 496 q 228 767 157 690 q 394 888 299 843 q 603 932 490 932 q 779 896 700 932 q 815 892 797 892 q 879 911 858 892 q 907 967 900 931 l 917 1036 l 926 1044 l 979 1044 q 1003 1040 996 1044 q 1011 1022 1011 1036 q 989 944 1011 981 q 928 885 967 907 q 839 863 889 863 l 835 863 q 949 724 908 810 q 989 528 989 638 q 950 326 989 424 q 841 152 911 229 q 674 31 771 75 q 463 -14 578 -14 m 501 54 q 639 92 576 54 q 747 194 701 129 q 817 344 792 258 q 842 525 842 429 q 808 703 842 626 q 714 824 775 781 q 569 867 653 867 q 432 830 494 867 q 324 728 369 793 q 253 578 278 664 q 228 394 228 492 q 262 217 228 294 q 358 97 296 140 q 501 54 419 54 m 575 974 l 568 983 l 568 985 q 646 1021 621 1000 q 671 1076 671 1042 q 651 1116 671 1100 q 585 1142 632 1132 l 611 1214 q 712 1176 683 1207 q 740 1110 740 1144 q 575 974 740 1007 z "},"Ỡ":{"ha":1067,"x_min":78,"x_max":1011,"o":"m 463 -14 q 259 37 346 -14 q 125 178 172 88 q 78 389 78 269 q 117 593 78 496 q 228 767 157 690 q 394 888 299 843 q 603 932 490 932 q 779 896 700 932 q 815 892 797 892 q 879 911 858 892 q 907 967 900 931 l 917 1036 l 926 1044 l 979 1044 q 1003 1040 996 1044 q 1011 1022 1011 1036 q 989 944 1011 981 q 928 885 967 907 q 839 863 889 863 l 835 863 q 949 724 908 810 q 989 528 989 638 q 950 326 989 424 q 841 152 911 229 q 674 31 771 75 q 463 -14 578 -14 m 501 54 q 639 92 576 54 q 747 194 701 129 q 817 344 792 258 q 842 525 842 429 q 808 703 842 626 q 714 824 775 781 q 569 867 653 867 q 432 830 494 867 q 324 728 369 793 q 253 578 278 664 q 228 394 228 492 q 262 217 228 294 q 358 97 296 140 q 501 54 419 54 m 424 1007 q 483 1115 458 1081 q 531 1159 508 1149 q 576 1169 553 1169 q 640 1149 613 1169 q 692 1109 667 1129 q 744 1089 717 1089 q 788 1101 767 1089 q 840 1169 808 1114 l 864 1169 q 804 1061 829 1096 q 758 1017 779 1026 q 711 1007 736 1007 q 649 1027 675 1007 q 597 1067 622 1047 q 544 1088 572 1088 q 501 1075 522 1088 q 447 1007 479 1063 l 424 1007 z "},"Œ":{"ha":1332,"x_min":78,"x_max":1289,"o":"m 536 0 q 275 49 376 0 q 126 188 174 99 q 78 397 78 278 q 146 665 78 547 q 338 849 214 782 q 626 917 461 917 l 1289 917 l 1246 678 l 1224 678 l 1168 846 l 868 846 l 808 508 l 1022 508 l 1113 628 l 1135 628 l 1081 321 l 1058 321 l 1011 438 l 796 438 l 731 71 l 1086 71 l 1204 263 l 1226 263 l 1181 0 l 536 0 m 546 71 l 592 71 l 728 847 l 624 847 q 409 792 497 847 q 274 637 321 738 q 228 397 228 536 q 308 151 228 232 q 546 71 389 71 z "},"Ŕ":{"ha":892,"x_min":4,"x_max":829,"o":"m 4 0 l 8 22 l 124 78 l 257 839 l 161 894 l 165 917 l 472 917 q 704 861 619 917 q 789 707 789 806 q 728 553 789 618 q 571 456 667 488 l 749 74 l 829 22 l 825 0 l 622 0 l 443 425 l 325 425 l 264 79 l 356 22 l 351 0 l 4 0 m 457 846 l 399 846 l 336 493 l 440 493 q 547 520 503 493 q 616 592 592 547 q 640 688 640 636 q 591 804 640 763 q 457 846 542 846 m 478 986 l 621 1197 l 742 1197 q 726 1155 738 1176 q 682 1110 715 1133 l 496 986 l 478 986 z "},"Ř":{"ha":892,"x_min":4,"x_max":829,"o":"m 4 0 l 8 22 l 124 78 l 257 839 l 161 894 l 165 917 l 472 917 q 704 861 619 917 q 789 707 789 806 q 728 553 789 618 q 571 456 667 488 l 749 74 l 829 22 l 825 0 l 622 0 l 443 425 l 325 425 l 264 79 l 356 22 l 351 0 l 4 0 m 457 846 l 399 846 l 336 493 l 440 493 q 547 520 503 493 q 616 592 592 547 q 640 688 640 636 q 591 804 640 763 q 457 846 542 846 m 464 986 l 331 1197 l 349 1197 l 501 1088 l 710 1197 l 728 1197 l 510 986 l 464 986 z "},"Ŗ":{"ha":892,"x_min":4,"x_max":829,"o":"m 4 0 l 8 22 l 124 78 l 257 839 l 161 894 l 165 917 l 472 917 q 704 861 619 917 q 789 707 789 806 q 728 553 789 618 q 571 456 667 488 l 749 74 l 829 22 l 825 0 l 622 0 l 443 425 l 325 425 l 264 79 l 356 22 l 351 0 l 4 0 m 457 846 l 399 846 l 336 493 l 440 493 q 547 520 503 493 q 616 592 592 547 q 640 688 640 636 q 591 804 640 763 q 457 846 542 846 m 310 -332 q 284 -331 299 -332 q 260 -328 269 -331 l 264 -310 q 299 -314 283 -314 q 372 -295 346 -314 q 399 -243 399 -276 q 286 -181 399 -181 l 294 -136 q 308 -115 297 -124 q 342 -107 318 -107 q 449 -136 414 -107 q 483 -211 483 -165 q 434 -301 483 -271 q 310 -332 385 -332 z "},"Ȑ":{"ha":892,"x_min":4,"x_max":829,"o":"m 4 0 l 8 22 l 124 78 l 257 839 l 161 894 l 165 917 l 472 917 q 704 861 619 917 q 789 707 789 806 q 728 553 789 618 q 571 456 667 488 l 749 74 l 829 22 l 825 0 l 622 0 l 443 425 l 325 425 l 264 79 l 356 22 l 351 0 l 4 0 m 457 846 l 399 846 l 336 493 l 440 493 q 547 520 503 493 q 616 592 592 547 q 640 688 640 636 q 591 804 640 763 q 457 846 542 846 m 547 986 l 411 1118 q 385 1158 389 1140 q 385 1197 381 1175 l 474 1197 l 565 986 l 547 986 m 393 986 l 228 1118 q 199 1158 203 1138 q 200 1197 196 1178 l 289 1197 l 411 986 l 393 986 z "},"Ȓ":{"ha":892,"x_min":4,"x_max":829,"o":"m 4 0 l 8 22 l 124 78 l 257 839 l 161 894 l 165 917 l 472 917 q 704 861 619 917 q 789 707 789 806 q 728 553 789 618 q 571 456 667 488 l 749 74 l 829 22 l 825 0 l 622 0 l 443 425 l 325 425 l 264 79 l 356 22 l 351 0 l 4 0 m 457 846 l 399 846 l 336 493 l 440 493 q 547 520 503 493 q 616 592 592 547 q 640 688 640 636 q 591 804 640 763 q 457 846 542 846 m 286 986 q 519 1197 354 1197 q 646 1145 611 1197 q 686 986 681 1093 l 668 986 q 613 1090 653 1067 q 513 1113 574 1113 q 435 1104 471 1113 q 367 1069 399 1096 q 304 986 335 1042 l 286 986 z "},"Ṛ":{"ha":892,"x_min":4,"x_max":829,"o":"m 4 0 l 8 22 l 124 78 l 257 839 l 161 894 l 165 917 l 472 917 q 704 861 619 917 q 789 707 789 806 q 728 553 789 618 q 571 456 667 488 l 749 74 l 829 22 l 825 0 l 622 0 l 443 425 l 325 425 l 264 79 l 356 22 l 351 0 l 4 0 m 457 846 l 399 846 l 336 493 l 440 493 q 547 520 503 493 q 616 592 592 547 q 640 688 640 636 q 591 804 640 763 q 457 846 542 846 z "},"Ṟ":{"ha":892,"x_min":4,"x_max":829,"o":"m 4 0 l 8 22 l 124 78 l 257 839 l 161 894 l 165 917 l 472 917 q 704 861 619 917 q 789 707 789 806 q 728 553 789 618 q 571 456 667 488 l 749 74 l 829 22 l 825 0 l 622 0 l 443 425 l 325 425 l 264 79 l 356 22 l 351 0 l 4 0 m 457 846 l 399 846 l 336 493 l 440 493 q 547 520 503 493 q 616 592 592 547 q 640 688 640 636 q 591 804 640 763 q 457 846 542 846 z "},"ẞ":{"ha":1397,"x_min":7,"x_max":1354,"o":"m 258 -14 q 120 3 176 -14 q 7 51 64 19 l 33 282 l 57 282 l 115 114 q 265 47 183 47 q 410 101 358 47 q 461 242 461 156 q 445 310 461 281 q 391 368 429 339 q 288 435 353 397 q 174 529 210 479 q 138 650 138 579 q 181 792 138 729 q 296 893 225 856 q 446 931 367 931 q 559 915 508 931 q 657 871 610 899 l 632 649 l 610 649 l 553 811 q 500 850 531 833 q 422 867 469 867 q 311 818 358 867 q 264 690 264 769 q 294 604 264 642 q 401 524 325 567 q 515 448 472 483 q 576 373 557 413 q 594 281 594 333 q 548 128 594 194 q 424 24 501 63 q 258 -14 347 -14 m 956 -14 q 817 3 874 -14 q 704 51 761 19 l 731 282 l 754 282 l 813 114 q 963 47 881 47 q 1107 101 1056 47 q 1158 242 1158 156 q 1142 310 1158 281 q 1088 368 1126 339 q 985 435 1050 397 q 871 529 907 479 q 835 650 835 579 q 878 792 835 729 q 993 893 922 856 q 1143 931 1064 931 q 1256 915 1206 931 q 1354 871 1307 899 l 1329 649 l 1307 649 l 1250 811 q 1197 850 1228 833 q 1119 867 1167 867 q 1008 818 1056 867 q 961 690 961 769 q 992 604 961 642 q 1099 524 1022 567 q 1212 448 1169 483 q 1273 373 1254 413 q 1292 281 1292 333 q 1245 128 1292 194 q 1122 24 1199 63 q 956 -14 1044 -14 z "},"Ś":{"ha":700,"x_min":7,"x_max":713,"o":"m 258 -14 q 120 3 176 -14 q 7 51 64 19 l 33 282 l 57 282 l 115 114 q 265 47 183 47 q 410 101 358 47 q 461 242 461 156 q 445 310 461 281 q 391 368 429 339 q 288 435 353 397 q 174 529 210 479 q 138 650 138 579 q 181 792 138 729 q 296 893 225 856 q 446 931 367 931 q 559 915 508 931 q 657 871 610 899 l 632 649 l 610 649 l 553 811 q 500 850 531 833 q 422 867 469 867 q 311 818 358 867 q 264 690 264 769 q 294 604 264 642 q 401 524 325 567 q 515 448 472 483 q 576 373 557 413 q 594 281 594 333 q 548 128 594 194 q 424 24 501 63 q 258 -14 347 -14 m 449 986 l 592 1197 l 713 1197 q 697 1155 708 1176 q 653 1110 686 1133 l 467 986 l 449 986 z "},"Ŝ":{"ha":700,"x_min":7,"x_max":657,"o":"m 258 -14 q 120 3 176 -14 q 7 51 64 19 l 33 282 l 57 282 l 115 114 q 265 47 183 47 q 410 101 358 47 q 461 242 461 156 q 445 310 461 281 q 391 368 429 339 q 288 435 353 397 q 174 529 210 479 q 138 650 138 579 q 181 792 138 729 q 296 893 225 856 q 446 931 367 931 q 559 915 508 931 q 657 871 610 899 l 632 649 l 610 649 l 553 811 q 500 850 531 833 q 422 867 469 867 q 311 818 358 867 q 264 690 264 769 q 294 604 264 642 q 401 524 325 567 q 515 448 472 483 q 576 373 557 413 q 594 281 594 333 q 548 128 594 194 q 424 24 501 63 q 258 -14 347 -14 m 253 986 l 471 1197 l 517 1197 l 650 986 l 632 986 l 478 1096 l 271 986 l 253 986 z "},"Š":{"ha":700,"x_min":7,"x_max":699,"o":"m 258 -14 q 120 3 176 -14 q 7 51 64 19 l 33 282 l 57 282 l 115 114 q 265 47 183 47 q 410 101 358 47 q 461 242 461 156 q 445 310 461 281 q 391 368 429 339 q 288 435 353 397 q 174 529 210 479 q 138 650 138 579 q 181 792 138 729 q 296 893 225 856 q 446 931 367 931 q 559 915 508 931 q 657 871 610 899 l 632 649 l 610 649 l 553 811 q 500 850 531 833 q 422 867 469 867 q 311 818 358 867 q 264 690 264 769 q 294 604 264 642 q 401 524 325 567 q 515 448 472 483 q 576 373 557 413 q 594 281 594 333 q 548 128 594 194 q 424 24 501 63 q 258 -14 347 -14 m 435 986 l 301 1197 l 319 1197 l 472 1088 l 681 1197 l 699 1197 l 481 986 l 435 986 z "},"Ş":{"ha":700,"x_min":7,"x_max":657,"o":"m 211 -333 q 147 -324 175 -333 q 104 -294 119 -314 l 107 -276 l 111 -276 q 147 -290 128 -285 q 193 -294 167 -294 q 281 -229 281 -294 q 253 -176 281 -197 q 161 -135 226 -154 l 238 -14 q 112 5 164 -11 q 7 51 60 21 l 33 282 l 57 282 l 115 114 q 180 67 143 88 q 265 47 217 47 q 413 105 364 47 q 461 242 461 163 q 440 319 461 289 q 381 376 419 350 q 288 435 342 403 q 176 525 214 478 q 138 650 138 572 q 166 766 138 714 q 241 855 194 818 q 342 911 288 892 q 446 931 396 931 q 559 915 508 931 q 657 871 610 899 l 632 649 l 610 649 l 553 811 q 500 850 531 833 q 422 867 469 867 q 311 818 358 867 q 264 690 264 769 q 297 601 264 638 q 401 524 329 565 q 509 453 467 486 q 573 378 551 419 q 594 281 594 338 q 567 159 594 213 q 493 68 539 106 q 392 10 447 31 q 279 -14 336 -10 l 242 -74 q 333 -127 306 -96 q 360 -206 360 -158 q 320 -296 360 -258 q 211 -333 281 -333 z "},"Ș":{"ha":700,"x_min":7,"x_max":657,"o":"m 258 -14 q 120 3 176 -14 q 7 51 64 19 l 33 282 l 57 282 l 115 114 q 265 47 183 47 q 410 101 358 47 q 461 242 461 156 q 445 310 461 281 q 391 368 429 339 q 288 435 353 397 q 174 529 210 479 q 138 650 138 579 q 181 792 138 729 q 296 893 225 856 q 446 931 367 931 q 559 915 508 931 q 657 871 610 899 l 632 649 l 610 649 l 553 811 q 500 850 531 833 q 422 867 469 867 q 311 818 358 867 q 264 690 264 769 q 294 604 264 642 q 401 524 325 567 q 515 448 472 483 q 576 373 557 413 q 594 281 594 333 q 548 128 594 194 q 424 24 501 63 q 258 -14 347 -14 z "},"Ṡ":{"ha":700,"x_min":7,"x_max":657,"o":"m 258 -14 q 120 3 176 -14 q 7 51 64 19 l 33 282 l 57 282 l 115 114 q 265 47 183 47 q 410 101 358 47 q 461 242 461 156 q 445 310 461 281 q 391 368 429 339 q 288 435 353 397 q 174 529 210 479 q 138 650 138 579 q 181 792 138 729 q 296 893 225 856 q 446 931 367 931 q 559 915 508 931 q 657 871 610 899 l 632 649 l 610 649 l 553 811 q 500 850 531 833 q 422 867 469 867 q 311 818 358 867 q 264 690 264 769 q 294 604 264 642 q 401 524 325 567 q 515 448 472 483 q 576 373 557 413 q 594 281 594 333 q 548 128 594 194 q 424 24 501 63 q 258 -14 347 -14 m 475 1007 q 415 1031 440 1007 q 390 1092 390 1056 q 415 1151 390 1126 q 475 1176 440 1176 q 535 1151 511 1176 q 560 1092 560 1126 q 535 1031 560 1056 q 475 1007 511 1007 z "},"Ṣ":{"ha":700,"x_min":7,"x_max":657,"o":"m 258 -14 q 120 3 176 -14 q 7 51 64 19 l 33 282 l 57 282 l 115 114 q 265 47 183 47 q 410 101 358 47 q 461 242 461 156 q 445 310 461 281 q 391 368 429 339 q 288 435 353 397 q 174 529 210 479 q 138 650 138 579 q 181 792 138 729 q 296 893 225 856 q 446 931 367 931 q 559 915 508 931 q 657 871 610 899 l 632 649 l 610 649 l 553 811 q 500 850 531 833 q 422 867 469 867 q 311 818 358 867 q 264 690 264 769 q 294 604 264 642 q 401 524 325 567 q 515 448 472 483 q 576 373 557 413 q 594 281 594 333 q 548 128 594 194 q 424 24 501 63 q 258 -14 347 -14 z "},"Ṥ":{"ha":700,"x_min":7,"x_max":713,"o":"m 258 -14 q 120 3 176 -14 q 7 51 64 19 l 33 282 l 57 282 l 115 114 q 265 47 183 47 q 410 101 358 47 q 461 242 461 156 q 445 310 461 281 q 391 368 429 339 q 288 435 353 397 q 174 529 210 479 q 138 650 138 579 q 181 792 138 729 q 296 893 225 856 q 446 931 367 931 q 559 915 508 931 q 657 871 610 899 l 632 649 l 610 649 l 553 811 q 500 850 531 833 q 422 867 469 867 q 311 818 358 867 q 264 690 264 769 q 294 604 264 642 q 401 524 325 567 q 515 448 472 483 q 576 373 557 413 q 594 281 594 333 q 548 128 594 194 q 424 24 501 63 q 258 -14 347 -14 z "},"Ṧ":{"ha":700,"x_min":7,"x_max":699,"o":"m 258 -14 q 120 3 176 -14 q 7 51 64 19 l 33 282 l 57 282 l 115 114 q 265 47 183 47 q 410 101 358 47 q 461 242 461 156 q 445 310 461 281 q 391 368 429 339 q 288 435 353 397 q 174 529 210 479 q 138 650 138 579 q 181 792 138 729 q 296 893 225 856 q 446 931 367 931 q 559 915 508 931 q 657 871 610 899 l 632 649 l 610 649 l 553 811 q 500 850 531 833 q 422 867 469 867 q 311 818 358 867 q 264 690 264 769 q 294 604 264 642 q 401 524 325 567 q 515 448 472 483 q 576 373 557 413 q 594 281 594 333 q 548 128 594 194 q 424 24 501 63 q 258 -14 347 -14 z "},"Ṩ":{"ha":700,"x_min":7,"x_max":657,"o":"m 258 -14 q 120 3 176 -14 q 7 51 64 19 l 33 282 l 57 282 l 115 114 q 265 47 183 47 q 410 101 358 47 q 461 242 461 156 q 445 310 461 281 q 391 368 429 339 q 288 435 353 397 q 174 529 210 479 q 138 650 138 579 q 181 792 138 729 q 296 893 225 856 q 446 931 367 931 q 559 915 508 931 q 657 871 610 899 l 632 649 l 610 649 l 553 811 q 500 850 531 833 q 422 867 469 867 q 311 818 358 867 q 264 690 264 769 q 294 604 264 642 q 401 524 325 567 q 515 448 472 483 q 576 373 557 413 q 594 281 594 333 q 548 128 594 194 q 424 24 501 63 q 258 -14 347 -14 m 475 1007 q 415 1031 440 1007 q 390 1092 390 1056 q 415 1151 390 1126 q 475 1176 440 1176 q 535 1151 511 1176 q 560 1092 560 1126 q 535 1031 560 1056 q 475 1007 511 1007 z "},"Ť":{"ha":893,"x_min":97,"x_max":926,"o":"m 171 0 l 176 22 l 318 78 l 456 846 l 250 846 l 119 629 l 97 629 l 146 917 l 926 917 l 875 629 l 853 629 l 799 846 l 596 846 l 458 78 l 582 22 l 578 0 l 171 0 m 525 986 l 392 1197 l 410 1197 l 563 1088 l 771 1197 l 789 1197 l 571 986 l 525 986 z "},"Ț":{"ha":893,"x_min":97,"x_max":926,"o":"m 171 0 l 176 22 l 318 78 l 456 846 l 250 846 l 119 629 l 97 629 l 146 917 l 926 917 l 875 629 l 853 629 l 799 846 l 596 846 l 458 78 l 582 22 l 578 0 l 171 0 z "},"Ŧ":{"ha":893,"x_min":97,"x_max":926,"o":"m 242 446 l 253 506 l 394 506 l 456 846 l 250 846 l 119 629 l 97 629 l 146 917 l 926 917 l 875 629 l 853 629 l 799 846 l 596 846 l 535 506 l 675 506 l 664 446 l 524 446 l 458 78 l 582 22 l 578 0 l 171 0 l 176 22 l 318 78 l 383 446 l 242 446 z "},"Ţ":{"ha":893,"x_min":97,"x_max":926,"o":"m 171 0 l 176 22 l 318 78 l 456 846 l 250 846 l 119 629 l 97 629 l 146 917 l 926 917 l 875 629 l 853 629 l 799 846 l 596 846 l 458 78 l 582 22 l 578 0 l 396 0 l 350 -74 q 440 -127 413 -96 q 467 -206 467 -158 q 426 -296 467 -258 q 318 -333 386 -333 q 211 -294 243 -333 l 214 -276 l 219 -276 q 255 -290 236 -285 q 300 -294 274 -294 q 388 -229 388 -294 q 360 -176 388 -197 q 268 -135 333 -154 l 353 0 l 171 0 z "},"Ṭ":{"ha":893,"x_min":97,"x_max":926,"o":"m 171 0 l 176 22 l 318 78 l 456 846 l 250 846 l 119 629 l 97 629 l 146 917 l 926 917 l 875 629 l 853 629 l 799 846 l 596 846 l 458 78 l 582 22 l 578 0 l 171 0 z "},"Ṯ":{"ha":893,"x_min":97,"x_max":926,"o":"m 171 0 l 176 22 l 318 78 l 456 846 l 250 846 l 119 629 l 97 629 l 146 917 l 926 917 l 875 629 l 853 629 l 799 846 l 596 846 l 458 78 l 582 22 l 578 0 l 171 0 z "},"Ù":{"ha":1079,"x_min":163,"x_max":1079,"o":"m 476 -14 q 252 51 338 -14 q 167 264 167 117 q 169 313 167 288 q 176 367 172 339 l 258 839 l 163 894 l 167 917 l 521 917 l 515 894 l 400 839 l 319 381 q 310 328 314 354 q 307 279 307 301 q 364 117 307 167 q 519 68 421 68 q 631 97 578 68 q 724 183 685 125 q 781 332 764 242 l 869 842 l 750 894 l 756 917 l 1079 917 l 1075 894 l 960 840 l 878 367 q 799 144 854 228 q 660 24 743 61 q 476 -14 578 -14 m 644 986 l 460 1110 q 429 1151 432 1128 q 431 1197 426 1175 l 538 1197 l 661 986 l 644 986 z "},"Ú":{"ha":1079,"x_min":163,"x_max":1079,"o":"m 476 -14 q 252 51 338 -14 q 167 264 167 117 q 169 313 167 288 q 176 367 172 339 l 258 839 l 163 894 l 167 917 l 521 917 l 515 894 l 400 839 l 319 381 q 310 328 314 354 q 307 279 307 301 q 364 117 307 167 q 519 68 421 68 q 631 97 578 68 q 724 183 685 125 q 781 332 764 242 l 869 842 l 750 894 l 756 917 l 1079 917 l 1075 894 l 960 840 l 878 367 q 799 144 854 228 q 660 24 743 61 q 476 -14 578 -14 m 644 986 l 788 1197 l 908 1197 q 893 1155 904 1176 q 849 1110 882 1133 l 663 986 l 644 986 z "},"Û":{"ha":1079,"x_min":163,"x_max":1079,"o":"m 476 -14 q 252 51 338 -14 q 167 264 167 117 q 169 313 167 288 q 176 367 172 339 l 258 839 l 163 894 l 167 917 l 521 917 l 515 894 l 400 839 l 319 381 q 310 328 314 354 q 307 279 307 301 q 364 117 307 167 q 519 68 421 68 q 631 97 578 68 q 724 183 685 125 q 781 332 764 242 l 869 842 l 750 894 l 756 917 l 1079 917 l 1075 894 l 960 840 l 878 367 q 799 144 854 228 q 660 24 743 61 q 476 -14 578 -14 m 449 986 l 667 1197 l 713 1197 l 846 986 l 828 986 l 674 1096 l 467 986 l 449 986 z "},"Ũ":{"ha":1079,"x_min":163,"x_max":1079,"o":"m 476 -14 q 252 51 338 -14 q 167 264 167 117 q 169 313 167 288 q 176 367 172 339 l 258 839 l 163 894 l 167 917 l 521 917 l 515 894 l 400 839 l 319 381 q 310 328 314 354 q 307 279 307 301 q 364 117 307 167 q 519 68 421 68 q 631 97 578 68 q 724 183 685 125 q 781 332 764 242 l 869 842 l 750 894 l 756 917 l 1079 917 l 1075 894 l 960 840 l 878 367 q 799 144 854 228 q 660 24 743 61 q 476 -14 578 -14 m 450 1007 q 510 1115 485 1081 q 557 1159 535 1149 q 603 1169 579 1169 q 666 1149 639 1169 q 718 1109 693 1129 q 771 1089 743 1089 q 814 1101 793 1089 q 867 1169 835 1114 l 890 1169 q 831 1061 856 1096 q 784 1017 806 1026 q 738 1007 763 1007 q 675 1027 701 1007 q 624 1067 649 1047 q 571 1088 599 1088 q 527 1075 549 1088 q 474 1007 506 1063 l 450 1007 z "},"Ü":{"ha":1079,"x_min":163,"x_max":1079,"o":"m 476 -14 q 252 51 338 -14 q 167 264 167 117 q 169 313 167 288 q 176 367 172 339 l 258 839 l 163 894 l 167 917 l 521 917 l 515 894 l 400 839 l 319 381 q 310 328 314 354 q 307 279 307 301 q 364 117 307 167 q 519 68 421 68 q 631 97 578 68 q 724 183 685 125 q 781 332 764 242 l 869 842 l 750 894 l 756 917 l 1079 917 l 1075 894 l 960 840 l 878 367 q 799 144 854 228 q 660 24 743 61 q 476 -14 578 -14 m 550 1026 q 503 1045 522 1026 q 485 1092 485 1064 q 503 1138 485 1119 q 550 1157 522 1157 q 597 1138 578 1157 q 617 1092 617 1119 q 597 1045 617 1064 q 550 1026 578 1026 m 794 1026 q 747 1045 767 1026 q 728 1092 728 1064 q 747 1138 728 1119 q 794 1157 767 1157 q 841 1138 822 1157 q 860 1092 860 1119 q 841 1045 860 1064 q 794 1026 822 1026 z "},"Ū":{"ha":1079,"x_min":163,"x_max":1079,"o":"m 476 -14 q 252 51 338 -14 q 167 264 167 117 q 169 313 167 288 q 176 367 172 339 l 258 839 l 163 894 l 167 917 l 521 917 l 515 894 l 400 839 l 319 381 q 310 328 314 354 q 307 279 307 301 q 364 117 307 167 q 519 68 421 68 q 631 97 578 68 q 724 183 685 125 q 781 332 764 242 l 869 842 l 750 894 l 756 917 l 1079 917 l 1075 894 l 960 840 l 878 367 q 799 144 854 228 q 660 24 743 61 q 476 -14 578 -14 m 482 1061 l 494 1128 l 858 1128 l 846 1061 l 482 1061 z "},"Ŭ":{"ha":1079,"x_min":163,"x_max":1079,"o":"m 476 -14 q 252 51 338 -14 q 167 264 167 117 q 169 313 167 288 q 176 367 172 339 l 258 839 l 163 894 l 167 917 l 521 917 l 515 894 l 400 839 l 319 381 q 310 328 314 354 q 307 279 307 301 q 364 117 307 167 q 519 68 421 68 q 631 97 578 68 q 724 183 685 125 q 781 332 764 242 l 869 842 l 750 894 l 756 917 l 1079 917 l 1075 894 l 960 840 l 878 367 q 799 144 854 228 q 660 24 743 61 q 476 -14 578 -14 m 654 986 q 528 1038 563 986 q 488 1197 493 1090 l 506 1197 q 560 1094 521 1117 q 661 1071 600 1071 q 739 1079 703 1071 q 807 1115 775 1088 q 869 1197 839 1142 l 888 1197 q 654 986 819 986 z "},"Ů":{"ha":1079,"x_min":163,"x_max":1079,"o":"m 476 -14 q 252 51 338 -14 q 167 264 167 117 q 169 313 167 288 q 176 367 172 339 l 258 839 l 163 894 l 167 917 l 521 917 l 515 894 l 400 839 l 319 381 q 310 328 314 354 q 307 279 307 301 q 364 117 307 167 q 519 68 421 68 q 631 97 578 68 q 724 183 685 125 q 781 332 764 242 l 869 842 l 750 894 l 756 917 l 1079 917 l 1075 894 l 960 840 l 878 367 q 799 144 854 228 q 660 24 743 61 q 476 -14 578 -14 m 656 986 q 583 1013 606 986 q 560 1082 560 1040 q 597 1177 560 1136 q 693 1218 633 1218 q 765 1192 742 1218 q 789 1122 789 1165 q 753 1027 789 1068 q 656 986 717 986 m 663 1017 q 712 1047 694 1017 q 729 1121 729 1078 q 688 1189 729 1189 q 637 1161 656 1189 q 618 1085 618 1133 q 663 1017 618 1017 z "},"Ű":{"ha":1079,"x_min":163,"x_max":1079,"o":"m 476 -14 q 252 51 338 -14 q 167 264 167 117 q 169 313 167 288 q 176 367 172 339 l 258 839 l 163 894 l 167 917 l 521 917 l 515 894 l 400 839 l 319 381 q 310 328 314 354 q 307 279 307 301 q 364 117 307 167 q 519 68 421 68 q 631 97 578 68 q 724 183 685 125 q 781 332 764 242 l 869 842 l 750 894 l 756 917 l 1079 917 l 1075 894 l 960 840 l 878 367 q 799 144 854 228 q 660 24 743 61 q 476 -14 578 -14 m 558 986 l 668 1197 l 757 1197 q 756 1153 760 1175 q 725 1110 751 1131 l 576 986 l 558 986 m 721 986 l 856 1197 l 944 1197 q 944 1151 947 1175 q 914 1110 942 1128 l 738 986 l 721 986 z "},"Ų":{"ha":1079,"x_min":164,"x_max":1082,"o":"m 568 -267 q 515 -315 546 -297 q 446 -333 485 -333 q 361 -303 392 -333 q 331 -221 331 -274 q 363 -119 331 -171 q 451 -14 396 -68 q 247 59 324 -7 q 169 264 169 125 q 172 313 169 288 q 179 367 175 339 l 261 839 l 164 894 l 168 917 l 522 917 l 518 894 l 401 839 l 321 381 q 313 283 313 328 q 372 116 313 164 q 522 68 432 68 q 628 94 574 68 q 724 178 682 121 q 783 332 767 236 l 872 842 l 753 894 l 757 917 l 1082 917 l 1078 894 l 963 840 l 881 367 q 802 148 857 231 q 669 27 747 65 q 496 -14 590 -11 q 442 -106 461 -61 q 424 -192 424 -151 q 500 -269 424 -269 q 532 -264 514 -269 q 568 -247 550 -258 l 572 -247 l 568 -267 z "},"Ụ":{"ha":1079,"x_min":163,"x_max":1079,"o":"m 476 -14 q 252 51 338 -14 q 167 264 167 117 q 169 313 167 288 q 176 367 172 339 l 258 839 l 163 894 l 167 917 l 521 917 l 515 894 l 400 839 l 319 381 q 310 328 314 354 q 307 279 307 301 q 364 117 307 167 q 519 68 421 68 q 631 97 578 68 q 724 183 685 125 q 781 332 764 242 l 869 842 l 750 894 l 756 917 l 1079 917 l 1075 894 l 960 840 l 878 367 q 799 144 854 228 q 660 24 743 61 q 476 -14 578 -14 z "},"Ȕ":{"ha":1079,"x_min":163,"x_max":1079,"o":"m 476 -14 q 252 51 338 -14 q 167 264 167 117 q 169 313 167 288 q 176 367 172 339 l 258 839 l 163 894 l 167 917 l 521 917 l 515 894 l 400 839 l 319 381 q 310 328 314 354 q 307 279 307 301 q 364 117 307 167 q 519 68 421 68 q 631 97 578 68 q 724 183 685 125 q 781 332 764 242 l 869 842 l 750 894 l 756 917 l 1079 917 l 1075 894 l 960 840 l 878 367 q 799 144 854 228 q 660 24 743 61 q 476 -14 578 -14 m 714 986 l 578 1118 q 551 1158 556 1140 q 551 1197 547 1175 l 640 1197 l 732 986 l 714 986 m 560 986 l 394 1118 q 366 1158 369 1138 q 367 1197 363 1178 l 456 1197 l 578 986 l 560 986 z "},"Ȗ":{"ha":1079,"x_min":163,"x_max":1079,"o":"m 476 -14 q 252 51 338 -14 q 167 264 167 117 q 169 313 167 288 q 176 367 172 339 l 258 839 l 163 894 l 167 917 l 521 917 l 515 894 l 400 839 l 319 381 q 310 328 314 354 q 307 279 307 301 q 364 117 307 167 q 519 68 421 68 q 631 97 578 68 q 724 183 685 125 q 781 332 764 242 l 869 842 l 750 894 l 756 917 l 1079 917 l 1075 894 l 960 840 l 878 367 q 799 144 854 228 q 660 24 743 61 q 476 -14 578 -14 m 453 986 q 686 1197 521 1197 q 813 1145 778 1197 q 853 986 847 1093 l 835 986 q 780 1090 819 1067 q 679 1113 740 1113 q 601 1104 638 1113 q 533 1069 565 1096 q 471 986 501 1042 l 453 986 z "},"Ủ":{"ha":1079,"x_min":163,"x_max":1079,"o":"m 476 -14 q 252 51 338 -14 q 167 264 167 117 q 169 313 167 288 q 176 367 172 339 l 258 839 l 163 894 l 167 917 l 521 917 l 515 894 l 400 839 l 319 381 q 310 328 314 354 q 307 279 307 301 q 364 117 307 167 q 519 68 421 68 q 631 97 578 68 q 724 183 685 125 q 781 332 764 242 l 869 842 l 750 894 l 756 917 l 1079 917 l 1075 894 l 960 840 l 878 367 q 799 144 854 228 q 660 24 743 61 q 476 -14 578 -14 m 601 974 l 594 983 l 594 985 q 672 1021 647 1000 q 697 1076 697 1042 q 678 1116 697 1100 q 611 1142 658 1132 l 638 1214 q 738 1176 710 1207 q 767 1110 767 1144 q 601 974 767 1007 z "},"Ṹ":{"ha":1079,"x_min":163,"x_max":1079,"o":"m 476 -14 q 252 51 338 -14 q 167 264 167 117 q 169 313 167 288 q 176 367 172 339 l 258 839 l 163 894 l 167 917 l 521 917 l 515 894 l 400 839 l 319 381 q 310 328 314 354 q 307 279 307 301 q 364 117 307 167 q 519 68 421 68 q 631 97 578 68 q 724 183 685 125 q 781 332 764 242 l 869 842 l 750 894 l 756 917 l 1079 917 l 1075 894 l 960 840 l 878 367 q 799 144 854 228 q 660 24 743 61 q 476 -14 578 -14 z "},"Ṻ":{"ha":1079,"x_min":163,"x_max":1079,"o":"m 476 -14 q 252 51 338 -14 q 167 264 167 117 q 169 313 167 288 q 176 367 172 339 l 258 839 l 163 894 l 167 917 l 521 917 l 515 894 l 400 839 l 319 381 q 310 328 314 354 q 307 279 307 301 q 364 117 307 167 q 519 68 421 68 q 631 97 578 68 q 724 183 685 125 q 781 332 764 242 l 869 842 l 750 894 l 756 917 l 1079 917 l 1075 894 l 960 840 l 878 367 q 799 144 854 228 q 660 24 743 61 q 476 -14 578 -14 z "},"Ư":{"ha":1079,"x_min":163,"x_max":1260,"o":"m 476 -14 q 252 51 338 -14 q 167 264 167 117 q 169 313 167 288 q 176 367 172 339 l 258 839 l 163 894 l 167 917 l 521 917 l 515 894 l 400 839 l 319 381 q 312 330 314 354 q 310 283 310 306 q 369 116 310 164 q 519 68 429 68 q 625 94 571 68 q 722 178 679 121 q 781 332 764 236 l 869 842 l 750 894 l 756 917 l 1071 917 q 1133 934 1114 917 q 1158 985 1153 951 l 1165 1036 l 1175 1044 l 1228 1044 q 1252 1040 1244 1044 q 1260 1022 1260 1036 q 1219 932 1260 972 q 1100 892 1178 892 l 1071 892 l 960 840 l 878 367 q 796 143 853 226 q 657 23 739 60 q 476 -14 575 -14 z "},"Ứ":{"ha":1079,"x_min":163,"x_max":1260,"o":"m 476 -14 q 252 51 338 -14 q 167 264 167 117 q 169 313 167 288 q 176 367 172 339 l 258 839 l 163 894 l 167 917 l 521 917 l 515 894 l 400 839 l 319 381 q 312 330 314 354 q 310 283 310 306 q 369 116 310 164 q 519 68 429 68 q 625 94 571 68 q 722 178 679 121 q 781 332 764 236 l 869 842 l 750 894 l 756 917 l 1071 917 q 1133 934 1114 917 q 1158 985 1153 951 l 1165 1036 l 1175 1044 l 1228 1044 q 1252 1040 1244 1044 q 1260 1022 1260 1036 q 1219 932 1260 972 q 1100 892 1178 892 l 1071 892 l 960 840 l 878 367 q 796 143 853 226 q 657 23 739 60 q 476 -14 575 -14 m 644 986 l 788 1197 l 908 1197 q 893 1155 904 1176 q 849 1110 882 1133 l 663 986 l 644 986 z "},"Ự":{"ha":1079,"x_min":163,"x_max":1260,"o":"m 476 -14 q 252 51 338 -14 q 167 264 167 117 q 169 313 167 288 q 176 367 172 339 l 258 839 l 163 894 l 167 917 l 521 917 l 515 894 l 400 839 l 319 381 q 312 330 314 354 q 310 283 310 306 q 369 116 310 164 q 519 68 429 68 q 625 94 571 68 q 722 178 679 121 q 781 332 764 236 l 869 842 l 750 894 l 756 917 l 1071 917 q 1133 934 1114 917 q 1158 985 1153 951 l 1165 1036 l 1175 1044 l 1228 1044 q 1252 1040 1244 1044 q 1260 1022 1260 1036 q 1219 932 1260 972 q 1100 892 1178 892 l 1071 892 l 960 840 l 878 367 q 796 143 853 226 q 657 23 739 60 q 476 -14 575 -14 z "},"Ừ":{"ha":1079,"x_min":163,"x_max":1260,"o":"m 476 -14 q 252 51 338 -14 q 167 264 167 117 q 169 313 167 288 q 176 367 172 339 l 258 839 l 163 894 l 167 917 l 521 917 l 515 894 l 400 839 l 319 381 q 312 330 314 354 q 310 283 310 306 q 369 116 310 164 q 519 68 429 68 q 625 94 571 68 q 722 178 679 121 q 781 332 764 236 l 869 842 l 750 894 l 756 917 l 1071 917 q 1133 934 1114 917 q 1158 985 1153 951 l 1165 1036 l 1175 1044 l 1228 1044 q 1252 1040 1244 1044 q 1260 1022 1260 1036 q 1219 932 1260 972 q 1100 892 1178 892 l 1071 892 l 960 840 l 878 367 q 796 143 853 226 q 657 23 739 60 q 476 -14 575 -14 m 644 986 l 460 1110 q 429 1151 432 1128 q 431 1197 426 1175 l 538 1197 l 661 986 l 644 986 z "},"Ử":{"ha":1079,"x_min":163,"x_max":1260,"o":"m 476 -14 q 252 51 338 -14 q 167 264 167 117 q 169 313 167 288 q 176 367 172 339 l 258 839 l 163 894 l 167 917 l 521 917 l 515 894 l 400 839 l 319 381 q 312 330 314 354 q 310 283 310 306 q 369 116 310 164 q 519 68 429 68 q 625 94 571 68 q 722 178 679 121 q 781 332 764 236 l 869 842 l 750 894 l 756 917 l 1071 917 q 1133 934 1114 917 q 1158 985 1153 951 l 1165 1036 l 1175 1044 l 1228 1044 q 1252 1040 1244 1044 q 1260 1022 1260 1036 q 1219 932 1260 972 q 1100 892 1178 892 l 1071 892 l 960 840 l 878 367 q 796 143 853 226 q 657 23 739 60 q 476 -14 575 -14 m 601 974 l 594 983 l 594 985 q 672 1021 647 1000 q 697 1076 697 1042 q 678 1116 697 1100 q 611 1142 658 1132 l 638 1214 q 738 1176 710 1207 q 767 1110 767 1144 q 601 974 767 1007 z "},"Ữ":{"ha":1079,"x_min":163,"x_max":1260,"o":"m 476 -14 q 252 51 338 -14 q 167 264 167 117 q 169 313 167 288 q 176 367 172 339 l 258 839 l 163 894 l 167 917 l 521 917 l 515 894 l 400 839 l 319 381 q 312 330 314 354 q 310 283 310 306 q 369 116 310 164 q 519 68 429 68 q 625 94 571 68 q 722 178 679 121 q 781 332 764 236 l 869 842 l 750 894 l 756 917 l 1071 917 q 1133 934 1114 917 q 1158 985 1153 951 l 1165 1036 l 1175 1044 l 1228 1044 q 1252 1040 1244 1044 q 1260 1022 1260 1036 q 1219 932 1260 972 q 1100 892 1178 892 l 1071 892 l 960 840 l 878 367 q 796 143 853 226 q 657 23 739 60 q 476 -14 575 -14 m 450 1007 q 510 1115 485 1081 q 557 1159 535 1149 q 603 1169 579 1169 q 666 1149 639 1169 q 718 1109 693 1129 q 771 1089 743 1089 q 814 1101 793 1089 q 867 1169 835 1114 l 890 1169 q 831 1061 856 1096 q 784 1017 806 1026 q 738 1007 763 1007 q 675 1027 701 1007 q 624 1067 649 1047 q 571 1088 599 1088 q 527 1075 549 1088 q 474 1007 506 1063 l 450 1007 z "},"Ẁ":{"ha":1317,"x_min":117,"x_max":1389,"o":"m 306 -7 l 208 842 l 117 894 l 122 917 l 475 917 l 472 894 l 347 843 l 410 239 l 419 239 l 757 924 l 819 924 l 935 240 l 942 240 l 1206 846 l 1094 894 l 1099 917 l 1389 917 l 1385 894 l 1292 849 l 904 -7 l 843 -7 l 722 672 l 714 672 l 368 -7 l 306 -7 m 789 986 l 604 1110 q 574 1151 576 1128 q 575 1197 571 1175 l 682 1197 l 806 986 l 789 986 z "},"Ẃ":{"ha":1317,"x_min":117,"x_max":1389,"o":"m 306 -7 l 208 842 l 117 894 l 122 917 l 475 917 l 472 894 l 347 843 l 410 239 l 419 239 l 757 924 l 819 924 l 935 240 l 942 240 l 1206 846 l 1094 894 l 1099 917 l 1389 917 l 1385 894 l 1292 849 l 904 -7 l 843 -7 l 722 672 l 714 672 l 368 -7 l 306 -7 m 789 986 l 932 1197 l 1053 1197 q 1038 1155 1049 1176 q 993 1110 1026 1133 l 807 986 l 789 986 z "},"Ŵ":{"ha":1317,"x_min":117,"x_max":1389,"o":"m 306 -7 l 208 842 l 117 894 l 122 917 l 475 917 l 472 894 l 347 843 l 410 239 l 419 239 l 757 924 l 819 924 l 935 240 l 942 240 l 1206 846 l 1094 894 l 1099 917 l 1389 917 l 1385 894 l 1292 849 l 904 -7 l 843 -7 l 722 672 l 714 672 l 368 -7 l 306 -7 m 593 986 l 811 1197 l 857 1197 l 990 986 l 972 986 l 818 1096 l 611 986 l 593 986 z "},"Ẅ":{"ha":1317,"x_min":117,"x_max":1389,"o":"m 306 -7 l 208 842 l 117 894 l 122 917 l 475 917 l 472 894 l 347 843 l 410 239 l 419 239 l 757 924 l 819 924 l 935 240 l 942 240 l 1206 846 l 1094 894 l 1099 917 l 1389 917 l 1385 894 l 1292 849 l 904 -7 l 843 -7 l 722 672 l 714 672 l 368 -7 l 306 -7 m 696 1026 q 649 1045 668 1026 q 631 1092 631 1064 q 649 1138 631 1119 q 696 1157 668 1157 q 743 1138 724 1157 q 763 1092 763 1119 q 743 1045 763 1064 q 696 1026 724 1026 m 940 1026 q 893 1045 913 1026 q 874 1092 874 1064 q 893 1138 874 1119 q 940 1157 913 1157 q 987 1138 968 1157 q 1006 1092 1006 1119 q 987 1045 1006 1064 q 940 1026 968 1026 z "},"Ỳ":{"ha":946,"x_min":122,"x_max":1004,"o":"m 222 0 l 226 22 l 354 78 l 415 426 l 196 847 l 122 894 l 128 917 l 464 917 l 458 894 l 346 849 l 344 843 l 526 497 l 806 842 l 807 847 l 710 894 l 715 917 l 1004 917 l 1000 894 l 911 851 l 554 428 l 493 78 l 601 22 l 597 0 l 222 0 m 588 986 l 403 1110 q 372 1151 375 1128 q 374 1197 369 1175 l 481 1197 l 604 986 l 588 986 z "},"Ý":{"ha":946,"x_min":122,"x_max":1004,"o":"m 222 0 l 226 22 l 354 78 l 415 426 l 196 847 l 122 894 l 128 917 l 464 917 l 458 894 l 346 849 l 344 843 l 526 497 l 806 842 l 807 847 l 710 894 l 715 917 l 1004 917 l 1000 894 l 911 851 l 554 428 l 493 78 l 601 22 l 597 0 l 222 0 m 588 986 l 731 1197 l 851 1197 q 836 1155 847 1176 q 792 1110 825 1133 l 606 986 l 588 986 z "},"Ŷ":{"ha":946,"x_min":122,"x_max":1004,"o":"m 222 0 l 226 22 l 354 78 l 415 426 l 196 847 l 122 894 l 128 917 l 464 917 l 458 894 l 346 849 l 344 843 l 526 497 l 806 842 l 807 847 l 710 894 l 715 917 l 1004 917 l 1000 894 l 911 851 l 554 428 l 493 78 l 601 22 l 597 0 l 222 0 m 392 986 l 610 1197 l 656 1197 l 789 986 l 771 986 l 617 1096 l 410 986 l 392 986 z "},"Ÿ":{"ha":946,"x_min":122,"x_max":1004,"o":"m 222 0 l 226 22 l 354 78 l 415 426 l 196 847 l 122 894 l 128 917 l 464 917 l 458 894 l 346 849 l 344 843 l 526 497 l 806 842 l 807 847 l 710 894 l 715 917 l 1004 917 l 1000 894 l 911 851 l 554 428 l 493 78 l 601 22 l 597 0 l 222 0 m 493 1026 q 447 1045 465 1026 q 428 1092 428 1064 q 447 1138 428 1119 q 493 1157 465 1157 q 540 1138 521 1157 q 560 1092 560 1119 q 540 1045 560 1064 q 493 1026 521 1026 m 738 1026 q 690 1045 710 1026 q 671 1092 671 1064 q 690 1138 671 1119 q 738 1157 710 1157 q 784 1138 765 1157 q 803 1092 803 1119 q 784 1045 803 1064 q 738 1026 765 1026 z "},"Ỹ":{"ha":946,"x_min":122,"x_max":1004,"o":"m 222 0 l 226 22 l 354 78 l 415 426 l 196 847 l 122 894 l 128 917 l 464 917 l 458 894 l 346 849 l 344 843 l 526 497 l 806 842 l 807 847 l 710 894 l 715 917 l 1004 917 l 1000 894 l 911 851 l 554 428 l 493 78 l 601 22 l 597 0 l 222 0 m 393 1007 q 453 1115 428 1081 q 500 1159 478 1149 q 546 1169 522 1169 q 609 1149 582 1169 q 661 1109 636 1129 q 714 1089 686 1089 q 757 1101 736 1089 q 810 1169 778 1114 l 833 1169 q 774 1061 799 1096 q 727 1017 749 1026 q 681 1007 706 1007 q 618 1027 644 1007 q 567 1067 592 1047 q 514 1088 542 1088 q 470 1075 492 1088 q 417 1007 449 1063 l 393 1007 z "},"Ȳ":{"ha":946,"x_min":122,"x_max":1004,"o":"m 222 0 l 226 22 l 354 78 l 415 426 l 196 847 l 122 894 l 128 917 l 464 917 l 458 894 l 346 849 l 344 843 l 526 497 l 806 842 l 807 847 l 710 894 l 715 917 l 1004 917 l 1000 894 l 911 851 l 554 428 l 493 78 l 601 22 l 597 0 l 222 0 m 425 1061 l 438 1128 l 801 1128 l 789 1061 l 425 1061 z "},"Ỵ":{"ha":946,"x_min":122,"x_max":1004,"o":"m 222 0 l 226 22 l 354 78 l 415 426 l 196 847 l 122 894 l 128 917 l 464 917 l 458 894 l 346 849 l 344 843 l 526 497 l 806 842 l 807 847 l 710 894 l 715 917 l 1004 917 l 1000 894 l 911 851 l 554 428 l 493 78 l 601 22 l 597 0 l 222 0 z "},"Ỷ":{"ha":946,"x_min":122,"x_max":1004,"o":"m 222 0 l 226 22 l 354 78 l 415 426 l 196 847 l 122 894 l 128 917 l 464 917 l 458 894 l 346 849 l 344 843 l 526 497 l 806 842 l 807 847 l 710 894 l 715 917 l 1004 917 l 1000 894 l 911 851 l 554 428 l 493 78 l 601 22 l 597 0 l 222 0 m 544 974 l 538 983 l 538 985 q 615 1021 590 1000 q 640 1076 640 1042 q 621 1116 640 1100 q 554 1142 601 1132 l 581 1214 q 681 1176 653 1207 q 710 1110 710 1144 q 544 974 710 1007 z "},"Ẏ":{"ha":946,"x_min":122,"x_max":1004,"o":"m 222 0 l 226 22 l 354 78 l 415 426 l 196 847 l 122 894 l 128 917 l 464 917 l 458 894 l 346 849 l 344 843 l 526 497 l 806 842 l 807 847 l 710 894 l 715 917 l 1004 917 l 1000 894 l 911 851 l 554 428 l 493 78 l 601 22 l 597 0 l 222 0 m 614 1007 q 554 1031 579 1007 q 529 1092 529 1056 q 554 1151 529 1126 q 614 1176 579 1176 q 674 1151 650 1176 q 699 1092 699 1126 q 674 1031 699 1056 q 614 1007 650 1007 z "},"Ź":{"ha":856,"x_min":38,"x_max":817,"o":"m 38 0 l 46 49 l 635 846 l 311 846 l 188 654 l 165 654 l 213 917 l 817 917 l 808 868 l 218 74 l 572 74 l 697 276 l 719 276 l 671 0 l 38 0 m 519 986 l 663 1197 l 783 1197 q 768 1155 779 1176 q 724 1110 757 1133 l 538 986 l 519 986 z "},"Ž":{"ha":856,"x_min":38,"x_max":817,"o":"m 38 0 l 46 49 l 635 846 l 311 846 l 188 654 l 165 654 l 213 917 l 817 917 l 808 868 l 218 74 l 572 74 l 697 276 l 719 276 l 671 0 l 38 0 m 506 986 l 372 1197 l 390 1197 l 543 1088 l 751 1197 l 769 1197 l 551 986 l 506 986 z "},"Ż":{"ha":856,"x_min":38,"x_max":817,"o":"m 38 0 l 46 49 l 635 846 l 311 846 l 188 654 l 165 654 l 213 917 l 817 917 l 808 868 l 218 74 l 572 74 l 697 276 l 719 276 l 671 0 l 38 0 m 546 1007 q 486 1031 511 1007 q 461 1092 461 1056 q 486 1151 461 1126 q 546 1176 511 1176 q 606 1151 582 1176 q 631 1092 631 1126 q 606 1031 631 1056 q 546 1007 582 1007 z "},"Ẓ":{"ha":856,"x_min":38,"x_max":817,"o":"m 38 0 l 46 49 l 635 846 l 311 846 l 188 654 l 165 654 l 213 917 l 817 917 l 808 868 l 218 74 l 572 74 l 697 276 l 719 276 l 671 0 l 38 0 z "},"Ə":{"ha":871,"x_min":60,"x_max":810,"o":"m 339 -14 q 133 65 207 -14 q 60 289 60 144 q 62 346 60 317 q 69 407 64 375 l 82 417 l 665 417 q 675 550 675 481 q 614 756 675 681 q 421 831 553 831 q 266 796 335 831 q 129 700 197 761 l 124 700 l 128 732 q 279 874 185 818 q 486 931 374 931 q 726 840 642 931 q 810 594 810 750 q 776 360 810 471 q 678 166 742 250 q 529 34 615 82 q 339 -14 443 -14 m 189 288 q 226 122 189 185 q 364 58 264 58 q 548 138 475 58 q 653 346 621 218 l 192 346 q 190 316 192 331 q 189 288 189 301 z "},"Ŋ":{"ha":1069,"x_min":6,"x_max":1074,"o":"m 6 0 l 10 22 l 128 78 l 261 836 l 164 894 l 168 917 l 375 917 l 760 243 l 865 840 l 733 894 l 739 917 l 1074 917 l 1069 894 l 953 839 l 800 -31 q 750 -187 783 -131 q 675 -276 717 -244 q 594 -318 642 -303 q 503 -333 547 -333 q 472 -325 481 -333 q 468 -294 463 -317 l 486 -215 l 493 -210 l 538 -210 q 656 -175 619 -210 q 707 -54 692 -140 l 722 28 l 328 713 l 215 78 l 346 22 l 340 0 l 6 0 z "},"Ð":{"ha":1022,"x_min":4,"x_max":956,"o":"m 4 0 l 8 22 l 124 78 l 188 446 l 85 446 l 96 506 l 199 506 l 257 839 l 161 894 l 165 917 l 489 917 q 756 869 653 917 q 907 735 858 821 q 956 540 956 650 q 921 357 956 451 q 817 181 886 263 q 642 50 747 100 q 393 0 536 0 l 4 0 m 546 446 l 328 446 l 261 69 l 404 69 q 623 126 533 69 q 759 287 713 183 q 806 529 806 390 q 723 760 806 675 q 467 846 640 846 l 399 846 l 339 506 l 557 506 l 546 446 z "},"Þ":{"ha":864,"x_min":4,"x_max":804,"o":"m 517 917 l 513 894 l 399 839 l 381 733 l 460 733 q 712 678 619 733 q 804 508 804 624 q 756 369 804 433 q 615 264 707 304 q 392 224 522 224 l 290 224 l 264 78 l 369 22 l 365 0 l 4 0 l 8 22 l 125 78 l 258 839 l 157 894 l 161 917 l 517 917 m 443 663 l 368 663 l 301 292 l 421 292 q 595 350 539 292 q 651 499 651 408 q 597 623 651 583 q 443 663 543 663 z "},"Ǆ":{"ha":1867,"x_min":4,"x_max":1828,"o":"m 4 0 l 8 22 l 124 78 l 257 839 l 161 894 l 165 917 l 489 917 q 756 869 653 917 q 907 735 858 821 q 956 540 956 650 q 921 357 956 451 q 817 181 886 263 q 642 50 747 100 q 393 0 536 0 l 4 0 m 467 846 l 399 846 l 261 69 l 404 69 q 623 126 533 69 q 759 287 713 183 q 806 529 806 390 q 723 760 806 675 q 467 846 640 846 m 1049 0 l 1057 49 l 1646 846 l 1322 846 l 1199 654 l 1176 654 l 1224 917 l 1828 917 l 1819 868 l 1229 74 l 1583 74 l 1708 276 l 1731 276 l 1682 0 l 1049 0 m 1517 986 l 1383 1197 l 1401 1197 l 1554 1088 l 1763 1197 l 1781 1197 l 1563 986 l 1517 986 z "},"Ǉ":{"ha":1350,"x_min":4,"x_max":1353,"o":"m 4 0 l 8 22 l 125 78 l 258 839 l 161 894 l 165 917 l 532 917 l 528 894 l 399 839 l 264 71 l 568 71 l 706 314 l 728 314 l 671 0 l 4 0 m 774 -240 q 740 -226 753 -240 q 739 -179 728 -212 l 758 -118 l 767 -118 q 801 -128 788 -125 q 832 -131 814 -131 q 883 -117 860 -131 q 925 -58 907 -103 q 960 79 943 -14 l 1094 839 l 996 894 l 1000 917 l 1353 917 l 1349 894 l 1235 839 l 1144 331 q 1067 56 1118 176 q 947 -131 1017 -64 q 873 -200 901 -176 q 823 -232 844 -224 q 774 -240 801 -240 z "},"Ǌ":{"ha":1586,"x_min":6,"x_max":1589,"o":"m 6 0 l 10 22 l 128 78 l 261 836 l 164 894 l 168 917 l 375 917 l 760 243 l 865 840 l 733 894 l 739 917 l 1074 917 l 1069 894 l 953 839 l 804 -7 l 742 -7 l 328 713 l 215 78 l 346 22 l 340 0 l 6 0 m 1010 -240 q 976 -226 989 -240 q 975 -179 964 -212 l 994 -118 l 1003 -118 q 1037 -128 1024 -125 q 1068 -131 1050 -131 q 1119 -117 1096 -131 q 1161 -58 1143 -103 q 1196 79 1179 -14 l 1331 839 l 1232 894 l 1236 917 l 1589 917 l 1585 894 l 1471 839 l 1381 331 q 1303 56 1354 176 q 1183 -131 1253 -64 q 1109 -200 1138 -176 q 1059 -232 1081 -224 q 1010 -240 1038 -240 z "},"Ђ":{"ha":1099,"x_min":97,"x_max":1000,"o":"m 157 0 l 163 22 l 304 78 l 442 846 l 250 846 l 119 629 l 97 629 l 146 917 l 926 917 l 875 636 l 853 636 l 799 846 l 582 846 l 513 460 q 621 511 557 490 q 754 532 685 532 q 941 458 882 532 q 975 243 1000 383 q 935 99 963 171 q 872 -35 908 26 q 796 -133 836 -96 q 719 -199 750 -176 q 664 -231 689 -222 q 610 -240 639 -240 q 580 -232 592 -240 q 571 -201 568 -224 q 578 -180 572 -194 q 601 -118 583 -165 l 611 -118 q 645 -127 633 -125 q 675 -129 657 -129 q 728 -116 704 -129 q 770 -60 751 -103 q 804 72 789 -17 l 829 217 q 815 386 850 336 q 679 436 779 436 q 501 392 576 436 l 444 78 l 568 22 l 564 0 l 157 0 z "},"Є":{"ha":928,"x_min":78,"x_max":871,"o":"m 447 -14 q 248 34 331 -14 q 122 166 165 82 q 78 360 78 250 q 121 580 78 476 q 239 763 164 683 q 412 886 314 842 q 619 931 510 931 q 754 915 700 931 q 871 864 808 900 l 838 617 l 814 617 l 749 801 q 684 850 717 833 q 603 867 651 867 q 428 819 503 867 q 305 690 353 771 q 239 507 257 608 l 546 507 l 639 624 l 661 624 l 607 322 l 585 322 l 533 436 l 229 436 q 228 385 228 411 q 299 140 228 228 q 483 51 369 51 q 586 72 539 51 q 672 118 633 93 l 794 281 l 818 281 l 764 56 q 628 5 700 24 q 447 -14 556 -14 z "},"Ѕ":{"ha":700,"x_min":7,"x_max":657,"o":"m 258 -14 q 120 3 176 -14 q 7 51 64 19 l 33 282 l 57 282 l 115 114 q 265 47 183 47 q 410 101 358 47 q 461 242 461 156 q 445 310 461 281 q 391 368 429 339 q 288 435 353 397 q 174 529 210 479 q 138 650 138 579 q 181 792 138 729 q 296 893 225 856 q 446 931 367 931 q 559 915 508 931 q 657 871 610 899 l 632 649 l 610 649 l 553 811 q 500 850 531 833 q 422 867 469 867 q 311 818 358 867 q 264 690 264 769 q 294 604 264 642 q 401 524 325 567 q 515 448 472 483 q 576 373 557 413 q 594 281 594 333 q 548 128 594 194 q 424 24 501 63 q 258 -14 347 -14 z "},"І":{"ha":513,"x_min":4,"x_max":508,"o":"m 4 0 l 8 22 l 117 78 l 251 839 l 150 894 l 154 917 l 508 917 l 504 894 l 390 839 l 256 78 l 361 22 l 357 0 l 4 0 z "},"Ї":{"ha":513,"x_min":4,"x_max":551,"o":"m 4 0 l 8 22 l 117 78 l 251 839 l 150 894 l 154 917 l 508 917 l 504 894 l 390 839 l 256 78 l 361 22 l 357 0 l 4 0 m 242 1026 q 195 1045 214 1026 q 176 1092 176 1064 q 195 1138 176 1119 q 242 1157 214 1157 q 289 1138 269 1157 q 308 1092 308 1119 q 289 1045 308 1064 q 242 1026 269 1026 m 486 1026 q 439 1045 458 1026 q 419 1092 419 1064 q 439 1138 419 1119 q 486 1157 458 1157 q 533 1138 514 1157 q 551 1092 551 1119 q 533 1045 551 1064 q 486 1026 514 1026 z "},"Ј":{"ha":526,"x_min":-96,"x_max":529,"o":"m -50 -240 q -83 -226 -71 -240 q -85 -179 -96 -212 l -65 -118 l -57 -118 q -23 -128 -36 -125 q 8 -131 -10 -131 q 60 -117 36 -131 q 101 -58 83 -103 q 136 79 119 -14 l 271 839 l 172 894 l 176 917 l 529 917 l 525 894 l 411 839 l 321 331 q 244 56 294 176 q 124 -131 193 -64 q 49 -200 78 -176 q -1 -232 21 -224 q -50 -240 -22 -240 z "},"Љ":{"ha":1346,"x_min":-22,"x_max":1267,"o":"m 404 754 q 323 385 365 533 q 224 138 281 238 q 121 17 172 47 q 22 -14 69 -14 q -15 -6 -8 -14 q -18 26 -22 3 l -3 111 l 4 118 l 18 118 q 149 197 92 118 q 249 419 206 276 q 324 754 292 561 l 338 839 l 235 894 l 239 917 l 981 917 l 976 894 l 849 839 l 796 542 l 925 542 q 1179 475 1092 542 q 1267 290 1267 408 q 1218 140 1267 206 q 1074 38 1169 75 q 838 0 978 0 l 463 0 l 467 22 l 575 79 l 710 846 l 419 846 l 404 754 m 713 71 l 840 71 q 1049 131 979 71 q 1119 289 1119 192 q 894 471 1119 471 l 783 471 l 713 71 z "},"Њ":{"ha":1439,"x_min":4,"x_max":1360,"o":"m 4 0 l 8 22 l 117 78 l 251 839 l 150 894 l 154 917 l 506 917 l 501 894 l 390 839 l 333 521 l 744 521 l 801 839 l 701 894 l 706 917 l 1074 917 l 1069 894 l 942 839 l 885 521 l 1017 521 q 1272 459 1185 521 q 1360 285 1360 397 q 1311 138 1360 203 q 1167 37 1263 74 q 931 0 1071 0 l 554 0 l 558 22 l 667 79 l 732 450 l 321 450 l 256 78 l 360 22 l 356 0 l 4 0 m 806 71 l 933 71 q 1142 129 1072 71 q 1213 283 1213 188 q 986 450 1213 450 l 872 450 l 806 71 z "},"Ћ":{"ha":1178,"x_min":97,"x_max":1036,"o":"m 157 0 l 163 22 l 304 78 l 442 846 l 250 846 l 119 629 l 97 629 l 146 917 l 926 917 l 875 636 l 853 636 l 799 846 l 582 846 l 513 460 q 621 511 557 490 q 754 532 685 532 q 931 464 872 532 q 964 254 989 396 l 933 78 l 1036 22 l 1032 0 l 778 0 l 821 243 q 806 390 838 344 q 678 436 774 436 q 584 425 629 436 q 501 392 539 414 l 444 78 l 568 22 l 564 0 l 157 0 z "},"Џ":{"ha":1060,"x_min":4,"x_max":1056,"o":"m 369 0 l 4 0 l 8 22 l 122 78 l 256 839 l 150 894 l 154 917 l 506 917 l 501 894 l 396 839 l 260 71 l 668 71 l 804 839 l 700 894 l 704 917 l 1056 917 l 1051 894 l 943 839 l 808 78 l 910 22 l 906 0 l 529 0 l 419 -235 l 397 -235 l 369 0 z "},"А":{"ha":994,"x_min":-28,"x_max":886,"o":"m -28 0 l -24 22 l 58 67 l 547 924 l 622 924 l 803 72 l 886 22 l 881 0 l 531 0 l 533 22 l 658 71 l 610 322 l 285 322 l 142 67 l 253 22 l 249 0 l -28 0 m 325 393 l 594 393 l 525 749 l 325 393 z "},"Б":{"ha":892,"x_min":4,"x_max":815,"o":"m 154 917 l 815 917 l 774 678 l 751 678 l 696 846 l 392 846 l 335 526 l 467 526 q 717 463 631 526 q 804 283 804 399 q 756 138 804 201 q 614 37 708 74 q 381 0 519 0 l 4 0 l 8 22 l 117 79 l 251 839 l 150 894 l 154 917 m 254 71 l 382 71 q 588 129 518 71 q 657 282 657 188 q 436 457 657 457 l 322 457 l 254 71 z "},"В":{"ha":882,"x_min":4,"x_max":800,"o":"m 4 0 l 8 22 l 125 78 l 258 839 l 161 894 l 165 917 l 490 917 q 712 869 629 917 q 794 724 794 821 q 738 583 794 649 q 579 492 682 517 q 744 419 689 474 q 800 279 800 364 q 756 147 800 211 q 622 42 711 83 q 400 0 533 0 l 4 0 m 472 846 l 399 846 l 339 507 l 417 507 q 588 562 531 507 q 644 697 644 617 q 605 808 644 769 q 472 846 565 846 m 438 439 l 328 439 l 263 71 l 401 71 q 587 129 526 71 q 647 279 647 188 q 597 400 647 361 q 438 439 547 439 z "},"Г":{"ha":821,"x_min":4,"x_max":799,"o":"m 4 0 l 8 22 l 125 78 l 258 839 l 161 894 l 165 917 l 799 917 l 757 678 l 735 678 l 679 846 l 400 846 l 264 78 l 390 22 l 386 0 l 4 0 z "},"Ѓ":{"ha":821,"x_min":4,"x_max":799,"o":"m 4 0 l 8 22 l 125 78 l 258 839 l 161 894 l 165 917 l 799 917 l 757 678 l 735 678 l 679 846 l 400 846 l 264 78 l 390 22 l 386 0 l 4 0 z "},"Ғ":{"ha":819,"x_min":3,"x_max":797,"o":"m 3 0 l 7 22 l 124 78 l 188 446 l 83 446 l 94 506 l 199 506 l 257 839 l 160 894 l 164 917 l 797 917 l 756 678 l 733 678 l 678 846 l 399 846 l 339 506 l 565 506 l 554 446 l 328 446 l 263 78 l 389 22 l 385 0 l 3 0 z "},"Д":{"ha":1039,"x_min":-56,"x_max":1011,"o":"m 125 0 l -33 -235 l -56 -235 l -3 71 l 97 71 q 191 263 151 163 q 262 483 231 363 q 321 754 293 603 l 336 839 l 232 894 l 236 917 l 1011 917 l 1007 894 l 893 839 l 758 71 l 894 71 l 840 -235 l 818 -235 l 746 0 l 125 0 m 403 754 q 347 483 376 604 q 278 262 317 363 q 190 71 240 161 l 618 71 l 756 846 l 419 846 l 403 754 z "},"Е":{"ha":864,"x_min":4,"x_max":819,"o":"m 4 0 l 8 22 l 125 78 l 258 839 l 161 894 l 165 917 l 819 917 l 776 678 l 754 678 l 700 846 l 400 846 l 340 507 l 553 507 l 643 626 l 665 626 l 611 322 l 589 322 l 542 439 l 328 439 l 263 71 l 617 71 l 736 263 l 758 263 l 711 0 l 4 0 z "},"Ё":{"ha":864,"x_min":4,"x_max":819,"o":"m 4 0 l 8 22 l 125 78 l 258 839 l 161 894 l 165 917 l 819 917 l 776 678 l 754 678 l 700 846 l 400 846 l 340 507 l 553 507 l 643 626 l 665 626 l 611 322 l 589 322 l 542 439 l 328 439 l 263 71 l 617 71 l 736 263 l 758 263 l 711 0 l 4 0 m 447 1026 q 401 1045 419 1026 q 382 1092 382 1064 q 401 1138 382 1119 q 447 1157 419 1157 q 494 1138 475 1157 q 514 1092 514 1119 q 494 1045 514 1064 q 447 1026 475 1026 m 692 1026 q 644 1045 664 1026 q 625 1092 625 1064 q 644 1138 625 1119 q 692 1157 664 1157 q 738 1138 719 1157 q 757 1092 757 1119 q 738 1045 757 1064 q 692 1026 719 1026 z "},"Ж":{"ha":1414,"x_min":-42,"x_max":1407,"o":"m 463 0 l 465 22 l 582 78 l 714 839 l 619 894 l 622 917 l 975 917 l 971 894 l 856 839 l 722 78 l 818 22 l 814 0 l 463 0 m 1107 0 l 792 468 l 1207 847 l 1119 894 l 1124 917 l 1407 917 l 1401 894 l 1317 863 l 924 504 l 1222 72 l 1306 22 l 1301 0 l 1107 0 m 168 0 l -42 0 l -37 22 l 67 72 l 524 513 l 265 860 l 185 894 l 188 917 l 474 917 l 469 894 l 368 847 l 647 468 l 168 0 z "},"З":{"ha":871,"x_min":64,"x_max":789,"o":"m 499 867 q 416 855 453 867 q 339 814 379 843 l 200 619 l 175 619 l 228 867 q 356 913 290 894 q 522 931 421 931 q 673 902 614 931 q 760 827 732 874 q 789 726 789 781 q 762 624 789 675 q 681 535 735 574 q 550 479 628 496 q 710 410 658 463 q 763 281 763 357 q 715 141 763 208 q 578 30 667 74 q 364 -14 489 -14 q 185 6 253 -14 q 64 56 117 25 l 88 281 l 111 281 l 190 101 q 256 66 217 81 q 361 51 294 51 q 498 83 443 51 q 581 163 553 114 q 608 264 608 211 q 558 390 608 343 q 401 438 508 438 l 297 438 l 311 508 l 411 508 q 535 541 485 508 q 613 623 586 574 q 639 722 639 672 q 604 824 639 781 q 499 867 569 867 z "},"И":{"ha":1088,"x_min":4,"x_max":1083,"o":"m 4 0 l 8 22 l 117 78 l 251 839 l 150 894 l 154 917 l 506 917 l 501 894 l 390 839 l 285 242 l 814 771 l 826 839 l 729 894 l 733 917 l 1083 917 l 1079 894 l 967 839 l 832 78 l 938 22 l 933 0 l 582 0 l 586 22 l 692 78 l 794 656 l 264 126 l 256 78 l 360 22 l 356 0 l 4 0 z "},"Й":{"ha":1088,"x_min":4,"x_max":1083,"o":"m 4 0 l 8 22 l 117 78 l 251 839 l 150 894 l 154 917 l 506 917 l 501 894 l 390 839 l 285 242 l 814 771 l 826 839 l 729 894 l 733 917 l 1083 917 l 1079 894 l 967 839 l 832 78 l 938 22 l 933 0 l 582 0 l 586 22 l 692 78 l 794 656 l 264 126 l 256 78 l 360 22 l 356 0 l 4 0 m 428 1197 l 553 1197 q 558 1074 540 1124 q 635 1025 575 1025 q 731 1074 696 1025 q 778 1197 765 1124 l 903 1197 q 817 1047 889 1108 q 629 986 746 986 q 463 1047 513 986 q 428 1197 414 1108 z "},"Ӣ":{"ha":1088,"x_min":4,"x_max":1083,"o":"m 4 0 l 8 22 l 117 78 l 251 839 l 150 894 l 154 917 l 506 917 l 501 894 l 390 839 l 285 242 l 814 771 l 826 839 l 729 894 l 733 917 l 1083 917 l 1079 894 l 967 839 l 832 78 l 938 22 l 933 0 l 582 0 l 586 22 l 692 78 l 794 656 l 264 126 l 256 78 l 360 22 l 356 0 l 4 0 z "},"К":{"ha":981,"x_min":4,"x_max":963,"o":"m 4 0 l 8 22 l 125 78 l 258 839 l 161 894 l 165 917 l 519 917 l 514 894 l 399 839 l 264 78 l 363 22 l 357 0 l 4 0 m 661 0 l 335 468 l 761 847 l 674 894 l 678 917 l 963 917 l 957 894 l 872 863 l 469 507 l 786 72 l 869 22 l 865 0 l 661 0 z "},"Ќ":{"ha":981,"x_min":4,"x_max":963,"o":"m 4 0 l 8 22 l 125 78 l 258 839 l 161 894 l 165 917 l 519 917 l 514 894 l 399 839 l 264 78 l 363 22 l 357 0 l 4 0 m 661 0 l 335 468 l 761 847 l 674 894 l 678 917 l 963 917 l 957 894 l 872 863 l 469 507 l 786 72 l 869 22 l 865 0 l 661 0 z "},"Л":{"ha":999,"x_min":-22,"x_max":994,"o":"m 490 0 l 494 22 l 603 78 l 739 846 l 419 846 l 404 754 q 323 385 365 533 q 224 138 281 238 q 121 17 172 47 q 22 -14 69 -14 q -15 -6 -8 -14 q -18 26 -22 3 l -3 111 l 4 118 l 18 118 q 149 197 92 118 q 249 419 206 276 q 324 754 292 561 l 338 839 l 235 894 l 239 917 l 994 917 l 990 894 l 876 839 l 743 78 l 849 22 l 844 0 l 490 0 z "},"М":{"ha":1285,"x_min":4,"x_max":1274,"o":"m 4 0 l 8 22 l 124 78 l 288 838 l 172 894 l 178 917 l 446 917 l 621 196 l 1019 917 l 1274 917 l 1268 894 l 1153 840 l 1064 78 l 1149 22 l 1144 0 l 814 0 l 818 22 l 925 76 l 1006 744 l 588 -7 l 526 -7 l 346 750 l 207 76 l 306 22 l 301 0 l 4 0 z "},"Н":{"ha":1074,"x_min":4,"x_max":1069,"o":"m 4 0 l 8 22 l 117 78 l 251 839 l 150 894 l 154 917 l 506 917 l 501 894 l 390 839 l 332 508 l 754 508 l 813 839 l 715 894 l 719 917 l 1069 917 l 1065 894 l 953 839 l 818 78 l 924 22 l 919 0 l 568 0 l 572 22 l 678 78 l 742 438 l 319 438 l 256 78 l 360 22 l 356 0 l 4 0 z "},"О":{"ha":1067,"x_min":78,"x_max":989,"o":"m 463 -14 q 259 37 346 -14 q 125 178 172 88 q 78 389 78 269 q 117 593 78 496 q 228 767 157 690 q 394 888 299 843 q 603 932 490 932 q 808 881 721 932 q 942 738 894 829 q 989 528 989 647 q 950 326 989 424 q 841 152 911 229 q 674 31 771 75 q 463 -14 578 -14 m 501 54 q 639 92 576 54 q 747 194 701 129 q 817 344 792 258 q 842 525 842 429 q 808 703 842 626 q 714 824 775 781 q 569 867 653 867 q 432 830 494 867 q 324 728 369 793 q 253 578 278 664 q 228 394 228 492 q 262 217 228 294 q 358 97 296 140 q 501 54 419 54 z "},"П":{"ha":1060,"x_min":4,"x_max":1056,"o":"m 4 0 l 8 22 l 117 78 l 251 839 l 150 894 l 154 917 l 1056 917 l 1051 894 l 939 839 l 804 78 l 910 22 l 906 0 l 554 0 l 558 22 l 664 78 l 800 846 l 392 846 l 256 78 l 360 22 l 356 0 l 4 0 z "},"Р":{"ha":868,"x_min":4,"x_max":833,"o":"m 4 0 l 8 22 l 125 78 l 258 839 l 161 894 l 165 917 l 489 917 q 741 862 649 917 q 833 692 833 807 q 785 552 833 617 q 644 448 736 488 q 421 408 553 408 l 322 408 l 264 78 l 378 22 l 374 0 l 4 0 m 399 846 l 333 476 l 450 476 q 626 535 569 476 q 682 683 682 593 q 627 807 682 768 q 472 846 572 846 l 399 846 z "},"С":{"ha":928,"x_min":78,"x_max":871,"o":"m 447 -14 q 248 34 331 -14 q 122 166 165 82 q 78 360 78 250 q 121 580 78 476 q 239 763 164 683 q 412 886 314 842 q 619 931 510 931 q 754 915 700 931 q 871 864 808 900 l 838 617 l 814 617 l 749 801 q 684 850 717 833 q 603 867 651 867 q 444 828 514 867 q 326 723 375 790 q 253 569 278 656 q 228 385 228 482 q 299 140 228 228 q 483 51 369 51 q 586 72 539 51 q 672 118 633 93 l 794 281 l 818 281 l 764 56 q 628 5 700 24 q 447 -14 556 -14 z "},"Т":{"ha":893,"x_min":97,"x_max":926,"o":"m 171 0 l 176 22 l 318 78 l 456 846 l 250 846 l 119 629 l 97 629 l 146 917 l 926 917 l 875 629 l 853 629 l 799 846 l 596 846 l 458 78 l 582 22 l 578 0 l 171 0 z "},"У":{"ha":963,"x_min":106,"x_max":1021,"o":"m 553 286 q 423 108 478 174 q 319 14 368 42 q 215 -14 271 -14 q 177 -6 183 -14 q 175 26 171 3 l 192 111 l 197 118 l 215 118 q 324 141 281 118 q 404 213 367 164 l 200 840 l 106 894 l 110 917 l 464 917 l 460 894 l 338 844 l 336 838 l 493 354 l 507 354 l 825 840 l 825 847 l 722 894 l 726 917 l 1021 917 l 1017 894 l 931 851 l 553 286 z "},"Ў":{"ha":963,"x_min":106,"x_max":1021,"o":"m 553 286 q 423 108 478 174 q 319 14 368 42 q 215 -14 271 -14 q 177 -6 183 -14 q 175 26 171 3 l 192 111 l 197 118 l 215 118 q 324 141 281 118 q 404 213 367 164 l 200 840 l 106 894 l 110 917 l 464 917 l 460 894 l 338 844 l 336 838 l 493 354 l 507 354 l 825 840 l 825 847 l 722 894 l 726 917 l 1021 917 l 1017 894 l 931 851 l 553 286 m 407 1197 l 532 1197 q 537 1074 519 1124 q 614 1025 554 1025 q 710 1074 675 1025 q 757 1197 744 1124 l 882 1197 q 797 1047 868 1108 q 608 986 725 986 q 442 1047 492 986 q 407 1197 393 1108 z "},"Ӯ":{"ha":963,"x_min":106,"x_max":1021,"o":"m 553 286 q 423 108 478 174 q 319 14 368 42 q 215 -14 271 -14 q 177 -6 183 -14 q 175 26 171 3 l 192 111 l 197 118 l 215 118 q 324 141 281 118 q 404 213 367 164 l 200 840 l 106 894 l 110 917 l 464 917 l 460 894 l 338 844 l 336 838 l 493 354 l 507 354 l 825 840 l 825 847 l 722 894 l 726 917 l 1021 917 l 1017 894 l 931 851 l 553 286 z "},"Ф":{"ha":1178,"x_min":47,"x_max":1124,"o":"m 329 -28 l 333 -6 l 444 50 l 456 111 q 150 197 253 117 q 47 415 47 276 q 110 605 47 518 q 292 746 174 692 q 576 806 411 800 l 588 867 l 485 922 l 489 944 l 847 944 l 843 922 l 726 867 l 715 806 q 1022 720 919 800 q 1124 501 1124 640 q 1060 312 1124 399 q 878 171 997 225 q 596 111 760 117 l 585 50 l 692 -6 l 688 -28 l 329 -28 m 976 490 q 906 671 976 606 q 706 743 835 736 l 606 174 q 812 217 729 175 q 935 331 894 260 q 976 490 976 403 m 194 426 q 266 246 194 311 q 467 174 338 181 l 565 743 q 359 699 442 742 q 235 585 276 657 q 194 426 194 514 z "},"Х":{"ha":979,"x_min":-40,"x_max":1004,"o":"m -40 0 l -35 22 l 69 72 l 428 461 l 219 847 l 143 894 l 147 917 l 499 917 l 494 894 l 368 847 l 368 840 l 535 539 l 807 840 l 807 846 l 711 894 l 715 917 l 1004 917 l 1000 894 l 913 849 l 569 476 l 793 72 l 875 22 l 871 0 l 514 0 l 517 22 l 635 69 l 636 75 l 463 397 l 171 76 l 169 71 l 272 22 l 268 0 l -40 0 z "},"Ц":{"ha":1083,"x_min":4,"x_max":1056,"o":"m 804 0 l 4 0 l 8 22 l 122 78 l 256 839 l 150 894 l 154 917 l 506 917 l 501 894 l 396 839 l 260 71 l 668 71 l 804 839 l 700 894 l 704 917 l 1056 917 l 1051 894 l 943 839 l 807 71 l 944 71 l 890 -235 l 868 -235 l 804 0 z "},"Ч":{"ha":1010,"x_min":106,"x_max":1007,"o":"m 504 0 l 508 22 l 615 78 l 676 422 q 576 394 629 406 q 464 382 524 382 q 287 411 358 382 q 187 508 215 440 q 179 689 158 575 l 207 839 l 106 894 l 110 917 l 461 917 l 457 894 l 346 839 l 318 688 q 336 510 294 561 q 488 458 378 458 q 592 465 543 458 q 689 490 640 472 l 750 839 l 651 894 l 656 917 l 1007 917 l 1003 894 l 889 839 l 754 78 l 860 22 l 856 0 l 504 0 z "},"Ш":{"ha":1464,"x_min":4,"x_max":1460,"o":"m 506 917 l 501 894 l 396 839 l 260 71 l 596 71 l 732 839 l 628 894 l 632 917 l 983 917 l 979 894 l 872 839 l 736 71 l 1072 71 l 1208 839 l 1104 894 l 1108 917 l 1460 917 l 1456 894 l 1347 839 l 1213 78 l 1314 22 l 1310 0 l 4 0 l 8 22 l 122 78 l 256 839 l 150 894 l 154 917 l 506 917 z "},"Щ":{"ha":1486,"x_min":4,"x_max":1460,"o":"m 506 917 l 501 894 l 396 839 l 260 71 l 596 71 l 732 839 l 628 894 l 632 917 l 983 917 l 979 894 l 872 839 l 736 71 l 1072 71 l 1208 839 l 1104 894 l 1108 917 l 1460 917 l 1456 894 l 1347 839 l 1211 71 l 1349 71 l 1294 -235 l 1272 -235 l 1208 0 l 4 0 l 8 22 l 122 78 l 256 839 l 150 894 l 154 917 l 506 917 z "},"Ъ":{"ha":1022,"x_min":85,"x_max":943,"o":"m 657 917 l 653 894 l 525 839 l 472 542 l 600 542 q 856 475 768 542 q 943 290 943 408 q 894 140 943 206 q 750 38 846 75 q 514 0 654 0 l 138 0 l 142 22 l 250 79 l 386 846 l 243 846 l 107 629 l 85 629 l 136 917 l 657 917 m 389 71 l 517 71 q 726 131 656 71 q 796 289 796 192 q 569 471 796 471 l 460 471 l 389 71 z "},"Ы":{"ha":1400,"x_min":4,"x_max":1396,"o":"m 154 917 l 522 917 l 518 894 l 390 839 l 338 542 l 467 542 q 721 475 633 542 q 808 290 808 408 q 760 140 808 206 q 616 38 711 75 q 381 0 521 0 l 4 0 l 8 22 l 117 79 l 251 839 l 150 894 l 154 917 m 254 71 l 382 71 q 592 131 522 71 q 661 289 661 192 q 436 471 661 471 l 325 471 l 254 71 m 892 0 l 896 22 l 1004 78 l 1139 839 l 1038 894 l 1042 917 l 1396 917 l 1392 894 l 1278 839 l 1143 78 l 1249 22 l 1244 0 l 892 0 z "},"Ь":{"ha":888,"x_min":4,"x_max":808,"o":"m 154 917 l 522 917 l 518 894 l 390 839 l 338 542 l 467 542 q 721 475 633 542 q 808 290 808 408 q 760 140 808 206 q 616 38 711 75 q 381 0 521 0 l 4 0 l 8 22 l 117 79 l 251 839 l 150 894 l 154 917 m 254 71 l 382 71 q 592 131 522 71 q 661 289 661 192 q 436 471 661 471 l 325 471 l 254 71 z "},"Э":{"ha":940,"x_min":64,"x_max":861,"o":"m 368 622 l 419 508 l 711 508 q 711 529 711 518 q 642 777 711 689 q 463 865 574 865 q 369 845 413 865 q 288 799 325 825 l 165 636 l 142 636 l 196 861 q 326 911 257 892 q 492 931 394 931 q 692 883 610 931 q 818 751 775 836 q 861 557 861 667 q 819 329 861 433 q 703 148 776 225 q 534 28 629 71 q 332 -14 439 -14 q 226 -7 271 -14 q 144 15 182 0 q 64 53 106 29 l 99 300 l 121 300 l 186 115 q 253 67 218 83 q 346 50 288 50 q 523 101 447 50 q 645 240 599 151 q 706 438 692 328 l 407 438 l 314 321 l 292 321 l 346 622 l 368 622 z "},"Ю":{"ha":1436,"x_min":4,"x_max":1357,"o":"m 4 0 l 8 22 l 117 78 l 251 839 l 150 894 l 154 917 l 506 917 l 501 894 l 390 839 l 332 508 l 488 508 q 584 722 514 625 q 757 875 654 818 q 985 932 860 932 q 1182 881 1099 932 q 1311 738 1265 829 q 1357 528 1357 647 q 1319 326 1357 424 q 1214 152 1282 229 q 1052 31 1146 75 q 846 -14 958 -14 q 649 37 732 -14 q 520 178 565 88 q 475 389 475 269 q 478 438 475 414 l 319 438 l 256 78 l 360 22 l 356 0 l 4 0 m 885 54 q 1017 92 957 54 q 1119 194 1076 129 q 1186 344 1163 258 q 1210 525 1210 429 q 1178 703 1210 626 q 1089 824 1147 781 q 953 867 1031 867 q 821 830 881 867 q 717 728 761 793 q 648 578 672 664 q 624 394 624 492 q 656 217 624 294 q 747 97 689 140 q 885 54 806 54 z "},"Я":{"ha":963,"x_min":-39,"x_max":958,"o":"m 179 0 l -39 0 l -35 22 l 68 74 l 375 417 q 235 496 282 439 q 188 635 188 553 q 297 838 188 758 q 617 917 406 917 l 958 917 l 954 894 l 846 838 l 711 78 l 811 22 l 807 0 l 443 0 l 447 22 l 572 78 l 628 394 l 513 394 l 179 0 m 561 464 l 640 464 l 707 846 l 614 846 q 405 788 475 846 q 335 635 335 731 q 561 464 335 464 z "},"Ґ":{"ha":818,"x_min":4,"x_max":838,"o":"m 4 0 l 8 22 l 125 78 l 258 839 l 161 894 l 165 917 l 664 917 l 815 1151 l 838 1151 l 786 846 l 400 846 l 264 78 l 390 22 l 386 0 l 4 0 z "},"Қ":{"ha":1008,"x_min":4,"x_max":963,"o":"m 4 0 l 8 22 l 125 78 l 258 839 l 161 894 l 165 917 l 519 917 l 514 894 l 399 839 l 264 78 l 363 22 l 357 0 l 4 0 m 661 0 l 335 468 l 761 847 l 674 894 l 678 917 l 963 917 l 957 894 l 872 863 l 469 507 l 789 71 l 922 71 l 869 -235 l 847 -235 l 783 0 l 661 0 z "},"Җ":{"ha":1442,"x_min":-42,"x_max":1407,"o":"m 463 0 l 465 22 l 582 78 l 714 839 l 619 894 l 622 917 l 975 917 l 971 894 l 856 839 l 722 78 l 818 22 l 814 0 l 463 0 m 1107 0 l 792 468 l 1207 847 l 1119 894 l 1124 917 l 1407 917 l 1401 894 l 1317 863 l 924 504 l 1224 71 l 1357 71 l 1304 -235 l 1282 -235 l 1218 0 l 1107 0 m 168 0 l -42 0 l -37 22 l 63 72 l 521 515 l 265 860 l 185 894 l 188 917 l 474 917 l 469 894 l 368 847 l 647 468 l 168 0 z "},"Ҳ":{"ha":1017,"x_min":-40,"x_max":1004,"o":"m -40 0 l -35 22 l 69 72 l 428 461 l 219 847 l 143 894 l 147 917 l 499 917 l 494 894 l 368 847 l 368 840 l 535 539 l 807 840 l 807 846 l 711 894 l 715 917 l 1004 917 l 1000 894 l 913 849 l 569 476 l 794 71 l 929 71 l 875 -235 l 853 -235 l 790 0 l 514 0 l 517 22 l 635 69 l 636 75 l 463 397 l 171 76 l 169 71 l 272 22 l 268 0 l -40 0 z "},"Ң":{"ha":1097,"x_min":4,"x_max":1069,"o":"m 4 0 l 8 22 l 117 78 l 251 839 l 150 894 l 154 917 l 506 917 l 501 894 l 390 839 l 332 508 l 754 508 l 813 839 l 715 894 l 719 917 l 1069 917 l 1065 894 l 953 839 l 817 71 l 953 71 l 900 -235 l 878 -235 l 814 0 l 568 0 l 572 22 l 678 78 l 742 438 l 319 438 l 256 78 l 360 22 l 356 0 l 4 0 z "},"Ҷ":{"ha":1060,"x_min":132,"x_max":1032,"o":"m 531 0 l 535 22 l 642 78 l 701 422 q 602 394 654 406 q 490 382 550 382 q 313 411 383 382 q 213 508 242 440 q 206 689 185 575 l 233 839 l 132 894 l 136 917 l 488 917 l 483 894 l 372 839 l 344 688 q 363 510 322 561 q 514 458 403 458 q 618 465 569 458 q 714 490 667 472 l 775 839 l 678 894 l 682 917 l 1032 917 l 1028 894 l 915 839 l 779 71 l 917 71 l 864 -235 l 842 -235 l 778 0 l 531 0 z "},"Ү":{"ha":946,"x_min":122,"x_max":1004,"o":"m 222 0 l 226 22 l 354 78 l 415 426 l 196 847 l 122 894 l 128 917 l 464 917 l 458 894 l 346 849 l 344 843 l 526 497 l 806 842 l 807 847 l 710 894 l 715 917 l 1004 917 l 1000 894 l 911 851 l 554 428 l 493 78 l 601 22 l 597 0 l 222 0 z "},"Ұ":{"ha":946,"x_min":122,"x_max":1004,"o":"m 222 0 l 226 22 l 354 78 l 403 358 l 197 358 l 208 429 l 414 429 l 196 847 l 122 894 l 128 917 l 464 917 l 458 894 l 346 849 l 344 843 l 526 497 l 806 842 l 807 847 l 710 894 l 715 917 l 1004 917 l 1000 894 l 911 851 l 556 429 l 761 429 l 750 358 l 542 358 l 493 78 l 601 22 l 597 0 l 222 0 z "},"Һ":{"ha":1010,"x_min":54,"x_max":956,"o":"m 557 917 l 553 894 l 446 839 l 385 494 q 485 523 432 511 q 597 535 538 535 q 774 506 703 535 q 874 409 846 476 q 882 228 903 342 l 854 78 l 956 22 l 951 0 l 600 0 l 604 22 l 715 78 l 743 229 q 725 407 767 356 q 574 458 683 458 q 469 451 518 458 q 372 426 421 444 l 311 78 l 410 22 l 406 0 l 54 0 l 58 22 l 172 78 l 307 839 l 201 894 l 206 917 l 557 917 z "},"Ӏ":{"ha":513,"x_min":4,"x_max":508,"o":"m 4 0 l 8 22 l 117 78 l 251 839 l 150 894 l 154 917 l 508 917 l 504 894 l 390 839 l 256 78 l 361 22 l 357 0 l 4 0 z "},"Ә":{"ha":871,"x_min":60,"x_max":810,"o":"m 339 -14 q 133 65 207 -14 q 60 289 60 144 q 62 346 60 317 q 69 407 64 375 l 82 417 l 665 417 q 675 550 675 481 q 614 756 675 681 q 421 831 553 831 q 266 796 335 831 q 129 700 197 761 l 124 700 l 128 732 q 279 874 185 818 q 486 931 374 931 q 726 840 642 931 q 810 594 810 750 q 776 360 810 471 q 678 166 742 250 q 529 34 615 82 q 339 -14 443 -14 m 189 288 q 226 122 189 185 q 364 58 264 58 q 548 138 475 58 q 653 346 621 218 l 192 346 q 190 316 192 331 q 189 288 189 301 z "},"Ө":{"ha":1067,"x_min":78,"x_max":989,"o":"m 463 -14 q 259 37 346 -14 q 125 178 172 88 q 78 389 78 269 q 117 593 78 496 q 228 767 157 690 q 394 888 299 843 q 603 932 490 932 q 808 881 721 932 q 942 738 894 829 q 989 528 989 647 q 950 326 989 424 q 841 152 911 229 q 674 31 771 75 q 463 -14 578 -14 m 569 867 q 417 820 485 867 q 302 693 349 774 q 238 510 256 613 l 842 510 q 842 525 842 513 q 808 703 842 626 q 714 824 775 781 q 569 867 653 867 m 501 54 q 660 106 590 54 q 776 244 731 157 q 836 439 822 331 l 229 439 q 228 394 228 417 q 262 217 228 294 q 358 97 296 140 q 501 54 419 54 z "},"Ѣ":{"ha":1006,"x_min":47,"x_max":924,"o":"m 192 685 l 69 525 l 47 525 l 86 756 l 360 756 l 375 839 l 272 894 l 276 917 l 656 917 l 651 894 l 519 839 l 504 756 l 825 756 l 783 525 l 761 525 l 693 685 l 492 685 l 456 481 l 593 481 q 839 425 754 481 q 924 265 924 369 q 876 129 924 189 q 737 35 829 69 q 507 0 644 0 l 126 0 l 131 22 l 240 78 l 347 685 l 192 685 m 383 71 l 510 71 q 709 124 642 71 q 776 264 776 178 q 563 410 776 410 l 443 410 l 383 71 z "},"Ѳ":{"ha":1067,"x_min":78,"x_max":989,"o":"m 463 -14 q 259 37 346 -14 q 125 178 172 88 q 78 389 78 269 q 117 593 78 496 q 228 767 157 690 q 394 888 299 843 q 603 932 490 932 q 808 881 721 932 q 942 738 894 829 q 989 528 989 647 q 950 326 989 424 q 841 152 911 229 q 674 31 771 75 q 463 -14 578 -14 m 569 867 q 409 815 481 867 q 292 676 338 764 q 232 476 246 588 q 385 529 313 521 q 524 526 458 538 q 647 499 589 514 q 753 481 704 483 q 842 506 801 478 q 842 525 842 515 q 808 703 842 626 q 714 824 775 781 q 569 867 653 867 m 501 54 q 662 106 590 54 q 779 247 733 158 q 838 446 825 336 q 699 391 765 400 q 570 394 632 382 q 450 423 508 407 q 336 443 392 439 q 228 419 281 447 q 228 394 228 407 q 262 217 228 294 q 358 97 296 140 q 501 54 419 54 z "},"Ѵ":{"ha":1040,"x_min":117,"x_max":1076,"o":"m 814 639 l 456 -7 l 385 -7 l 200 846 l 117 894 l 122 917 l 469 917 l 465 894 l 344 847 l 483 194 l 490 194 l 718 632 q 793 760 754 701 q 871 856 832 818 q 951 913 911 896 q 1032 931 992 931 q 1070 922 1064 931 q 1072 890 1076 914 l 1057 806 l 1050 799 l 1032 799 q 906 760 951 799 q 814 639 861 722 z "},"ȷ":{"ha":401,"x_min":-106,"x_max":310,"o":"m -106 -319 l -106 -296 q -24 -229 -58 -264 q 32 -144 10 -194 q 68 -14 54 -93 l 164 539 l 50 586 l 50 597 l 306 642 l 310 642 l 200 10 q 102 -180 181 -99 q -106 -319 24 -261 z "},"ĸ":{"ha":685,"x_min":43,"x_max":664,"o":"m 56 0 l 149 539 l 43 586 l 43 597 l 290 642 l 294 642 l 182 0 l 56 0 m 501 -14 q 445 3 467 -14 q 408 47 424 19 q 374 111 392 75 l 250 353 l 250 360 q 413 527 350 465 q 515 615 476 589 q 585 642 554 642 q 613 638 601 642 q 632 629 625 635 q 644 617 639 624 q 649 600 649 610 q 646 589 649 597 l 618 521 l 611 517 l 586 525 q 538 532 574 532 q 504 526 522 532 q 467 506 486 521 l 356 410 l 493 158 q 525 109 511 124 q 558 94 539 94 q 602 119 582 94 q 644 196 622 143 l 664 189 q 589 33 625 79 q 501 -14 553 -14 z "},"ẗ":{"ha":449,"x_min":61,"x_max":507,"o":"m 189 -14 q 110 18 136 -14 q 83 110 83 50 q 85 137 83 122 q 89 167 86 151 l 160 567 l 61 567 l 61 578 l 189 636 l 310 779 l 324 779 l 297 628 l 469 628 l 469 567 l 286 567 l 225 222 q 221 189 222 203 q 219 164 219 175 q 231 117 219 131 q 263 103 242 103 q 330 136 294 103 q 394 239 365 169 l 415 231 q 313 43 371 100 q 189 -14 254 -14 m 197 931 q 151 950 169 931 q 132 997 132 969 q 151 1044 132 1025 q 197 1063 169 1063 q 244 1044 225 1063 q 264 997 264 1025 q 244 950 264 969 q 197 931 225 931 m 442 931 q 394 950 414 931 q 375 997 375 969 q 394 1044 375 1025 q 442 1063 414 1063 q 488 1044 469 1063 q 507 997 507 1025 q 488 950 507 969 q 442 931 469 931 z "},"a":{"ha":881,"x_min":-28,"x_max":772,"o":"m -28 0 l -24 22 l 50 63 l 471 785 l 544 785 l 700 67 l 772 22 l 768 0 l 453 0 l 457 22 l 563 65 l 518 275 l 249 275 l 128 63 l 219 22 l 214 0 l -28 0 m 285 338 l 506 338 l 446 618 l 285 338 z "},"b":{"ha":785,"x_min":4,"x_max":708,"o":"m 4 0 l 8 22 l 110 78 l 222 700 l 139 756 l 143 778 l 440 778 q 631 737 560 778 q 703 613 703 696 q 656 490 703 543 q 528 414 610 436 q 663 351 618 397 q 708 238 708 306 q 669 126 708 181 q 553 35 631 71 q 361 0 476 0 l 4 0 m 419 713 l 357 713 l 307 433 l 374 433 q 519 479 471 433 q 568 596 568 525 q 533 683 568 653 q 419 713 499 713 m 389 369 l 294 369 l 240 65 l 363 65 q 519 113 468 65 q 569 238 569 161 q 526 338 569 306 q 389 369 483 369 z "},"c":{"ha":842,"x_min":78,"x_max":786,"o":"m 424 -14 q 239 27 317 -14 q 119 141 161 68 q 78 313 78 214 q 115 498 78 411 q 218 651 151 585 q 373 756 285 718 q 564 793 461 793 q 683 780 635 793 q 786 736 731 767 l 756 522 l 733 522 l 678 679 q 622 717 651 706 q 549 729 592 729 q 368 673 442 729 q 256 524 294 617 q 217 319 217 431 q 279 119 217 192 q 444 47 342 47 q 538 61 497 47 q 610 99 578 75 l 715 239 l 738 239 l 690 49 q 579 4 643 22 q 424 -14 515 -14 z "},"d":{"ha":919,"x_min":4,"x_max":858,"o":"m 4 0 l 8 22 l 111 78 l 225 700 l 142 756 l 146 778 l 460 778 q 681 736 592 778 q 814 621 769 694 q 858 451 858 547 q 799 217 858 319 q 628 58 739 115 q 364 0 518 0 l 4 0 m 428 713 l 360 713 l 240 64 l 356 64 q 563 111 482 64 q 682 244 643 158 q 721 442 721 329 q 649 639 721 565 q 428 713 576 713 z "},"e":{"ha":778,"x_min":4,"x_max":733,"o":"m 4 0 l 8 22 l 111 78 l 225 700 l 142 756 l 146 778 l 733 778 l 697 575 l 674 575 l 629 713 l 360 713 l 310 435 l 500 435 l 579 532 l 601 532 l 551 268 l 528 268 l 490 372 l 299 372 l 243 65 l 557 65 l 657 224 l 679 224 l 639 0 l 4 0 z "},"f":{"ha":749,"x_min":4,"x_max":729,"o":"m 4 0 l 8 22 l 111 78 l 224 700 l 140 756 l 144 778 l 729 778 l 692 575 l 669 575 l 622 713 l 360 713 l 310 435 l 486 435 l 565 532 l 588 532 l 536 268 l 514 268 l 475 372 l 299 372 l 244 78 l 351 22 l 349 0 l 4 0 z "},"g":{"ha":903,"x_min":78,"x_max":824,"o":"m 401 -14 q 231 26 303 -14 q 118 138 158 67 q 78 304 78 210 q 117 499 78 410 q 223 655 156 589 q 378 757 290 721 q 565 793 467 793 q 694 780 642 793 q 806 735 747 767 l 776 529 l 753 529 l 701 674 q 638 716 671 703 q 556 729 606 729 q 376 676 453 729 q 257 531 299 622 q 215 324 215 439 q 278 122 215 196 q 443 47 342 47 q 502 51 472 47 q 563 67 532 56 l 597 269 l 507 322 l 511 344 l 824 344 l 819 322 l 731 269 l 697 78 q 565 10 640 35 q 401 -14 490 -14 z "},"h":{"ha":943,"x_min":4,"x_max":939,"o":"m 4 0 l 8 22 l 101 78 l 215 700 l 131 756 l 135 778 l 449 778 l 444 756 l 347 700 l 299 435 l 654 435 l 703 700 l 621 756 l 625 778 l 939 778 l 935 756 l 835 700 l 722 78 l 811 22 l 807 0 l 494 0 l 497 22 l 590 78 l 643 369 l 288 369 l 235 78 l 322 22 l 318 0 l 4 0 z "},"i":{"ha":451,"x_min":4,"x_max":447,"o":"m 4 0 l 8 22 l 103 78 l 213 700 l 128 756 l 132 778 l 447 778 l 443 756 l 344 700 l 235 78 l 322 22 l 318 0 l 4 0 z "},"ı":{"ha":451,"x_min":4,"x_max":447,"o":"m 4 0 l 8 22 l 103 78 l 213 700 l 128 756 l 132 778 l 447 778 l 443 756 l 344 700 l 235 78 l 322 22 l 318 0 l 4 0 z "},"j":{"ha":447,"x_min":-97,"x_max":449,"o":"m -54 -204 q -86 -192 -75 -204 q -87 -150 -97 -179 l -68 -89 l -61 -89 q -33 -98 -44 -94 q -7 -101 -22 -101 q 38 -90 18 -101 q 73 -42 57 -79 q 101 68 89 -6 l 214 700 l 131 756 l 135 778 l 449 778 l 444 756 l 346 700 l 274 285 q 205 47 250 151 q 101 -115 160 -58 q 15 -185 50 -165 q -54 -204 -21 -204 z "},"k":{"ha":858,"x_min":4,"x_max":840,"o":"m 4 0 l 8 22 l 110 78 l 221 700 l 139 756 l 143 778 l 460 778 l 456 756 l 353 700 l 242 78 l 324 22 l 319 0 l 4 0 m 564 0 l 303 397 l 639 713 l 568 756 l 572 778 l 840 778 l 835 756 l 747 717 l 429 432 l 669 76 l 753 22 l 750 0 l 564 0 z "},"l":{"ha":740,"x_min":4,"x_max":643,"o":"m 4 0 l 8 22 l 110 78 l 222 700 l 139 756 l 144 778 l 471 778 l 468 756 l 354 700 l 240 65 l 504 65 l 621 267 l 643 267 l 594 0 l 4 0 z "},"m":{"ha":1131,"x_min":4,"x_max":1118,"o":"m 4 0 l 8 22 l 108 79 l 246 703 l 150 756 l 154 778 l 404 778 l 544 194 l 874 778 l 1118 778 l 1114 756 l 1010 703 l 936 79 l 1010 22 l 1006 0 l 706 0 l 710 22 l 803 78 l 871 632 l 507 -6 l 454 -6 l 301 642 l 182 79 l 267 22 l 263 0 l 4 0 z "},"n":{"ha":932,"x_min":6,"x_max":933,"o":"m 6 0 l 10 22 l 114 79 l 226 700 l 142 757 l 146 778 l 339 778 l 664 211 l 750 701 l 642 756 l 646 778 l 933 778 l 929 756 l 825 701 l 700 -6 l 642 -6 l 283 611 l 189 78 l 299 22 l 294 0 l 6 0 z "},"o":{"ha":953,"x_min":78,"x_max":874,"o":"m 418 -14 q 240 30 317 -14 q 120 151 163 74 q 78 329 78 228 q 112 506 78 422 q 207 655 146 590 q 351 756 268 719 q 533 793 435 793 q 713 749 636 793 q 832 628 790 706 q 874 449 874 550 q 840 274 874 357 q 747 126 807 192 q 602 24 686 61 q 418 -14 518 -14 m 439 50 q 594 104 528 50 q 699 249 661 158 q 736 446 736 339 q 712 593 736 528 q 638 695 688 658 q 517 732 589 732 q 362 678 429 732 q 256 534 294 624 q 217 335 217 444 q 272 130 217 210 q 439 50 328 50 z "},"p":{"ha":771,"x_min":4,"x_max":740,"o":"m 4 0 l 8 22 l 110 78 l 222 700 l 140 756 l 144 778 l 444 778 q 661 732 582 778 q 740 588 740 686 q 699 463 740 519 q 581 374 658 407 q 394 340 504 340 l 290 340 l 242 78 l 338 22 l 333 0 l 4 0 m 358 713 l 301 403 l 399 403 q 549 452 500 403 q 599 579 599 501 q 553 680 599 647 q 424 713 507 713 l 358 713 z "},"q":{"ha":954,"x_min":78,"x_max":915,"o":"m 739 -207 q 629 -192 688 -207 q 502 -135 571 -178 q 347 -8 433 -92 q 151 105 225 14 q 78 329 78 196 q 112 506 78 422 q 207 655 146 590 q 351 756 268 719 q 533 793 435 793 q 713 749 636 793 q 832 628 790 706 q 874 449 874 550 q 829 249 874 343 q 706 88 785 154 q 519 -3 626 21 q 646 -98 594 -65 q 743 -143 697 -131 q 846 -156 789 -156 q 915 -144 889 -156 l 910 -169 q 833 -196 878 -185 q 739 -207 789 -207 m 439 50 q 594 104 528 50 q 699 249 661 158 q 736 446 736 339 q 712 593 736 528 q 638 695 688 658 q 517 732 589 732 q 362 678 429 732 q 256 534 294 624 q 217 335 217 444 q 272 130 217 210 q 439 50 328 50 z "},"r":{"ha":788,"x_min":4,"x_max":725,"o":"m 4 0 l 8 22 l 108 78 l 222 700 l 139 756 l 143 778 l 428 778 q 628 731 556 778 q 700 600 700 683 q 646 460 700 515 q 506 381 592 406 l 650 74 l 725 22 l 722 0 l 539 0 l 379 360 l 293 360 l 242 78 l 318 22 l 315 0 l 4 0 m 408 713 l 357 713 l 304 422 l 394 422 q 519 469 475 422 q 563 588 563 515 q 526 680 563 647 q 408 713 489 713 z "},"s":{"ha":611,"x_min":3,"x_max":574,"o":"m 221 -14 q 100 0 149 -14 q 3 42 51 14 l 25 239 l 49 239 l 97 100 q 153 61 121 78 q 229 44 186 44 q 353 84 313 44 q 393 192 393 124 q 376 261 393 233 q 326 311 358 289 q 247 361 293 333 q 149 442 182 399 q 117 553 117 485 q 154 678 117 624 q 253 763 192 732 q 388 793 314 793 q 488 780 443 793 q 574 742 532 767 l 551 550 l 528 550 l 483 686 q 437 719 463 706 q 371 733 411 733 q 278 697 318 733 q 238 601 238 661 q 263 522 238 554 q 349 454 289 489 q 474 360 433 406 q 515 236 515 314 q 476 106 515 163 q 370 18 438 50 q 221 -14 303 -14 z "},"t":{"ha":793,"x_min":97,"x_max":826,"o":"m 163 0 l 167 22 l 290 78 l 407 713 l 231 713 l 119 533 l 97 533 l 140 778 l 826 778 l 783 533 l 760 533 l 714 713 l 540 713 l 424 78 l 529 22 l 525 0 l 163 0 z "},"u":{"ha":972,"x_min":164,"x_max":971,"o":"m 443 -14 q 244 44 319 -14 q 169 226 169 103 q 178 310 169 267 l 249 700 l 164 756 l 168 778 l 486 778 l 482 756 l 381 700 l 311 318 q 306 276 308 296 q 304 236 304 256 q 351 102 304 143 q 476 61 397 61 q 635 119 576 61 q 714 283 694 176 l 789 701 l 688 756 l 692 778 l 971 778 l 968 756 l 867 700 l 797 308 q 679 65 768 144 q 443 -14 590 -14 z "},"v":{"ha":846,"x_min":117,"x_max":894,"o":"m 333 -6 l 190 710 l 117 756 l 121 778 l 436 778 l 432 756 l 326 713 l 431 175 l 439 175 l 739 715 l 647 756 l 651 778 l 894 778 l 890 756 l 818 717 l 407 -6 l 333 -6 z "},"w":{"ha":1151,"x_min":117,"x_max":1224,"o":"m 274 -6 l 190 713 l 117 756 l 121 778 l 439 778 l 435 756 l 328 711 l 381 221 l 388 221 l 668 785 l 738 785 l 835 221 l 843 221 l 1060 711 l 967 756 l 971 778 l 1224 778 l 1219 756 l 1142 714 l 810 -6 l 739 -6 l 640 560 l 633 560 l 346 -6 l 274 -6 z "},"x":{"ha":860,"x_min":-40,"x_max":885,"o":"m -40 0 l -36 22 l 61 71 l 371 393 l 196 711 l 126 756 l 132 778 l 456 778 l 451 756 l 349 713 l 347 707 l 479 467 l 708 710 l 708 715 l 626 756 l 629 778 l 885 778 l 881 756 l 804 719 l 510 411 l 699 67 l 774 22 l 769 0 l 447 0 l 451 22 l 549 64 l 550 68 l 403 335 l 154 72 l 153 67 l 240 22 l 236 0 l -40 0 z "},"y":{"ha":840,"x_min":122,"x_max":899,"o":"m 210 0 l 214 22 l 326 78 l 376 363 l 188 717 l 122 756 l 126 778 l 432 778 l 426 756 l 333 717 l 333 713 l 486 425 l 721 710 l 722 714 l 640 756 l 644 778 l 899 778 l 894 756 l 815 718 l 510 361 l 458 78 l 551 22 l 547 0 l 210 0 z "},"z":{"ha":769,"x_min":38,"x_max":731,"o":"m 38 0 l 44 42 l 556 713 l 274 713 l 171 554 l 149 554 l 189 778 l 731 778 l 722 736 l 213 65 l 518 65 l 624 235 l 646 235 l 604 0 l 38 0 z "},"à":{"ha":881,"x_min":-28,"x_max":772,"o":"m -28 0 l -24 22 l 50 63 l 471 785 l 544 785 l 700 67 l 772 22 l 768 0 l 453 0 l 457 22 l 563 65 l 518 275 l 249 275 l 128 63 l 219 22 l 214 0 l -28 0 m 285 338 l 506 338 l 446 618 l 285 338 m 513 882 l 328 1040 q 299 1085 301 1063 q 299 1128 296 1107 l 406 1128 l 529 882 l 513 882 z "},"á":{"ha":881,"x_min":-28,"x_max":776,"o":"m -28 0 l -24 22 l 50 63 l 471 785 l 544 785 l 700 67 l 772 22 l 768 0 l 453 0 l 457 22 l 563 65 l 518 275 l 249 275 l 128 63 l 219 22 l 214 0 l -28 0 m 285 338 l 506 338 l 446 618 l 285 338 m 513 882 l 656 1128 l 776 1128 q 760 1088 772 1107 q 717 1040 747 1068 l 531 882 l 513 882 z "},"â":{"ha":881,"x_min":-28,"x_max":772,"o":"m -28 0 l -24 22 l 50 63 l 471 785 l 544 785 l 700 67 l 772 22 l 768 0 l 453 0 l 457 22 l 563 65 l 518 275 l 249 275 l 128 63 l 219 22 l 214 0 l -28 0 m 285 338 l 506 338 l 446 618 l 285 338 m 321 882 l 542 1128 l 588 1128 l 718 882 l 700 882 l 547 1018 l 339 882 l 321 882 z "},"ã":{"ha":881,"x_min":-28,"x_max":772,"o":"m -28 0 l -24 22 l 50 63 l 471 785 l 544 785 l 700 67 l 772 22 l 768 0 l 453 0 l 457 22 l 563 65 l 518 275 l 249 275 l 128 63 l 219 22 l 214 0 l -28 0 m 285 338 l 506 338 l 446 618 l 285 338 m 324 915 q 387 1033 361 996 q 434 1082 413 1071 q 482 1093 456 1093 q 527 1079 507 1093 q 565 1047 547 1065 q 600 1015 582 1029 q 640 1001 618 1001 q 685 1017 664 1001 q 740 1093 706 1032 l 764 1093 q 701 975 726 1013 q 653 926 675 938 q 606 915 631 915 q 560 929 581 915 q 523 961 540 943 q 488 993 506 979 q 447 1007 469 1007 q 403 992 424 1007 q 347 915 383 976 l 324 915 z "},"ä":{"ha":881,"x_min":-28,"x_max":772,"o":"m -28 0 l -24 22 l 50 63 l 471 785 l 544 785 l 700 67 l 772 22 l 768 0 l 453 0 l 457 22 l 563 65 l 518 275 l 249 275 l 128 63 l 219 22 l 214 0 l -28 0 m 285 338 l 506 338 l 446 618 l 285 338 m 421 938 q 374 957 393 938 q 356 1004 356 976 q 374 1051 356 1032 q 421 1069 393 1069 q 468 1051 449 1069 q 488 1004 488 1032 q 468 957 488 976 q 421 938 449 938 m 665 938 q 618 957 638 938 q 599 1004 599 976 q 618 1051 599 1032 q 665 1069 638 1069 q 712 1051 693 1069 q 731 1004 731 1032 q 712 957 731 976 q 665 938 693 938 z "},"ā":{"ha":881,"x_min":-28,"x_max":772,"o":"m -28 0 l -24 22 l 50 63 l 471 785 l 544 785 l 700 67 l 772 22 l 768 0 l 453 0 l 457 22 l 563 65 l 518 275 l 249 275 l 128 63 l 219 22 l 214 0 l -28 0 m 285 338 l 506 338 l 446 618 l 285 338 m 356 969 l 368 1036 l 732 1036 l 719 969 l 356 969 z "},"ă":{"ha":881,"x_min":-28,"x_max":772,"o":"m -28 0 l -24 22 l 50 63 l 471 785 l 544 785 l 700 67 l 772 22 l 768 0 l 453 0 l 457 22 l 563 65 l 518 275 l 249 275 l 128 63 l 219 22 l 214 0 l -28 0 m 285 338 l 506 338 l 446 618 l 285 338 m 526 896 q 401 954 436 896 q 363 1128 367 1013 l 381 1128 q 413 1031 393 1063 q 463 990 433 1000 q 535 981 493 981 q 611 990 576 981 q 678 1031 646 1000 q 744 1128 710 1063 l 763 1128 q 668 953 724 1010 q 526 896 613 896 z "},"å":{"ha":881,"x_min":-28,"x_max":772,"o":"m -28 0 l -24 22 l 50 63 l 471 785 l 544 785 l 700 67 l 772 22 l 768 0 l 453 0 l 457 22 l 563 65 l 518 275 l 249 275 l 128 63 l 219 22 l 214 0 l -28 0 m 285 338 l 506 338 l 446 618 l 285 338 m 525 888 q 452 915 475 888 q 429 985 429 942 q 466 1080 429 1039 q 563 1121 503 1121 q 635 1094 611 1121 q 658 1024 658 1067 q 622 929 658 971 q 525 888 586 888 m 532 919 q 581 949 564 919 q 599 1024 599 979 q 557 1090 599 1090 q 506 1063 525 1090 q 488 988 488 1035 q 532 919 488 919 z "},"ǻ":{"ha":881,"x_min":-28,"x_max":832,"o":"m -28 0 l -24 22 l 50 63 l 471 785 l 544 785 l 700 67 l 772 22 l 768 0 l 453 0 l 457 22 l 563 65 l 518 275 l 249 275 l 128 63 l 219 22 l 214 0 l -28 0 m 285 338 l 506 338 l 446 618 l 285 338 m 525 888 q 452 915 475 888 q 429 985 429 942 q 466 1080 429 1039 q 563 1121 503 1121 q 635 1094 611 1121 q 658 1024 658 1067 q 622 929 658 971 q 525 888 586 888 m 532 919 q 581 949 564 919 q 599 1024 599 979 q 557 1090 599 1090 q 506 1063 525 1090 q 488 988 488 1035 q 532 919 488 919 m 568 1192 l 711 1438 l 832 1438 q 815 1397 828 1417 q 772 1350 803 1378 l 586 1192 l 568 1192 z "},"ạ":{"ha":881,"x_min":-28,"x_max":772,"o":"m -28 0 l -24 22 l 50 63 l 471 785 l 544 785 l 700 67 l 772 22 l 768 0 l 453 0 l 457 22 l 563 65 l 518 275 l 249 275 l 128 63 l 219 22 l 214 0 l -28 0 m 285 338 l 506 338 l 446 618 l 285 338 m 313 -296 q 253 -272 278 -296 q 228 -211 228 -247 q 253 -151 228 -176 q 313 -126 278 -126 q 373 -151 349 -126 q 397 -211 397 -176 q 373 -272 397 -247 q 313 -296 349 -296 z "},"ą":{"ha":881,"x_min":-28,"x_max":772,"o":"m -28 0 l -24 22 l 50 63 l 471 785 l 544 785 l 700 67 l 772 22 l 768 0 l 642 0 q 580 -99 601 -51 q 558 -192 558 -147 q 635 -269 558 -269 q 667 -264 650 -269 q 703 -247 685 -258 l 707 -247 l 703 -267 q 650 -315 681 -297 q 581 -333 619 -333 q 497 -303 528 -333 q 465 -221 465 -274 q 502 -113 465 -167 q 599 0 539 -60 l 453 0 l 457 22 l 563 65 l 518 275 l 249 275 l 128 63 l 219 22 l 214 0 l -28 0 m 285 338 l 506 338 l 446 618 l 285 338 z "},"ȁ":{"ha":881,"x_min":-28,"x_max":772,"o":"m -28 0 l -24 22 l 50 63 l 471 785 l 544 785 l 700 67 l 772 22 l 768 0 l 453 0 l 457 22 l 563 65 l 518 275 l 249 275 l 128 63 l 219 22 l 214 0 l -28 0 m 285 338 l 506 338 l 446 618 l 285 338 m 585 882 l 446 1046 q 422 1086 426 1068 q 422 1128 418 1104 l 511 1128 l 603 882 l 585 882 m 431 882 l 263 1046 q 237 1088 240 1067 q 238 1128 233 1108 l 326 1128 l 449 882 l 431 882 z "},"ȃ":{"ha":881,"x_min":-28,"x_max":772,"o":"m -28 0 l -24 22 l 50 63 l 471 785 l 544 785 l 700 67 l 772 22 l 768 0 l 453 0 l 457 22 l 563 65 l 518 275 l 249 275 l 128 63 l 219 22 l 214 0 l -28 0 m 285 338 l 506 338 l 446 618 l 285 338 m 324 896 q 418 1072 363 1015 q 560 1128 474 1128 q 685 1069 650 1128 q 724 896 719 1011 l 706 896 q 673 992 693 961 q 623 1033 653 1024 q 551 1043 593 1043 q 475 1033 510 1043 q 408 992 440 1024 q 342 896 376 961 l 324 896 z "},"ắ":{"ha":881,"x_min":-28,"x_max":779,"o":"m -28 0 l -24 22 l 50 63 l 471 785 l 544 785 l 700 67 l 772 22 l 768 0 l 453 0 l 457 22 l 563 65 l 518 275 l 249 275 l 128 63 l 219 22 l 214 0 l -28 0 m 285 338 l 506 338 l 446 618 l 285 338 z "},"ặ":{"ha":881,"x_min":-28,"x_max":772,"o":"m -28 0 l -24 22 l 50 63 l 471 785 l 544 785 l 700 67 l 772 22 l 768 0 l 453 0 l 457 22 l 563 65 l 518 275 l 249 275 l 128 63 l 219 22 l 214 0 l -28 0 m 285 338 l 506 338 l 446 618 l 285 338 m 526 896 q 401 954 436 896 q 363 1128 367 1013 l 381 1128 q 413 1031 393 1063 q 463 990 433 1000 q 535 981 493 981 q 611 990 576 981 q 678 1031 646 1000 q 744 1128 710 1063 l 763 1128 q 668 953 724 1010 q 526 896 613 896 m 313 -296 q 253 -272 278 -296 q 228 -211 228 -247 q 253 -151 228 -176 q 313 -126 278 -126 q 373 -151 349 -126 q 397 -211 397 -176 q 373 -272 397 -247 q 313 -296 349 -296 z "},"ằ":{"ha":881,"x_min":-28,"x_max":772,"o":"m -28 0 l -24 22 l 50 63 l 471 785 l 544 785 l 700 67 l 772 22 l 768 0 l 453 0 l 457 22 l 563 65 l 518 275 l 249 275 l 128 63 l 219 22 l 214 0 l -28 0 m 285 338 l 506 338 l 446 618 l 285 338 z "},"ẳ":{"ha":881,"x_min":-28,"x_max":772,"o":"m -28 0 l -24 22 l 50 63 l 471 785 l 544 785 l 700 67 l 772 22 l 768 0 l 453 0 l 457 22 l 563 65 l 518 275 l 249 275 l 128 63 l 219 22 l 214 0 l -28 0 m 285 338 l 506 338 l 446 618 l 285 338 z "},"ẵ":{"ha":881,"x_min":-28,"x_max":799,"o":"m -28 0 l -24 22 l 50 63 l 471 785 l 544 785 l 700 67 l 772 22 l 768 0 l 453 0 l 457 22 l 563 65 l 518 275 l 249 275 l 128 63 l 219 22 l 214 0 l -28 0 m 285 338 l 506 338 l 446 618 l 285 338 z "},"ấ":{"ha":881,"x_min":-28,"x_max":901,"o":"m -28 0 l -24 22 l 50 63 l 471 785 l 544 785 l 700 67 l 772 22 l 768 0 l 453 0 l 457 22 l 563 65 l 518 275 l 249 275 l 128 63 l 219 22 l 214 0 l -28 0 m 285 338 l 506 338 l 446 618 l 285 338 m 696 1031 l 786 1229 l 901 1229 q 886 1188 897 1208 q 844 1143 875 1167 l 711 1031 l 696 1031 m 321 882 l 542 1128 l 586 1128 l 718 882 l 700 882 l 546 1018 l 338 882 l 321 882 z "},"ậ":{"ha":881,"x_min":-28,"x_max":772,"o":"m -28 0 l -24 22 l 50 63 l 471 785 l 544 785 l 700 67 l 772 22 l 768 0 l 453 0 l 457 22 l 563 65 l 518 275 l 249 275 l 128 63 l 219 22 l 214 0 l -28 0 m 285 338 l 506 338 l 446 618 l 285 338 m 321 882 l 542 1128 l 588 1128 l 718 882 l 700 882 l 547 1018 l 339 882 l 321 882 m 313 -296 q 253 -272 278 -296 q 228 -211 228 -247 q 253 -151 228 -176 q 313 -126 278 -126 q 373 -151 349 -126 q 397 -211 397 -176 q 373 -272 397 -247 q 313 -296 349 -296 z "},"ầ":{"ha":881,"x_min":-28,"x_max":772,"o":"m -28 0 l -24 22 l 50 63 l 471 785 l 544 785 l 700 67 l 772 22 l 768 0 l 453 0 l 457 22 l 563 65 l 518 275 l 249 275 l 128 63 l 219 22 l 214 0 l -28 0 m 285 338 l 506 338 l 446 618 l 285 338 m 367 1031 l 231 1142 q 199 1185 204 1164 q 197 1229 194 1207 l 300 1229 l 385 1031 l 367 1031 m 321 882 l 542 1128 l 586 1128 l 718 882 l 700 882 l 546 1018 l 338 882 l 321 882 z "},"ẩ":{"ha":881,"x_min":-28,"x_max":772,"o":"m -28 0 l -24 22 l 50 63 l 471 785 l 544 785 l 700 67 l 772 22 l 768 0 l 453 0 l 457 22 l 563 65 l 518 275 l 249 275 l 128 63 l 219 22 l 214 0 l -28 0 m 285 338 l 506 338 l 446 618 l 285 338 z "},"ẫ":{"ha":881,"x_min":-28,"x_max":821,"o":"m -28 0 l -24 22 l 50 63 l 471 785 l 544 785 l 700 67 l 772 22 l 768 0 l 453 0 l 457 22 l 563 65 l 518 275 l 249 275 l 128 63 l 219 22 l 214 0 l -28 0 m 285 338 l 506 338 l 446 618 l 285 338 z "},"ả":{"ha":881,"x_min":-28,"x_max":772,"o":"m -28 0 l -24 22 l 50 63 l 471 785 l 544 785 l 700 67 l 772 22 l 768 0 l 453 0 l 457 22 l 563 65 l 518 275 l 249 275 l 128 63 l 219 22 l 214 0 l -28 0 m 285 338 l 506 338 l 446 618 l 285 338 m 465 897 l 465 899 q 543 934 518 914 q 568 990 568 954 q 549 1028 568 1013 q 482 1054 529 1044 l 508 1128 q 609 1089 581 1121 q 638 1022 638 1057 q 472 888 638 919 l 465 897 z "},"æ":{"ha":1186,"x_min":-28,"x_max":1142,"o":"m -28 0 l -24 22 l 54 61 l 632 778 l 1142 778 l 1106 575 l 1082 575 l 1038 713 l 768 713 l 718 436 l 910 436 l 988 533 l 1010 533 l 960 267 l 936 267 l 899 371 l 707 371 l 651 65 l 965 65 l 1065 224 l 1088 224 l 1049 0 l 413 0 l 417 22 l 519 78 l 556 275 l 310 275 l 139 61 l 224 22 l 219 0 l -28 0 m 360 338 l 568 338 l 631 676 l 360 338 z "},"ǽ":{"ha":1186,"x_min":-28,"x_max":1142,"o":"m -28 0 l -24 22 l 54 61 l 632 778 l 1142 778 l 1106 575 l 1082 575 l 1038 713 l 768 713 l 718 436 l 910 436 l 988 533 l 1010 533 l 960 267 l 936 267 l 899 371 l 707 371 l 651 65 l 965 65 l 1065 224 l 1088 224 l 1049 0 l 413 0 l 417 22 l 519 78 l 556 275 l 310 275 l 139 61 l 224 22 l 219 0 l -28 0 m 360 338 l 568 338 l 631 676 l 360 338 m 736 882 l 879 1128 l 1000 1128 q 983 1088 996 1107 q 940 1040 971 1068 l 754 882 l 736 882 z "},"ć":{"ha":842,"x_min":78,"x_max":826,"o":"m 424 -14 q 239 27 317 -14 q 119 141 161 68 q 78 313 78 214 q 115 498 78 411 q 218 651 151 585 q 373 756 285 718 q 564 793 461 793 q 683 780 635 793 q 786 736 731 767 l 756 522 l 733 522 l 678 679 q 622 717 651 706 q 549 729 592 729 q 368 673 442 729 q 256 524 294 617 q 217 319 217 431 q 279 119 217 192 q 444 47 342 47 q 538 61 497 47 q 610 99 578 75 l 715 239 l 738 239 l 690 49 q 579 4 643 22 q 424 -14 515 -14 m 563 882 l 706 1128 l 826 1128 q 810 1088 822 1107 q 767 1040 797 1068 l 581 882 l 563 882 z "},"ĉ":{"ha":842,"x_min":78,"x_max":786,"o":"m 424 -14 q 239 27 317 -14 q 119 141 161 68 q 78 313 78 214 q 115 498 78 411 q 218 651 151 585 q 373 756 285 718 q 564 793 461 793 q 683 780 635 793 q 786 736 731 767 l 756 522 l 733 522 l 678 679 q 622 717 651 706 q 549 729 592 729 q 368 673 442 729 q 256 524 294 617 q 217 319 217 431 q 279 119 217 192 q 444 47 342 47 q 538 61 497 47 q 610 99 578 75 l 715 239 l 738 239 l 690 49 q 579 4 643 22 q 424 -14 515 -14 m 369 882 l 590 1128 l 636 1128 l 767 882 l 749 882 l 596 1018 l 388 882 l 369 882 z "},"č":{"ha":842,"x_min":78,"x_max":814,"o":"m 424 -14 q 239 27 317 -14 q 119 141 161 68 q 78 313 78 214 q 115 498 78 411 q 218 651 151 585 q 373 756 285 718 q 564 793 461 793 q 683 780 635 793 q 786 736 731 767 l 756 522 l 733 522 l 678 679 q 622 717 651 706 q 549 729 592 729 q 368 673 442 729 q 256 524 294 617 q 217 319 217 431 q 279 119 217 192 q 444 47 342 47 q 538 61 497 47 q 610 99 578 75 l 715 239 l 738 239 l 690 49 q 579 4 643 22 q 424 -14 515 -14 m 550 882 l 417 1128 l 435 1128 l 588 992 l 796 1128 l 814 1128 l 596 882 l 550 882 z "},"ċ":{"ha":842,"x_min":78,"x_max":786,"o":"m 424 -14 q 239 27 317 -14 q 119 141 161 68 q 78 313 78 214 q 115 498 78 411 q 218 651 151 585 q 373 756 285 718 q 564 793 461 793 q 683 780 635 793 q 786 736 731 767 l 756 522 l 733 522 l 678 679 q 622 717 651 706 q 549 729 592 729 q 368 673 442 729 q 256 524 294 617 q 217 319 217 431 q 279 119 217 192 q 444 47 342 47 q 538 61 497 47 q 610 99 578 75 l 715 239 l 738 239 l 690 49 q 579 4 643 22 q 424 -14 515 -14 m 590 921 q 530 944 554 921 q 506 1004 506 968 q 530 1065 506 1040 q 590 1089 554 1089 q 649 1065 625 1089 q 674 1004 674 1040 q 649 944 674 968 q 590 921 625 921 z "},"ç":{"ha":842,"x_min":78,"x_max":786,"o":"m 361 -333 q 253 -294 285 -333 l 257 -276 l 261 -276 q 297 -290 278 -285 q 343 -294 317 -294 q 429 -229 429 -294 q 403 -176 429 -197 q 310 -135 376 -154 l 386 -12 q 160 86 242 -1 q 78 313 78 174 q 115 498 78 411 q 218 651 151 585 q 373 756 285 718 q 564 793 461 793 q 683 780 635 793 q 786 736 731 767 l 756 522 l 733 522 l 678 679 q 622 717 651 706 q 549 729 592 729 q 368 673 442 729 q 256 524 294 617 q 217 319 217 431 q 279 119 217 192 q 444 47 342 47 q 538 61 497 47 q 610 99 578 75 l 715 239 l 738 239 l 690 49 q 580 4 643 22 q 429 -14 517 -14 l 392 -74 q 483 -127 456 -96 q 510 -206 510 -158 q 470 -296 510 -258 q 361 -333 431 -333 z "},"ḉ":{"ha":842,"x_min":78,"x_max":826,"o":"m 561 882 l 706 1128 l 826 1128 q 810 1087 822 1107 q 767 1040 797 1067 l 579 882 l 561 882 m 361 -333 q 253 -294 285 -333 l 257 -276 l 261 -276 q 297 -290 278 -285 q 343 -294 317 -294 q 429 -229 429 -294 q 403 -176 429 -197 q 310 -135 376 -154 l 386 -12 q 160 86 242 -1 q 78 313 78 174 q 115 498 78 411 q 218 651 151 585 q 373 756 285 718 q 564 793 461 793 q 683 780 635 793 q 786 736 731 767 l 756 522 l 733 522 l 678 679 q 622 717 651 706 q 549 729 592 729 q 368 673 442 729 q 256 524 294 617 q 217 319 217 431 q 279 119 217 192 q 444 47 342 47 q 538 61 497 47 q 610 99 578 75 l 715 239 l 738 239 l 690 49 q 580 4 643 22 q 429 -14 517 -14 l 392 -74 q 483 -127 456 -96 q 510 -206 510 -158 q 470 -296 510 -258 q 361 -333 431 -333 z "},"ď":{"ha":919,"x_min":4,"x_max":858,"o":"m 4 0 l 8 22 l 111 78 l 225 700 l 142 756 l 146 778 l 460 778 q 681 736 592 778 q 814 621 769 694 q 858 451 858 547 q 799 217 858 319 q 628 58 739 115 q 364 0 518 0 l 4 0 m 428 713 l 360 713 l 240 64 l 356 64 q 563 111 482 64 q 682 244 643 158 q 721 442 721 329 q 649 639 721 565 q 428 713 576 713 m 485 882 l 351 1128 l 369 1128 l 522 992 l 731 1128 l 749 1128 l 531 882 l 485 882 z "},"đ":{"ha":919,"x_min":4,"x_max":858,"o":"m 4 0 l 8 22 l 111 78 l 165 375 l 74 375 l 83 433 l 176 433 l 225 700 l 143 756 l 147 778 l 460 778 q 681 736 592 778 q 814 621 769 694 q 858 451 858 547 q 799 217 858 319 q 628 58 739 115 q 364 0 518 0 l 4 0 m 489 375 l 299 375 l 240 64 l 356 64 q 563 111 482 64 q 682 244 643 158 q 721 442 721 329 q 649 639 721 565 q 428 713 576 713 l 360 713 l 308 433 l 499 433 l 489 375 z "},"ḍ":{"ha":919,"x_min":4,"x_max":858,"o":"m 4 0 l 8 22 l 111 78 l 225 700 l 142 756 l 146 778 l 460 778 q 681 736 592 778 q 814 621 769 694 q 858 451 858 547 q 799 217 858 319 q 628 58 739 115 q 364 0 518 0 l 4 0 m 428 713 l 360 713 l 240 64 l 356 64 q 563 111 482 64 q 682 244 643 158 q 721 442 721 329 q 649 639 721 565 q 428 713 576 713 m 349 -296 q 289 -272 314 -296 q 264 -211 264 -247 q 289 -151 264 -176 q 349 -126 314 -126 q 409 -151 385 -126 q 433 -211 433 -176 q 409 -272 433 -247 q 349 -296 385 -296 z "},"ḏ":{"ha":919,"x_min":4,"x_max":858,"o":"m 4 0 l 8 22 l 111 78 l 225 700 l 142 756 l 146 778 l 460 778 q 681 736 592 778 q 814 621 769 694 q 858 451 858 547 q 799 217 858 319 q 628 58 739 115 q 364 0 518 0 l 4 0 m 428 713 l 360 713 l 240 64 l 356 64 q 563 111 482 64 q 682 244 643 158 q 721 442 721 329 q 649 639 721 565 q 428 713 576 713 m 158 -240 l 171 -174 l 535 -174 l 522 -240 l 158 -240 z "},"è":{"ha":778,"x_min":4,"x_max":733,"o":"m 4 0 l 8 22 l 111 78 l 225 700 l 142 756 l 146 778 l 733 778 l 697 575 l 674 575 l 629 713 l 360 713 l 310 435 l 500 435 l 579 532 l 601 532 l 551 268 l 528 268 l 490 372 l 299 372 l 243 65 l 557 65 l 657 224 l 679 224 l 639 0 l 4 0 m 490 882 l 306 1040 q 276 1085 279 1063 q 276 1128 274 1107 l 383 1128 l 507 882 l 490 882 z "},"é":{"ha":778,"x_min":4,"x_max":754,"o":"m 4 0 l 8 22 l 111 78 l 225 700 l 142 756 l 146 778 l 733 778 l 697 575 l 674 575 l 629 713 l 360 713 l 310 435 l 500 435 l 579 532 l 601 532 l 551 268 l 528 268 l 490 372 l 299 372 l 243 65 l 557 65 l 657 224 l 679 224 l 639 0 l 4 0 m 490 882 l 633 1128 l 754 1128 q 738 1088 750 1107 q 694 1040 725 1068 l 508 882 l 490 882 z "},"ê":{"ha":778,"x_min":4,"x_max":733,"o":"m 4 0 l 8 22 l 111 78 l 225 700 l 142 756 l 146 778 l 733 778 l 697 575 l 674 575 l 629 713 l 360 713 l 310 435 l 500 435 l 579 532 l 601 532 l 551 268 l 528 268 l 490 372 l 299 372 l 243 65 l 557 65 l 657 224 l 679 224 l 639 0 l 4 0 m 297 882 l 518 1128 l 564 1128 l 694 882 l 676 882 l 524 1018 l 315 882 l 297 882 z "},"ě":{"ha":778,"x_min":4,"x_max":743,"o":"m 4 0 l 8 22 l 111 78 l 225 700 l 142 756 l 146 778 l 733 778 l 697 575 l 674 575 l 629 713 l 360 713 l 310 435 l 500 435 l 579 532 l 601 532 l 551 268 l 528 268 l 490 372 l 299 372 l 243 65 l 557 65 l 657 224 l 679 224 l 639 0 l 4 0 m 479 882 l 346 1128 l 364 1128 l 517 992 l 725 1128 l 743 1128 l 525 882 l 479 882 z "},"ẽ":{"ha":778,"x_min":4,"x_max":740,"o":"m 4 0 l 8 22 l 111 78 l 225 700 l 142 756 l 146 778 l 733 778 l 697 575 l 674 575 l 629 713 l 360 713 l 310 435 l 500 435 l 579 532 l 601 532 l 551 268 l 528 268 l 490 372 l 299 372 l 243 65 l 557 65 l 657 224 l 679 224 l 639 0 l 4 0 m 300 915 q 363 1033 338 996 q 410 1082 389 1071 q 458 1093 432 1093 q 503 1079 483 1093 q 541 1047 524 1065 q 576 1015 558 1029 q 617 1001 594 1001 q 661 1017 640 1001 q 717 1093 682 1032 l 740 1093 q 677 975 703 1013 q 629 926 651 938 q 582 915 607 915 q 537 929 557 915 q 499 961 517 943 q 464 993 482 979 q 424 1007 446 1007 q 380 992 400 1007 q 324 915 360 976 l 300 915 z "},"ë":{"ha":778,"x_min":4,"x_max":733,"o":"m 4 0 l 8 22 l 111 78 l 225 700 l 142 756 l 146 778 l 733 778 l 697 575 l 674 575 l 629 713 l 360 713 l 310 435 l 500 435 l 579 532 l 601 532 l 551 268 l 528 268 l 490 372 l 299 372 l 243 65 l 557 65 l 657 224 l 679 224 l 639 0 l 4 0 m 399 938 q 352 957 371 938 q 333 1004 333 976 q 352 1051 333 1032 q 399 1069 371 1069 q 446 1051 426 1069 q 465 1004 465 1032 q 446 957 465 976 q 399 938 426 938 m 643 938 q 596 957 615 938 q 576 1004 576 976 q 596 1051 576 1032 q 643 1069 615 1069 q 690 1051 671 1069 q 708 1004 708 1032 q 690 957 708 976 q 643 938 671 938 z "},"ē":{"ha":778,"x_min":4,"x_max":733,"o":"m 4 0 l 8 22 l 111 78 l 225 700 l 142 756 l 146 778 l 733 778 l 697 575 l 674 575 l 629 713 l 360 713 l 310 435 l 500 435 l 579 532 l 601 532 l 551 268 l 528 268 l 490 372 l 299 372 l 243 65 l 557 65 l 657 224 l 679 224 l 639 0 l 4 0 m 332 969 l 344 1036 l 708 1036 l 696 969 l 332 969 z "},"ĕ":{"ha":778,"x_min":4,"x_max":740,"o":"m 4 0 l 8 22 l 111 78 l 225 700 l 142 756 l 146 778 l 733 778 l 697 575 l 674 575 l 629 713 l 360 713 l 310 435 l 500 435 l 579 532 l 601 532 l 551 268 l 528 268 l 490 372 l 299 372 l 243 65 l 557 65 l 657 224 l 679 224 l 639 0 l 4 0 m 504 896 q 379 954 414 896 q 340 1128 344 1013 l 358 1128 q 391 1031 371 1063 q 441 990 411 1000 q 513 981 471 981 q 589 990 554 981 q 656 1031 624 1000 q 722 1128 688 1063 l 740 1128 q 646 953 701 1010 q 504 896 590 896 z "},"ė":{"ha":778,"x_min":4,"x_max":733,"o":"m 4 0 l 8 22 l 111 78 l 225 700 l 142 756 l 146 778 l 733 778 l 697 575 l 674 575 l 629 713 l 360 713 l 310 435 l 500 435 l 579 532 l 601 532 l 551 268 l 528 268 l 490 372 l 299 372 l 243 65 l 557 65 l 657 224 l 679 224 l 639 0 l 4 0 m 519 921 q 459 944 483 921 q 435 1004 435 968 q 459 1065 435 1040 q 519 1089 483 1089 q 578 1065 554 1089 q 603 1004 603 1040 q 578 944 603 968 q 519 921 554 921 z "},"ę":{"ha":778,"x_min":4,"x_max":733,"o":"m 4 0 l 8 22 l 111 78 l 225 700 l 142 756 l 146 778 l 733 778 l 697 575 l 674 575 l 629 713 l 360 713 l 310 435 l 500 435 l 579 532 l 601 532 l 551 268 l 528 268 l 490 372 l 299 372 l 243 65 l 557 65 l 657 224 l 679 224 l 639 0 l 549 0 q 487 -99 508 -51 q 465 -192 465 -147 q 542 -269 465 -269 q 574 -264 556 -269 q 610 -247 592 -258 l 614 -247 l 610 -267 q 558 -315 589 -297 q 488 -333 526 -333 q 403 -303 435 -333 q 372 -221 372 -274 q 409 -113 372 -167 q 506 0 446 -60 l 4 0 z "},"ẹ":{"ha":778,"x_min":4,"x_max":733,"o":"m 4 0 l 8 22 l 111 78 l 225 700 l 142 756 l 146 778 l 733 778 l 697 575 l 674 575 l 629 713 l 360 713 l 310 435 l 500 435 l 579 532 l 601 532 l 551 268 l 528 268 l 490 372 l 299 372 l 243 65 l 557 65 l 657 224 l 679 224 l 639 0 l 4 0 m 324 -296 q 264 -272 289 -296 q 239 -211 239 -247 q 264 -151 239 -176 q 324 -126 289 -126 q 384 -151 360 -126 q 408 -211 408 -176 q 384 -272 408 -247 q 324 -296 360 -296 z "},"ȅ":{"ha":778,"x_min":4,"x_max":733,"o":"m 4 0 l 8 22 l 111 78 l 225 700 l 142 756 l 146 778 l 733 778 l 697 575 l 674 575 l 629 713 l 360 713 l 310 435 l 500 435 l 579 532 l 601 532 l 551 268 l 528 268 l 490 372 l 299 372 l 243 65 l 557 65 l 657 224 l 679 224 l 639 0 l 4 0 m 563 882 l 424 1046 q 400 1086 404 1068 q 400 1128 396 1104 l 489 1128 l 581 882 l 563 882 m 408 882 l 240 1046 q 215 1088 218 1067 q 215 1128 211 1108 l 304 1128 l 426 882 l 408 882 z "},"ȇ":{"ha":778,"x_min":4,"x_max":733,"o":"m 4 0 l 8 22 l 111 78 l 225 700 l 142 756 l 146 778 l 733 778 l 697 575 l 674 575 l 629 713 l 360 713 l 310 435 l 500 435 l 579 532 l 601 532 l 551 268 l 528 268 l 490 372 l 299 372 l 243 65 l 557 65 l 657 224 l 679 224 l 639 0 l 4 0 m 301 896 q 396 1072 340 1015 q 538 1128 451 1128 q 663 1069 628 1128 q 701 896 697 1011 l 683 896 q 651 992 671 961 q 601 1033 631 1024 q 529 1043 571 1043 q 453 1033 488 1043 q 386 992 418 1024 q 319 896 354 961 l 301 896 z "},"ế":{"ha":778,"x_min":4,"x_max":879,"o":"m 4 0 l 8 22 l 111 78 l 225 700 l 142 756 l 146 778 l 733 778 l 697 575 l 674 575 l 629 713 l 360 713 l 310 435 l 500 435 l 579 532 l 601 532 l 551 268 l 528 268 l 490 372 l 299 372 l 243 65 l 557 65 l 657 224 l 679 224 l 639 0 l 4 0 m 674 1031 l 764 1229 l 879 1229 q 864 1188 875 1208 q 822 1143 853 1167 l 689 1031 l 674 1031 m 299 882 l 519 1128 l 564 1128 l 696 882 l 678 882 l 524 1018 l 315 882 l 299 882 z "},"ệ":{"ha":778,"x_min":4,"x_max":733,"o":"m 4 0 l 8 22 l 111 78 l 225 700 l 142 756 l 146 778 l 733 778 l 697 575 l 674 575 l 629 713 l 360 713 l 310 435 l 500 435 l 579 532 l 601 532 l 551 268 l 528 268 l 490 372 l 299 372 l 243 65 l 557 65 l 657 224 l 679 224 l 639 0 l 4 0 m 297 882 l 518 1128 l 564 1128 l 694 882 l 676 882 l 524 1018 l 315 882 l 297 882 m 324 -296 q 264 -272 289 -296 q 239 -211 239 -247 q 264 -151 239 -176 q 324 -126 289 -126 q 384 -151 360 -126 q 408 -211 408 -176 q 384 -272 408 -247 q 324 -296 360 -296 z "},"ề":{"ha":778,"x_min":4,"x_max":733,"o":"m 4 0 l 8 22 l 111 78 l 225 700 l 142 756 l 146 778 l 733 778 l 697 575 l 674 575 l 629 713 l 360 713 l 310 435 l 500 435 l 579 532 l 601 532 l 551 268 l 528 268 l 490 372 l 299 372 l 243 65 l 557 65 l 657 224 l 679 224 l 639 0 l 4 0 m 344 1031 l 208 1142 q 177 1185 182 1164 q 175 1229 172 1207 l 278 1229 l 363 1031 l 344 1031 m 299 882 l 519 1128 l 564 1128 l 696 882 l 678 882 l 524 1018 l 315 882 l 299 882 z "},"ể":{"ha":778,"x_min":4,"x_max":733,"o":"m 4 0 l 8 22 l 111 78 l 225 700 l 142 756 l 146 778 l 733 778 l 697 575 l 674 575 l 629 713 l 360 713 l 310 435 l 500 435 l 579 532 l 601 532 l 551 268 l 528 268 l 490 372 l 299 372 l 243 65 l 557 65 l 657 224 l 679 224 l 639 0 l 4 0 z "},"ễ":{"ha":778,"x_min":4,"x_max":797,"o":"m 4 0 l 8 22 l 111 78 l 225 700 l 142 756 l 146 778 l 733 778 l 697 575 l 674 575 l 629 713 l 360 713 l 310 435 l 500 435 l 579 532 l 601 532 l 551 268 l 528 268 l 490 372 l 299 372 l 243 65 l 557 65 l 657 224 l 679 224 l 639 0 l 4 0 z "},"ẻ":{"ha":778,"x_min":4,"x_max":733,"o":"m 4 0 l 8 22 l 111 78 l 225 700 l 142 756 l 146 778 l 733 778 l 697 575 l 674 575 l 629 713 l 360 713 l 310 435 l 500 435 l 579 532 l 601 532 l 551 268 l 528 268 l 490 372 l 299 372 l 243 65 l 557 65 l 657 224 l 679 224 l 639 0 l 4 0 m 442 897 l 442 899 q 519 934 494 914 q 544 990 544 954 q 525 1028 544 1013 q 458 1054 506 1044 l 485 1128 q 585 1089 557 1121 q 614 1022 614 1057 q 449 888 614 919 l 442 897 z "},"ḕ":{"ha":778,"x_min":4,"x_max":733,"o":"m 4 0 l 8 22 l 111 78 l 225 700 l 142 756 l 146 778 l 733 778 l 697 575 l 674 575 l 629 713 l 360 713 l 310 435 l 500 435 l 579 532 l 601 532 l 551 268 l 528 268 l 490 372 l 299 372 l 243 65 l 557 65 l 657 224 l 679 224 l 639 0 l 4 0 z "},"ḗ":{"ha":778,"x_min":4,"x_max":803,"o":"m 4 0 l 8 22 l 111 78 l 225 700 l 142 756 l 146 778 l 733 778 l 697 575 l 674 575 l 629 713 l 360 713 l 310 435 l 500 435 l 579 532 l 601 532 l 551 268 l 528 268 l 490 372 l 299 372 l 243 65 l 557 65 l 657 224 l 679 224 l 639 0 l 4 0 z "},"ḝ":{"ha":778,"x_min":4,"x_max":739,"o":"m 504 896 q 378 954 413 896 q 340 1128 344 1013 l 357 1128 q 390 1031 369 1063 q 441 990 410 1000 q 513 981 472 981 q 589 990 554 981 q 656 1031 624 1000 q 722 1128 689 1063 l 739 1128 q 644 952 700 1008 q 504 896 589 896 m 4 0 l 8 22 l 111 78 l 225 700 l 142 756 l 146 778 l 733 778 l 697 575 l 674 575 l 629 713 l 360 713 l 310 435 l 500 435 l 579 532 l 601 532 l 551 268 l 528 268 l 490 372 l 299 372 l 243 65 l 557 65 l 657 224 l 679 224 l 639 0 l 385 0 l 339 -74 q 428 -127 401 -96 q 456 -206 456 -158 q 415 -296 456 -258 q 307 -333 375 -333 q 200 -294 232 -333 l 203 -276 l 208 -276 q 244 -290 225 -285 q 289 -294 263 -294 q 376 -229 376 -294 q 349 -176 376 -197 q 257 -135 322 -154 l 342 0 l 4 0 z "},"ĝ":{"ha":903,"x_min":78,"x_max":824,"o":"m 401 -14 q 231 26 303 -14 q 118 138 158 67 q 78 304 78 210 q 117 499 78 410 q 223 655 156 589 q 378 757 290 721 q 565 793 467 793 q 694 780 642 793 q 806 735 747 767 l 776 529 l 753 529 l 701 674 q 638 716 671 703 q 556 729 606 729 q 376 676 453 729 q 257 531 299 622 q 215 324 215 439 q 278 122 215 196 q 443 47 342 47 q 502 51 472 47 q 563 67 532 56 l 597 269 l 507 322 l 511 344 l 824 344 l 819 322 l 731 269 l 697 78 q 565 10 640 35 q 401 -14 490 -14 m 371 882 l 592 1128 l 638 1128 l 768 882 l 750 882 l 597 1018 l 389 882 l 371 882 z "},"ğ":{"ha":903,"x_min":78,"x_max":824,"o":"m 401 -14 q 231 26 303 -14 q 118 138 158 67 q 78 304 78 210 q 117 499 78 410 q 223 655 156 589 q 378 757 290 721 q 565 793 467 793 q 694 780 642 793 q 806 735 747 767 l 776 529 l 753 529 l 701 674 q 638 716 671 703 q 556 729 606 729 q 376 676 453 729 q 257 531 299 622 q 215 324 215 439 q 278 122 215 196 q 443 47 342 47 q 502 51 472 47 q 563 67 532 56 l 597 269 l 507 322 l 511 344 l 824 344 l 819 322 l 731 269 l 697 78 q 565 10 640 35 q 401 -14 490 -14 m 578 896 q 453 954 488 896 q 414 1128 418 1013 l 432 1128 q 465 1031 444 1063 q 515 990 485 1000 q 586 981 544 981 q 663 990 628 981 q 729 1031 697 1000 q 796 1128 761 1063 l 814 1128 q 719 953 775 1010 q 578 896 664 896 z "},"ġ":{"ha":903,"x_min":78,"x_max":824,"o":"m 401 -14 q 231 26 303 -14 q 118 138 158 67 q 78 304 78 210 q 117 499 78 410 q 223 655 156 589 q 378 757 290 721 q 565 793 467 793 q 694 780 642 793 q 806 735 747 767 l 776 529 l 753 529 l 701 674 q 638 716 671 703 q 556 729 606 729 q 376 676 453 729 q 257 531 299 622 q 215 324 215 439 q 278 122 215 196 q 443 47 342 47 q 502 51 472 47 q 563 67 532 56 l 597 269 l 507 322 l 511 344 l 824 344 l 819 322 l 731 269 l 697 78 q 565 10 640 35 q 401 -14 490 -14 m 593 921 q 533 944 557 921 q 508 1004 508 968 q 533 1065 508 1040 q 593 1089 557 1089 q 652 1065 628 1089 q 676 1004 676 1040 q 652 944 676 968 q 593 921 628 921 z "},"ģ":{"ha":903,"x_min":78,"x_max":824,"o":"m 401 -14 q 231 26 303 -14 q 118 138 158 67 q 78 304 78 210 q 117 499 78 410 q 223 655 156 589 q 378 757 290 721 q 565 793 467 793 q 694 780 642 793 q 806 735 747 767 l 776 529 l 753 529 l 701 674 q 638 716 671 703 q 556 729 606 729 q 376 676 453 729 q 257 531 299 622 q 215 324 215 439 q 278 122 215 196 q 443 47 342 47 q 502 51 472 47 q 563 67 532 56 l 597 269 l 507 322 l 511 344 l 824 344 l 819 322 l 731 269 l 697 78 q 565 10 640 35 q 401 -14 490 -14 m 622 893 q 515 922 550 893 q 481 996 481 950 q 530 1087 481 1057 q 654 1117 579 1117 q 679 1116 665 1117 q 704 1113 693 1115 l 700 1096 q 682 1098 690 1097 q 665 1099 674 1099 q 592 1081 618 1099 q 565 1028 565 1063 q 593 981 565 994 q 678 967 621 967 l 669 922 q 657 901 668 910 q 622 893 646 893 z "},"ǧ":{"ha":903,"x_min":78,"x_max":824,"o":"m 401 -14 q 231 26 303 -14 q 118 138 158 67 q 78 304 78 210 q 117 499 78 410 q 223 655 156 589 q 378 757 290 721 q 565 793 467 793 q 694 780 642 793 q 806 735 747 767 l 776 529 l 753 529 l 701 674 q 638 716 671 703 q 556 729 606 729 q 376 676 453 729 q 257 531 299 622 q 215 324 215 439 q 278 122 215 196 q 443 47 342 47 q 502 51 472 47 q 563 67 532 56 l 597 269 l 507 322 l 511 344 l 824 344 l 819 322 l 731 269 l 697 78 q 565 10 640 35 q 401 -14 490 -14 m 553 882 l 419 1128 l 438 1128 l 590 992 l 799 1128 l 817 1128 l 599 882 l 553 882 z "},"ḡ":{"ha":903,"x_min":78,"x_max":824,"o":"m 401 -14 q 231 26 303 -14 q 118 138 158 67 q 78 304 78 210 q 117 499 78 410 q 223 655 156 589 q 378 757 290 721 q 565 793 467 793 q 694 780 642 793 q 806 735 747 767 l 776 529 l 753 529 l 701 674 q 638 716 671 703 q 556 729 606 729 q 376 676 453 729 q 257 531 299 622 q 215 324 215 439 q 278 122 215 196 q 443 47 342 47 q 502 51 472 47 q 563 67 532 56 l 597 269 l 507 322 l 511 344 l 824 344 l 819 322 l 731 269 l 697 78 q 565 10 640 35 q 401 -14 490 -14 m 407 969 l 419 1036 l 783 1036 l 771 969 l 407 969 z "},"ĥ":{"ha":943,"x_min":4,"x_max":939,"o":"m 4 0 l 8 22 l 101 78 l 215 700 l 131 756 l 135 778 l 449 778 l 444 756 l 347 700 l 299 435 l 654 435 l 703 700 l 621 756 l 625 778 l 939 778 l 935 756 l 835 700 l 722 78 l 811 22 l 807 0 l 494 0 l 497 22 l 590 78 l 643 369 l 288 369 l 235 78 l 322 22 l 318 0 l 4 0 m 363 882 l 583 1128 l 629 1128 l 760 882 l 742 882 l 589 1018 l 381 882 l 363 882 z "},"ħ":{"ha":943,"x_min":4,"x_max":939,"o":"m 4 0 l 8 22 l 101 78 l 190 565 l 99 565 l 110 624 l 201 624 l 215 700 l 131 756 l 135 778 l 449 778 l 444 756 l 347 700 l 333 624 l 689 624 l 703 700 l 621 756 l 625 778 l 939 778 l 935 756 l 835 700 l 821 624 l 915 624 l 904 565 l 810 565 l 722 78 l 811 22 l 807 0 l 494 0 l 497 22 l 590 78 l 643 369 l 288 369 l 235 78 l 322 22 l 318 0 l 4 0 m 299 435 l 654 435 l 678 565 l 322 565 l 299 435 z "},"ḥ":{"ha":943,"x_min":4,"x_max":939,"o":"m 4 0 l 8 22 l 101 78 l 215 700 l 131 756 l 135 778 l 449 778 l 444 756 l 347 700 l 299 435 l 654 435 l 703 700 l 621 756 l 625 778 l 939 778 l 935 756 l 835 700 l 722 78 l 811 22 l 807 0 l 494 0 l 497 22 l 590 78 l 643 369 l 288 369 l 235 78 l 322 22 l 318 0 l 4 0 m 368 -296 q 308 -272 333 -296 q 283 -211 283 -247 q 308 -151 283 -176 q 368 -126 333 -126 q 428 -151 404 -126 q 453 -211 453 -176 q 428 -272 453 -247 q 368 -296 404 -296 z "},"ḫ":{"ha":943,"x_min":4,"x_max":939,"o":"m 4 0 l 8 22 l 101 78 l 215 700 l 131 756 l 135 778 l 449 778 l 444 756 l 347 700 l 299 435 l 654 435 l 703 700 l 621 756 l 625 778 l 939 778 l 935 756 l 835 700 l 722 78 l 811 22 l 807 0 l 494 0 l 497 22 l 590 78 l 643 369 l 288 369 l 235 78 l 322 22 l 318 0 l 4 0 m 351 -332 q 226 -274 260 -332 q 188 -100 192 -215 l 204 -100 q 236 -195 215 -164 q 288 -236 257 -226 q 360 -246 318 -246 q 436 -237 401 -246 q 503 -197 471 -228 q 569 -100 535 -165 l 586 -100 q 492 -276 547 -219 q 351 -332 436 -332 z "},"ì":{"ha":451,"x_min":4,"x_max":447,"o":"m 4 0 l 8 22 l 103 78 l 213 700 l 128 756 l 132 778 l 447 778 l 443 756 l 344 700 l 235 78 l 322 22 l 318 0 l 4 0 m 300 882 l 115 1040 q 86 1085 89 1063 q 86 1128 83 1107 l 193 1128 l 317 882 l 300 882 z "},"í":{"ha":451,"x_min":4,"x_max":565,"o":"m 4 0 l 8 22 l 103 78 l 213 700 l 128 756 l 132 778 l 447 778 l 443 756 l 344 700 l 235 78 l 322 22 l 318 0 l 4 0 m 301 882 l 444 1128 l 565 1128 q 549 1088 561 1107 q 506 1040 536 1068 l 319 882 l 301 882 z "},"î":{"ha":451,"x_min":4,"x_max":506,"o":"m 4 0 l 8 22 l 103 78 l 213 700 l 128 756 l 132 778 l 447 778 l 443 756 l 344 700 l 235 78 l 322 22 l 318 0 l 4 0 m 108 882 l 329 1128 l 375 1128 l 506 882 l 488 882 l 335 1018 l 126 882 l 108 882 z "},"ĩ":{"ha":451,"x_min":4,"x_max":551,"o":"m 4 0 l 8 22 l 103 78 l 213 700 l 128 756 l 132 778 l 447 778 l 443 756 l 344 700 l 235 78 l 322 22 l 318 0 l 4 0 m 111 915 q 174 1033 149 996 q 222 1082 200 1071 q 269 1093 243 1093 q 315 1079 294 1093 q 352 1047 335 1065 q 388 1015 369 1029 q 428 1001 406 1001 q 472 1017 451 1001 q 528 1093 493 1032 l 551 1093 q 488 975 514 1013 q 440 926 463 938 q 393 915 418 915 q 348 929 368 915 q 310 961 328 943 q 275 993 293 979 q 235 1007 257 1007 q 191 992 211 1007 q 135 915 171 976 l 111 915 z "},"ï":{"ha":451,"x_min":4,"x_max":518,"o":"m 4 0 l 8 22 l 103 78 l 213 700 l 128 756 l 132 778 l 447 778 l 443 756 l 344 700 l 235 78 l 322 22 l 318 0 l 4 0 m 208 938 q 162 957 181 938 q 143 1004 143 976 q 162 1051 143 1032 q 208 1069 181 1069 q 256 1051 236 1069 q 275 1004 275 1032 q 256 957 275 976 q 208 938 236 938 m 453 938 q 406 957 425 938 q 386 1004 386 976 q 406 1051 386 1032 q 453 1069 425 1069 q 499 1051 481 1069 q 518 1004 518 1032 q 499 957 518 976 q 453 938 481 938 z "},"ī":{"ha":451,"x_min":4,"x_max":519,"o":"m 4 0 l 8 22 l 103 78 l 213 700 l 128 756 l 132 778 l 447 778 l 443 756 l 344 700 l 235 78 l 322 22 l 318 0 l 4 0 m 143 969 l 156 1036 l 519 1036 l 507 969 l 143 969 z "},"ĭ":{"ha":451,"x_min":4,"x_max":550,"o":"m 4 0 l 8 22 l 103 78 l 213 700 l 128 756 l 132 778 l 447 778 l 443 756 l 344 700 l 235 78 l 322 22 l 318 0 l 4 0 m 314 896 q 189 954 224 896 q 150 1128 154 1013 l 168 1128 q 201 1031 181 1063 q 251 990 221 1000 q 322 981 281 981 q 399 990 364 981 q 465 1031 433 1000 q 532 1128 497 1063 l 550 1128 q 456 953 511 1010 q 314 896 400 896 z "},"į":{"ha":451,"x_min":3,"x_max":447,"o":"m 4 0 l 8 22 l 103 78 l 213 700 l 128 756 l 132 778 l 447 778 l 443 756 l 344 700 l 235 78 l 322 22 l 318 0 l 179 0 q 117 -99 139 -51 q 96 -192 96 -147 q 172 -269 96 -269 q 204 -264 186 -269 q 240 -247 222 -258 l 244 -247 l 240 -267 q 188 -315 219 -297 q 118 -333 157 -333 q 34 -303 65 -333 q 3 -221 3 -274 q 40 -113 3 -167 q 136 0 76 -60 l 4 0 z "},"ị":{"ha":451,"x_min":4,"x_max":447,"o":"m 4 0 l 8 22 l 103 78 l 213 700 l 128 756 l 132 778 l 447 778 l 443 756 l 344 700 l 235 78 l 322 22 l 318 0 l 4 0 m 118 -296 q 58 -272 83 -296 q 33 -211 33 -247 q 58 -151 33 -176 q 118 -126 83 -126 q 178 -151 154 -126 q 203 -211 203 -176 q 178 -272 203 -247 q 118 -296 154 -296 z "},"ȉ":{"ha":451,"x_min":4,"x_max":447,"o":"m 4 0 l 8 22 l 103 78 l 213 700 l 128 756 l 132 778 l 447 778 l 443 756 l 344 700 l 235 78 l 322 22 l 318 0 l 4 0 m 372 882 l 233 1046 q 210 1086 214 1068 q 210 1128 206 1104 l 299 1128 l 390 882 l 372 882 m 218 882 l 50 1046 q 24 1088 28 1067 q 25 1128 21 1108 l 114 1128 l 236 882 l 218 882 z "},"ȋ":{"ha":451,"x_min":4,"x_max":513,"o":"m 4 0 l 8 22 l 103 78 l 213 700 l 128 756 l 132 778 l 447 778 l 443 756 l 344 700 l 235 78 l 322 22 l 318 0 l 4 0 m 113 896 q 207 1072 151 1015 q 349 1128 263 1128 q 474 1069 439 1128 q 513 896 508 1011 l 494 896 q 462 992 482 961 q 412 1033 442 1024 q 340 1043 382 1043 q 264 1033 299 1043 q 197 992 229 1024 q 131 896 165 961 l 113 896 z "},"ỉ":{"ha":451,"x_min":4,"x_max":447,"o":"m 4 0 l 8 22 l 103 78 l 213 700 l 128 756 l 132 778 l 447 778 l 443 756 l 344 700 l 235 78 l 322 22 l 318 0 l 4 0 m 253 897 l 253 899 q 331 934 306 914 q 356 990 356 954 q 336 1028 356 1013 q 269 1054 317 1044 l 296 1128 q 397 1089 368 1121 q 425 1022 425 1057 q 260 888 425 919 l 253 897 z "},"ḯ":{"ha":451,"x_min":4,"x_max":610,"o":"m 4 0 l 8 22 l 103 78 l 213 700 l 128 756 l 132 778 l 447 778 l 443 756 l 344 700 l 235 78 l 322 22 l 318 0 l 4 0 z "},"ĳ":{"ha":897,"x_min":4,"x_max":900,"o":"m 4 0 l 8 22 l 103 78 l 213 700 l 128 756 l 132 778 l 447 778 l 443 756 l 344 700 l 235 78 l 322 22 l 318 0 l 4 0 m 397 -204 q 365 -192 376 -204 q 364 -150 354 -179 l 383 -89 l 390 -89 q 418 -98 407 -94 q 444 -101 429 -101 q 489 -90 469 -101 q 524 -42 508 -79 q 553 68 540 -6 l 665 700 l 582 756 l 586 778 l 900 778 l 896 756 l 797 700 l 725 285 q 656 47 701 151 q 553 -115 611 -58 q 466 -185 501 -165 q 397 -204 431 -204 z "},"ĵ":{"ha":447,"x_min":-97,"x_max":508,"o":"m -54 -204 q -86 -192 -75 -204 q -87 -150 -97 -179 l -68 -89 l -61 -89 q -33 -98 -44 -94 q -7 -101 -22 -101 q 38 -90 18 -101 q 73 -42 57 -79 q 101 68 89 -6 l 214 700 l 131 756 l 135 778 l 449 778 l 444 756 l 346 700 l 274 285 q 205 47 250 151 q 101 -115 160 -58 q 15 -185 50 -165 q -54 -204 -21 -204 m 111 882 l 332 1128 l 378 1128 l 508 882 l 490 882 l 338 1018 l 129 882 l 111 882 z "},"ķ":{"ha":858,"x_min":4,"x_max":840,"o":"m 4 0 l 8 22 l 110 78 l 221 700 l 139 756 l 143 778 l 460 778 l 456 756 l 353 700 l 242 78 l 324 22 l 319 0 l 4 0 m 564 0 l 303 397 l 639 713 l 568 756 l 572 778 l 840 778 l 835 756 l 747 717 l 429 432 l 669 76 l 753 22 l 750 0 l 564 0 m 293 -332 q 267 -331 282 -332 q 243 -328 253 -331 l 247 -310 q 282 -314 267 -314 q 356 -295 329 -314 q 382 -243 382 -276 q 269 -181 382 -181 l 278 -136 q 291 -115 281 -124 q 325 -107 301 -107 q 432 -136 397 -107 q 467 -211 467 -165 q 417 -301 467 -271 q 293 -332 368 -332 z "},"ĺ":{"ha":740,"x_min":4,"x_max":643,"o":"m 4 0 l 8 22 l 110 78 l 222 700 l 139 756 l 144 778 l 471 778 l 468 756 l 354 700 l 240 65 l 504 65 l 621 267 l 643 267 l 594 0 l 4 0 m 307 882 l 450 1128 l 571 1128 q 554 1088 567 1107 q 511 1040 542 1068 l 325 882 l 307 882 z "},"ľ":{"ha":740,"x_min":4,"x_max":669,"o":"m 4 0 l 8 22 l 110 78 l 222 700 l 139 756 l 144 778 l 471 778 l 468 756 l 354 700 l 240 65 l 504 65 l 621 267 l 643 267 l 594 0 l 4 0 m 479 518 l 557 778 l 667 778 q 665 734 669 757 q 638 685 660 711 l 497 518 l 479 518 z "},"ļ":{"ha":740,"x_min":4,"x_max":643,"o":"m 4 0 l 8 22 l 110 78 l 222 700 l 139 756 l 144 778 l 471 778 l 468 756 l 354 700 l 240 65 l 504 65 l 621 267 l 643 267 l 594 0 l 4 0 m 222 -332 q 197 -331 211 -332 q 172 -328 182 -331 l 176 -310 q 211 -314 196 -314 q 285 -295 258 -314 q 311 -243 311 -276 q 199 -181 311 -181 l 207 -136 q 220 -115 210 -124 q 254 -107 231 -107 q 361 -136 326 -107 q 396 -211 396 -165 q 347 -301 396 -271 q 222 -332 297 -332 z "},"ł":{"ha":740,"x_min":4,"x_max":643,"o":"m 4 0 l 8 22 l 110 78 l 146 281 l 42 221 l 57 296 l 160 357 l 222 700 l 139 756 l 144 778 l 471 778 l 468 756 l 354 700 l 306 428 l 504 542 l 489 467 l 292 353 l 240 65 l 504 65 l 621 267 l 643 267 l 594 0 l 4 0 z "},"ŀ":{"ha":740,"x_min":4,"x_max":678,"o":"m 4 0 l 8 22 l 110 78 l 222 700 l 139 756 l 144 778 l 471 778 l 468 756 l 354 700 l 240 65 l 504 65 l 621 267 l 643 267 l 594 0 l 4 0 m 594 325 q 534 349 558 325 q 510 408 510 372 q 534 469 510 444 q 594 493 558 493 q 653 469 629 493 q 678 408 678 444 q 653 349 678 372 q 594 325 629 325 z "},"ḷ":{"ha":740,"x_min":4,"x_max":643,"o":"m 4 0 l 8 22 l 110 78 l 222 700 l 139 756 l 144 778 l 471 778 l 468 756 l 354 700 l 240 65 l 504 65 l 621 267 l 643 267 l 594 0 l 4 0 m 289 -296 q 229 -272 254 -296 q 204 -211 204 -247 q 229 -151 204 -176 q 289 -126 254 -126 q 349 -151 325 -126 q 374 -211 374 -176 q 349 -272 374 -247 q 289 -296 325 -296 z "},"ḻ":{"ha":740,"x_min":4,"x_max":643,"o":"m 4 0 l 8 22 l 110 78 l 222 700 l 139 756 l 144 778 l 471 778 l 468 756 l 354 700 l 240 65 l 504 65 l 621 267 l 643 267 l 594 0 l 4 0 m 99 -240 l 111 -174 l 475 -174 l 463 -240 l 99 -240 z "},"ṃ":{"ha":1131,"x_min":4,"x_max":1118,"o":"m 4 0 l 8 22 l 108 79 l 246 703 l 150 756 l 154 778 l 404 778 l 544 194 l 874 778 l 1118 778 l 1114 756 l 1010 703 l 936 79 l 1010 22 l 1006 0 l 706 0 l 710 22 l 803 78 l 871 632 l 507 -6 l 454 -6 l 301 642 l 182 79 l 267 22 l 263 0 l 4 0 m 446 -296 q 386 -272 411 -296 q 361 -211 361 -247 q 386 -151 361 -176 q 446 -126 411 -126 q 506 -151 482 -126 q 531 -211 531 -176 q 506 -272 531 -247 q 446 -296 482 -296 z "},"ń":{"ha":932,"x_min":6,"x_max":933,"o":"m 6 0 l 10 22 l 114 79 l 226 700 l 142 757 l 146 778 l 339 778 l 664 211 l 750 701 l 642 756 l 646 778 l 933 778 l 929 756 l 825 701 l 700 -6 l 642 -6 l 283 611 l 189 78 l 299 22 l 294 0 l 6 0 m 557 882 l 700 1128 l 821 1128 q 804 1088 817 1107 q 761 1040 792 1068 l 575 882 l 557 882 z "},"ň":{"ha":932,"x_min":6,"x_max":933,"o":"m 6 0 l 10 22 l 114 79 l 226 700 l 142 757 l 146 778 l 339 778 l 664 211 l 750 701 l 642 756 l 646 778 l 933 778 l 929 756 l 825 701 l 700 -6 l 642 -6 l 283 611 l 189 78 l 299 22 l 294 0 l 6 0 m 544 882 l 411 1128 l 429 1128 l 582 992 l 790 1128 l 808 1128 l 590 882 l 544 882 z "},"ñ":{"ha":932,"x_min":6,"x_max":933,"o":"m 6 0 l 10 22 l 114 79 l 226 700 l 142 757 l 146 778 l 339 778 l 664 211 l 750 701 l 642 756 l 646 778 l 933 778 l 929 756 l 825 701 l 700 -6 l 642 -6 l 283 611 l 189 78 l 299 22 l 294 0 l 6 0 m 367 915 q 430 1033 404 996 q 477 1082 456 1071 q 525 1093 499 1093 q 570 1079 550 1093 q 608 1047 590 1065 q 643 1015 625 1029 q 683 1001 661 1001 q 728 1017 707 1001 q 783 1093 749 1032 l 807 1093 q 744 975 769 1013 q 696 926 718 938 q 649 915 674 915 q 603 929 624 915 q 566 961 583 943 q 531 993 549 979 q 490 1007 513 1007 q 447 992 467 1007 q 390 915 426 976 l 367 915 z "},"ņ":{"ha":932,"x_min":6,"x_max":933,"o":"m 6 0 l 10 22 l 114 79 l 226 700 l 142 757 l 146 778 l 339 778 l 664 211 l 750 701 l 642 756 l 646 778 l 933 778 l 929 756 l 825 701 l 700 -6 l 642 -6 l 283 611 l 189 78 l 299 22 l 294 0 l 6 0 m 311 -332 q 285 -331 300 -332 q 261 -328 271 -331 l 265 -310 q 300 -314 285 -314 q 374 -295 347 -314 q 400 -243 400 -276 q 288 -181 400 -181 l 296 -136 q 309 -115 299 -124 q 343 -107 319 -107 q 450 -136 415 -107 q 485 -211 485 -165 q 435 -301 485 -271 q 311 -332 386 -332 z "},"ṅ":{"ha":932,"x_min":6,"x_max":933,"o":"m 6 0 l 10 22 l 114 79 l 226 700 l 142 757 l 146 778 l 339 778 l 664 211 l 750 701 l 642 756 l 646 778 l 933 778 l 929 756 l 825 701 l 700 -6 l 642 -6 l 283 611 l 189 78 l 299 22 l 294 0 l 6 0 m 585 921 q 524 944 549 921 q 500 1004 500 968 q 524 1065 500 1040 q 585 1089 549 1089 q 644 1065 619 1089 q 668 1004 668 1040 q 644 944 668 968 q 585 921 619 921 z "},"ṇ":{"ha":932,"x_min":6,"x_max":933,"o":"m 6 0 l 10 22 l 114 79 l 226 700 l 142 757 l 146 778 l 339 778 l 664 211 l 750 701 l 642 756 l 646 778 l 933 778 l 929 756 l 825 701 l 700 -6 l 642 -6 l 283 611 l 189 78 l 299 22 l 294 0 l 6 0 m 378 -296 q 318 -272 343 -296 q 293 -211 293 -247 q 318 -151 293 -176 q 378 -126 343 -126 q 438 -151 414 -126 q 463 -211 463 -176 q 438 -272 463 -247 q 378 -296 414 -296 z "},"ṉ":{"ha":932,"x_min":6,"x_max":933,"o":"m 6 0 l 10 22 l 114 79 l 226 700 l 142 757 l 146 778 l 339 778 l 664 211 l 750 701 l 642 756 l 646 778 l 933 778 l 929 756 l 825 701 l 700 -6 l 642 -6 l 283 611 l 189 78 l 299 22 l 294 0 l 6 0 m 188 -240 l 200 -174 l 564 -174 l 551 -240 l 188 -240 z "},"ò":{"ha":953,"x_min":78,"x_max":874,"o":"m 418 -14 q 240 30 317 -14 q 120 151 163 74 q 78 329 78 228 q 112 506 78 422 q 207 655 146 590 q 351 756 268 719 q 533 793 435 793 q 713 749 636 793 q 832 628 790 706 q 874 449 874 550 q 840 274 874 357 q 747 126 807 192 q 602 24 686 61 q 418 -14 518 -14 m 439 50 q 594 104 528 50 q 699 249 661 158 q 736 446 736 339 q 712 593 736 528 q 638 695 688 658 q 517 732 589 732 q 362 678 429 732 q 256 534 294 624 q 217 335 217 444 q 272 130 217 210 q 439 50 328 50 m 553 882 l 368 1040 q 339 1085 342 1063 q 339 1128 336 1107 l 446 1128 l 569 882 l 553 882 z "},"ó":{"ha":953,"x_min":78,"x_max":874,"o":"m 418 -14 q 240 30 317 -14 q 120 151 163 74 q 78 329 78 228 q 112 506 78 422 q 207 655 146 590 q 351 756 268 719 q 533 793 435 793 q 713 749 636 793 q 832 628 790 706 q 874 449 874 550 q 840 274 874 357 q 747 126 807 192 q 602 24 686 61 q 418 -14 518 -14 m 439 50 q 594 104 528 50 q 699 249 661 158 q 736 446 736 339 q 712 593 736 528 q 638 695 688 658 q 517 732 589 732 q 362 678 429 732 q 256 534 294 624 q 217 335 217 444 q 272 130 217 210 q 439 50 328 50 m 554 882 l 697 1128 l 818 1128 q 801 1088 814 1107 q 758 1040 789 1068 l 572 882 l 554 882 z "},"ô":{"ha":953,"x_min":78,"x_max":874,"o":"m 418 -14 q 240 30 317 -14 q 120 151 163 74 q 78 329 78 228 q 112 506 78 422 q 207 655 146 590 q 351 756 268 719 q 533 793 435 793 q 713 749 636 793 q 832 628 790 706 q 874 449 874 550 q 840 274 874 357 q 747 126 807 192 q 602 24 686 61 q 418 -14 518 -14 m 439 50 q 594 104 528 50 q 699 249 661 158 q 736 446 736 339 q 712 593 736 528 q 638 695 688 658 q 517 732 589 732 q 362 678 429 732 q 256 534 294 624 q 217 335 217 444 q 272 130 217 210 q 439 50 328 50 m 361 882 l 582 1128 l 628 1128 l 758 882 l 740 882 l 588 1018 l 379 882 l 361 882 z "},"õ":{"ha":953,"x_min":78,"x_max":874,"o":"m 418 -14 q 240 30 317 -14 q 120 151 163 74 q 78 329 78 228 q 112 506 78 422 q 207 655 146 590 q 351 756 268 719 q 533 793 435 793 q 713 749 636 793 q 832 628 790 706 q 874 449 874 550 q 840 274 874 357 q 747 126 807 192 q 602 24 686 61 q 418 -14 518 -14 m 439 50 q 594 104 528 50 q 699 249 661 158 q 736 446 736 339 q 712 593 736 528 q 638 695 688 658 q 517 732 589 732 q 362 678 429 732 q 256 534 294 624 q 217 335 217 444 q 272 130 217 210 q 439 50 328 50 m 364 915 q 427 1033 401 996 q 474 1082 453 1071 q 522 1093 496 1093 q 567 1079 547 1093 q 605 1047 588 1065 q 640 1015 622 1029 q 681 1001 658 1001 q 725 1017 704 1001 q 781 1093 746 1032 l 804 1093 q 741 975 767 1013 q 693 926 715 938 q 646 915 671 915 q 601 929 621 915 q 563 961 581 943 q 528 993 546 979 q 488 1007 510 1007 q 444 992 464 1007 q 388 915 424 976 l 364 915 z "},"ö":{"ha":953,"x_min":78,"x_max":874,"o":"m 418 -14 q 240 30 317 -14 q 120 151 163 74 q 78 329 78 228 q 112 506 78 422 q 207 655 146 590 q 351 756 268 719 q 533 793 435 793 q 713 749 636 793 q 832 628 790 706 q 874 449 874 550 q 840 274 874 357 q 747 126 807 192 q 602 24 686 61 q 418 -14 518 -14 m 439 50 q 594 104 528 50 q 699 249 661 158 q 736 446 736 339 q 712 593 736 528 q 638 695 688 658 q 517 732 589 732 q 362 678 429 732 q 256 534 294 624 q 217 335 217 444 q 272 130 217 210 q 439 50 328 50 m 461 938 q 415 957 433 938 q 396 1004 396 976 q 415 1051 396 1032 q 461 1069 433 1069 q 508 1051 489 1069 q 528 1004 528 1032 q 508 957 528 976 q 461 938 489 938 m 706 938 q 658 957 678 938 q 639 1004 639 976 q 658 1051 639 1032 q 706 1069 678 1069 q 752 1051 733 1069 q 771 1004 771 1032 q 752 957 771 976 q 706 938 733 938 z "},"ō":{"ha":953,"x_min":78,"x_max":874,"o":"m 418 -14 q 240 30 317 -14 q 120 151 163 74 q 78 329 78 228 q 112 506 78 422 q 207 655 146 590 q 351 756 268 719 q 533 793 435 793 q 713 749 636 793 q 832 628 790 706 q 874 449 874 550 q 840 274 874 357 q 747 126 807 192 q 602 24 686 61 q 418 -14 518 -14 m 439 50 q 594 104 528 50 q 699 249 661 158 q 736 446 736 339 q 712 593 736 528 q 638 695 688 658 q 517 732 589 732 q 362 678 429 732 q 256 534 294 624 q 217 335 217 444 q 272 130 217 210 q 439 50 328 50 m 396 969 l 408 1036 l 772 1036 l 760 969 l 396 969 z "},"ŏ":{"ha":953,"x_min":78,"x_max":874,"o":"m 418 -14 q 240 30 317 -14 q 120 151 163 74 q 78 329 78 228 q 112 506 78 422 q 207 655 146 590 q 351 756 268 719 q 533 793 435 793 q 713 749 636 793 q 832 628 790 706 q 874 449 874 550 q 840 274 874 357 q 747 126 807 192 q 602 24 686 61 q 418 -14 518 -14 m 439 50 q 594 104 528 50 q 699 249 661 158 q 736 446 736 339 q 712 593 736 528 q 638 695 688 658 q 517 732 589 732 q 362 678 429 732 q 256 534 294 624 q 217 335 217 444 q 272 130 217 210 q 439 50 328 50 m 567 896 q 442 954 476 896 q 403 1128 407 1013 l 421 1128 q 453 1031 433 1063 q 503 990 474 1000 q 575 981 533 981 q 651 990 617 981 q 718 1031 686 1000 q 785 1128 750 1063 l 803 1128 q 708 953 764 1010 q 567 896 653 896 z "}}}
